u2194_noise 500 - 40.ufo
<glyph name="exclam" format="1">
  <advance width="622"/>
  <unicode hex="0021"/>
  <outline>
    <contour>
      <point x="139" y="175" type="curve" smooth="yes"/>
      <point x="225" y="275" type="line" smooth="yes"/>
      <point x="233" y="284"/>
      <point x="237" y="301"/>
      <point x="233" y="312" type="curve" smooth="yes"/>
      <point x="215" y="377" type="line"/>
      <point x="441" y="464" type="line" smooth="yes"/>
      <point x="474" y="476"/>
      <point x="479" y="515"/>
      <point x="449" y="534" type="curve" smooth="yes"/>
      <point x="363" y="592" type="line"/>
      <point x="545" y="664" type="line" smooth="yes"/>
      <point x="584" y="679"/>
      <point x="580" y="731"/>
      <point x="539" y="740" type="curve" smooth="yes"/>
      <point x="99" y="840" type="line" smooth="yes"/>
      <point x="78" y="845"/>
      <point x="56" y="831"/>
      <point x="51" y="810" type="curve" smooth="yes"/>
      <point x="46" y="789"/>
      <point x="60" y="767"/>
      <point x="81" y="762" type="curve" smooth="yes"/>
      <point x="395" y="691" type="line"/>
      <point x="262" y="638" type="line" smooth="yes"/>
      <point x="230" y="625"/>
      <point x="226" y="587"/>
      <point x="255" y="568" type="curve" smooth="yes"/>
      <point x="340" y="511" type="line"/>
      <point x="152" y="438" type="line" smooth="yes"/>
      <point x="133" y="431"/>
      <point x="122" y="409"/>
      <point x="128" y="390" type="curve" smooth="yes"/>
      <point x="151" y="311" type="line"/>
      <point x="79" y="227" type="line" smooth="yes"/>
      <point x="65" y="211"/>
      <point x="67" y="185"/>
      <point x="83" y="171" type="curve" smooth="yes"/>
      <point x="99" y="157"/>
      <point x="125" y="159"/>
    </contour>
    <contour>
      <point x="440" y="21" type="curve" smooth="yes"/>
      <point x="439" y="42"/>
      <point x="419" y="59"/>
      <point x="397" y="58" type="curve" smooth="yes"/>
      <point x="136" y="41" type="line" smooth="yes"/>
      <point x="115" y="40"/>
      <point x="98" y="20"/>
      <point x="99" y="-2" type="curve" smooth="yes"/>
      <point x="100" y="-23"/>
      <point x="120" y="-40"/>
      <point x="142" y="-39" type="curve" smooth="yes"/>
      <point x="403" y="-22" type="line" smooth="yes"/>
      <point x="424" y="-21"/>
      <point x="441" y="-1"/>
    </contour>
  </outline>
</glyph>
<glyph name="numbersign" format="1">
  <advance width="1011"/>
  <unicode hex="0023"/>
  <outline>
    <contour>
      <point x="628" y="734" type="line" smooth="yes"/>
      <point x="604" y="721"/>
      <point x="599" y="693"/>
      <point x="617" y="673" type="curve" smooth="yes"/>
      <point x="647" y="639" type="line"/>
      <point x="557" y="639" type="line"/>
      <point x="477" y="688" type="line"/>
      <point x="633" y="737" type="line"/>
    </contour>
    <contour>
      <point x="453" y="365" type="line" smooth="yes"/>
      <point x="472" y="377"/>
      <point x="478" y="402"/>
      <point x="466" y="421" type="curve" smooth="yes"/>
      <point x="425" y="485" type="line"/>
      <point x="556" y="559" type="line"/>
      <point x="713" y="559" type="line"/>
      <point x="763" y="480" type="line"/>
      <point x="802" y="395" type="line"/>
      <point x="784" y="328" type="line"/>
      <point x="600" y="249" type="line"/>
      <point x="371" y="313" type="line"/>
    </contour>
    <contour>
      <point x="209" y="-39" type="curve" smooth="yes"/>
      <point x="525" y="61" type="line" smooth="yes"/>
      <point x="529" y="62"/>
      <point x="535" y="66"/>
      <point x="539" y="68" type="curve" smooth="yes"/>
      <point x="618" y="136" type="line"/>
      <point x="701" y="91" type="line"/>
      <point x="630" y="29" type="line" smooth="yes"/>
      <point x="613" y="15"/>
      <point x="612" y="-11"/>
      <point x="626" y="-27" type="curve" smooth="yes"/>
      <point x="640" y="-44"/>
      <point x="666" y="-45"/>
      <point x="682" y="-31" type="curve" smooth="yes"/>
      <point x="797" y="69" type="line" smooth="yes"/>
      <point x="820" y="88"/>
      <point x="816" y="120"/>
      <point x="790" y="134" type="curve" smooth="yes"/>
      <point x="744" y="159" type="line"/>
      <point x="793" y="159" type="line"/>
      <point x="793" y="239" type="line"/>
      <point x="779" y="239" type="line"/>
      <point x="833" y="262" type="line" smooth="yes"/>
      <point x="843" y="266"/>
      <point x="853" y="278"/>
      <point x="856" y="288" type="curve" smooth="yes"/>
      <point x="884" y="388" type="line" smooth="yes"/>
      <point x="886" y="396"/>
      <point x="885" y="409"/>
      <point x="881" y="416" type="curve" smooth="yes"/>
      <point x="834" y="516" type="line" smooth="yes"/>
      <point x="834" y="517"/>
      <point x="833" y="519"/>
      <point x="832" y="520" type="curve" smooth="yes"/>
      <point x="807" y="559" type="line"/>
      <point x="961" y="559" type="line"/>
      <point x="961" y="639" type="line"/>
      <point x="753" y="639" type="line"/>
      <point x="710" y="688" type="line"/>
      <point x="848" y="764" type="line" smooth="yes"/>
      <point x="867" y="774"/>
      <point x="874" y="799"/>
      <point x="864" y="818" type="curve" smooth="yes"/>
      <point x="854" y="837"/>
      <point x="829" y="844"/>
      <point x="810" y="834" type="curve" smooth="yes"/>
      <point x="735" y="793" type="line"/>
      <point x="736" y="799"/>
      <point x="736" y="805"/>
      <point x="734" y="811" type="curve" smooth="yes"/>
      <point x="728" y="832"/>
      <point x="704" y="844"/>
      <point x="684" y="837" type="curve" smooth="yes"/>
      <point x="369" y="737" type="line" smooth="yes"/>
      <point x="333" y="726"/>
      <point x="328" y="684"/>
      <point x="360" y="665" type="curve" smooth="yes"/>
      <point x="403" y="639" type="line"/>
      <point x="90" y="639" type="line" smooth="yes"/>
      <point x="68" y="639"/>
      <point x="50" y="621"/>
      <point x="50" y="599" type="curve" smooth="yes"/>
      <point x="50" y="577"/>
      <point x="68" y="559"/>
      <point x="90" y="559" type="curve" smooth="yes"/>
      <point x="393" y="559" type="line"/>
      <point x="348" y="534" type="line" smooth="yes"/>
      <point x="328" y="522"/>
      <point x="322" y="497"/>
      <point x="334" y="477" type="curve" smooth="yes"/>
      <point x="377" y="411" type="line"/>
      <point x="253" y="333" type="line" smooth="yes"/>
      <point x="221" y="313"/>
      <point x="227" y="271"/>
      <point x="263" y="260" type="curve" smooth="yes"/>
      <point x="340" y="239" type="line"/>
      <point x="234" y="239" type="line"/>
      <point x="234" y="159" type="line"/>
      <point x="522" y="159" type="line"/>
      <point x="493" y="135" type="line"/>
      <point x="185" y="37" type="line" smooth="yes"/>
      <point x="164" y="31"/>
      <point x="152" y="8"/>
      <point x="159" y="-13" type="curve" smooth="yes"/>
      <point x="165" y="-34"/>
      <point x="188" y="-46"/>
    </contour>
  </outline>
</glyph>
<glyph name="dollar" format="1">
  <advance width="1095"/>
  <unicode hex="0024"/>
  <outline>
    <contour>
      <point x="241" y="439" type="line"/>
      <point x="154" y="444" type="line"/>
      <point x="372" y="562" type="line" smooth="yes"/>
      <point x="410" y="583"/>
      <point x="398" y="635"/>
      <point x="355" y="637" type="curve" smooth="yes"/>
      <point x="326" y="638" type="line"/>
      <point x="298" y="669" type="line"/>
      <point x="392" y="714" type="line"/>
      <point x="467" y="665" type="line"/>
      <point x="564" y="601" type="line"/>
      <point x="454" y="533" type="line" smooth="yes"/>
      <point x="442" y="526"/>
      <point x="433" y="508"/>
      <point x="435" y="493" type="curve" smooth="yes"/>
      <point x="443" y="439" type="line"/>
    </contour>
    <contour>
      <point x="503" y="213" type="line" smooth="yes"/>
      <point x="501" y="218"/>
      <point x="496" y="226"/>
      <point x="492" y="229" type="curve" smooth="yes"/>
      <point x="415" y="296" type="line"/>
      <point x="502" y="359" type="line"/>
      <point x="874" y="353" type="line"/>
      <point x="724" y="232" type="line" smooth="yes"/>
      <point x="722" y="230"/>
      <point x="718" y="227"/>
      <point x="717" y="225" type="curve" smooth="yes"/>
      <point x="656" y="141" type="line" smooth="yes"/>
      <point x="639" y="117"/>
      <point x="649" y="88"/>
      <point x="677" y="79" type="curve" smooth="yes"/>
      <point x="757" y="55" type="line"/>
      <point x="624" y="41" type="line"/>
      <point x="538" y="122" type="line"/>
    </contour>
    <contour>
      <point x="678" y="-41" type="line"/>
      <point x="678" y="-34" type="line"/>
      <point x="962" y="-4" type="line" smooth="yes"/>
      <point x="1008" y="1"/>
      <point x="1014" y="61"/>
      <point x="970" y="74" type="curve" smooth="yes"/>
      <point x="754" y="139" type="line"/>
      <point x="778" y="173" type="line"/>
      <point x="949" y="311" type="line" smooth="yes"/>
      <point x="961" y="321"/>
      <point x="967" y="340"/>
      <point x="962" y="354" type="curve" smooth="yes"/>
      <point x="947" y="405" type="line" smooth="yes"/>
      <point x="942" y="420"/>
      <point x="925" y="433"/>
      <point x="909" y="433" type="curve" smooth="yes"/>
      <point x="687" y="436" type="line"/>
      <point x="687" y="439" type="line"/>
      <point x="524" y="439" type="line"/>
      <point x="518" y="479" type="line"/>
      <point x="659" y="565" type="line" smooth="yes"/>
      <point x="686" y="581"/>
      <point x="686" y="615"/>
      <point x="660" y="632" type="curve" smooth="yes"/>
      <point x="511" y="733" type="line"/>
      <point x="470" y="759" type="line"/>
      <point x="675" y="759" type="line"/>
      <point x="943" y="726" type="line"/>
      <point x="957" y="693" type="line"/>
      <point x="885" y="629" type="line" smooth="yes"/>
      <point x="869" y="614"/>
      <point x="868" y="588"/>
      <point x="882" y="572" type="curve" smooth="yes"/>
      <point x="897" y="556"/>
      <point x="923" y="555"/>
      <point x="939" y="569" type="curve" smooth="yes"/>
      <point x="1032" y="653" type="line" smooth="yes"/>
      <point x="1044" y="663"/>
      <point x="1049" y="684"/>
      <point x="1042" y="698" type="curve" smooth="yes"/>
      <point x="1007" y="779" type="line" smooth="yes"/>
      <point x="1002" y="791"/>
      <point x="988" y="801"/>
      <point x="975" y="803" type="curve" smooth="yes"/>
      <point x="682" y="839" type="line" smooth="yes"/>
      <point x="681" y="839"/>
      <point x="678" y="839"/>
      <point x="677" y="839" type="curve" smooth="yes"/>
      <point x="425" y="839" type="line" smooth="yes"/>
      <point x="413" y="839"/>
      <point x="398" y="831"/>
      <point x="391" y="821" type="curve" smooth="yes"/>
      <point x="386" y="813" type="line"/>
      <point x="355" y="833" type="line" smooth="yes"/>
      <point x="336" y="844"/>
      <point x="311" y="839"/>
      <point x="299" y="821" type="curve" smooth="yes"/>
      <point x="288" y="802"/>
      <point x="293" y="777"/>
      <point x="311" y="765" type="curve" smooth="yes"/>
      <point x="312" y="765" type="line"/>
      <point x="216" y="718" type="line" smooth="yes"/>
      <point x="190" y="706"/>
      <point x="185" y="676"/>
      <point x="203" y="655" type="curve" smooth="yes"/>
      <point x="260" y="592" type="line"/>
      <point x="72" y="491" type="line" smooth="yes"/>
      <point x="49" y="478"/>
      <point x="43" y="450"/>
      <point x="60" y="430" type="curve" smooth="yes"/>
      <point x="102" y="380" type="line" smooth="yes"/>
      <point x="108" y="372"/>
      <point x="121" y="366"/>
      <point x="130" y="365" type="curve" smooth="yes"/>
      <point x="241" y="359" type="line"/>
      <point x="366" y="359" type="line"/>
      <point x="328" y="331" type="line" smooth="yes"/>
      <point x="306" y="316"/>
      <point x="304" y="287"/>
      <point x="325" y="269" type="curve" smooth="yes"/>
      <point x="432" y="175" type="line"/>
      <point x="467" y="85" type="line" smooth="yes"/>
      <point x="468" y="80"/>
      <point x="473" y="73"/>
      <point x="477" y="70" type="curve" smooth="yes"/>
      <point x="509" y="39" type="line"/>
      <point x="476" y="39" type="line"/>
      <point x="475" y="40" type="line" smooth="yes"/>
      <point x="392" y="91" type="line"/>
      <point x="172" y="233" type="line" smooth="yes"/>
      <point x="153" y="244"/>
      <point x="128" y="239"/>
      <point x="116" y="221" type="curve" smooth="yes"/>
      <point x="105" y="202"/>
      <point x="110" y="177"/>
      <point x="128" y="165" type="curve" smooth="yes"/>
      <point x="322" y="41" type="line"/>
      <point x="282" y="39" type="line" smooth="yes"/>
      <point x="230" y="37"/>
      <point x="232" y="-41"/>
      <point x="284" y="-41" type="curve" smooth="yes"/>
    </contour>
  </outline>
</glyph>
<glyph name="percent" format="1">
  <advance width="1173"/>
  <unicode hex="0025"/>
  <outline>
    <contour>
      <point x="618" y="559" type="line"/>
      <point x="618" y="639" type="line"/>
      <point x="519" y="639" type="line"/>
      <point x="556" y="667" type="line" smooth="yes"/>
      <point x="573" y="681"/>
      <point x="576" y="707"/>
      <point x="563" y="724" type="curve" smooth="yes"/>
      <point x="549" y="741"/>
      <point x="523" y="744"/>
      <point x="506" y="731" type="curve" smooth="yes"/>
      <point x="389" y="639" type="line"/>
      <point x="224" y="639" type="line"/>
      <point x="239" y="649" type="line" smooth="yes"/>
      <point x="240" y="649"/>
      <point x="242" y="651"/>
      <point x="243" y="652" type="curve" smooth="yes"/>
      <point x="331" y="728" type="line"/>
      <point x="411" y="762" type="line" smooth="yes"/>
      <point x="430" y="771"/>
      <point x="440" y="795"/>
      <point x="432" y="815" type="curve" smooth="yes"/>
      <point x="423" y="834"/>
      <point x="399" y="844"/>
      <point x="379" y="836" type="curve" smooth="yes"/>
      <point x="294" y="800" type="line" smooth="yes"/>
      <point x="290" y="798"/>
      <point x="286" y="795"/>
      <point x="283" y="793" type="curve" smooth="yes"/>
      <point x="192" y="714" type="line"/>
      <point x="70" y="632" type="line" smooth="yes"/>
      <point x="34" y="609"/>
      <point x="49" y="559"/>
      <point x="92" y="559" type="curve" smooth="yes"/>
    </contour>
    <contour>
      <point x="890" y="-8" type="curve" smooth="yes"/>
      <point x="894" y="13"/>
      <point x="879" y="34"/>
      <point x="858" y="38" type="curve" smooth="yes"/>
      <point x="746" y="59" type="line"/>
      <point x="779" y="85" type="line" smooth="yes"/>
      <point x="784" y="89"/>
      <point x="790" y="99"/>
      <point x="792" y="106" type="curve" smooth="yes"/>
      <point x="799" y="131" type="line"/>
      <point x="893" y="161" type="line" smooth="yes"/>
      <point x="939" y="175"/>
      <point x="929" y="239"/>
      <point x="881" y="239" type="curve" smooth="yes"/>
      <point x="776" y="239" type="line" smooth="yes"/>
      <point x="759" y="239"/>
      <point x="742" y="226"/>
      <point x="737" y="209" type="curve" smooth="yes"/>
      <point x="733" y="194" type="line"/>
      <point x="554" y="137" type="line" smooth="yes"/>
      <point x="552" y="137"/>
      <point x="551" y="136"/>
      <point x="549" y="135" type="curve"/>
      <point x="398" y="167" type="line"/>
      <point x="504" y="201" type="line" smooth="yes"/>
      <point x="534" y="210"/>
      <point x="543" y="242"/>
      <point x="522" y="265" type="curve" smooth="yes"/>
      <point x="475" y="319" type="line"/>
      <point x="513" y="364" type="line"/>
      <point x="798" y="440" type="line" smooth="yes"/>
      <point x="818" y="446"/>
      <point x="831" y="467"/>
      <point x="827" y="487" type="curve" smooth="yes"/>
      <point x="811" y="567" type="line" smooth="yes"/>
      <point x="810" y="571"/>
      <point x="808" y="576"/>
      <point x="806" y="580" type="curve" smooth="yes"/>
      <point x="781" y="621" type="line"/>
      <point x="916" y="682" type="line"/>
      <point x="1099" y="762" type="line" smooth="yes"/>
      <point x="1119" y="771"/>
      <point x="1128" y="795"/>
      <point x="1120" y="815" type="curve" smooth="yes"/>
      <point x="1111" y="835"/>
      <point x="1087" y="844"/>
      <point x="1067" y="836" type="curve" smooth="yes"/>
      <point x="884" y="756" type="line"/>
      <point x="707" y="675" type="line" smooth="yes"/>
      <point x="685" y="665"/>
      <point x="677" y="639"/>
      <point x="690" y="618" type="curve" smooth="yes"/>
      <point x="734" y="544" type="line"/>
      <point x="741" y="508" type="line"/>
      <point x="481" y="438" type="line" smooth="yes"/>
      <point x="474" y="436"/>
      <point x="465" y="430"/>
      <point x="461" y="425" type="curve" smooth="yes"/>
      <point x="392" y="345" type="line" smooth="yes"/>
      <point x="379" y="331"/>
      <point x="379" y="307"/>
      <point x="392" y="293" type="curve" smooth="yes"/>
      <point x="422" y="259" type="line"/>
      <point x="229" y="197" type="line" smooth="yes"/>
      <point x="187" y="184"/>
      <point x="190" y="129"/>
      <point x="233" y="120" type="curve" smooth="yes"/>
      <point x="528" y="58" type="line"/>
      <point x="491" y="31" type="line" smooth="yes"/>
      <point x="474" y="18"/>
      <point x="470" y="-7"/>
      <point x="483" y="-25" type="curve" smooth="yes"/>
      <point x="496" y="-42"/>
      <point x="521" y="-46"/>
      <point x="539" y="-33" type="curve" smooth="yes"/>
      <point x="613" y="22" type="line"/>
      <point x="617" y="9"/>
      <point x="629" y="-1"/>
      <point x="646" y="-4" type="curve" smooth="yes"/>
      <point x="844" y="-40" type="line" smooth="yes"/>
      <point x="865" y="-44"/>
      <point x="886" y="-29"/>
    </contour>
  </outline>
</glyph>
<glyph name="ampersand" format="1">
  <advance width="962"/>
  <unicode hex="0026"/>
  <outline>
    <contour>
      <point x="335" y="571" type="line" smooth="yes"/>
      <point x="336" y="572"/>
      <point x="337" y="574"/>
      <point x="338" y="575" type="curve" smooth="yes"/>
      <point x="434" y="706" type="line"/>
      <point x="604" y="750" type="line"/>
      <point x="708" y="683" type="line"/>
      <point x="697" y="625" type="line"/>
      <point x="532" y="492" type="line" smooth="yes"/>
      <point x="525" y="486"/>
      <point x="520" y="479"/>
      <point x="518" y="471" type="curve"/>
      <point x="288" y="523" type="line"/>
    </contour>
    <contour>
      <point x="365" y="163" type="line" smooth="yes"/>
      <point x="397" y="178"/>
      <point x="399" y="217"/>
      <point x="367" y="234" type="curve" smooth="yes"/>
      <point x="197" y="329" type="line"/>
      <point x="288" y="354" type="line"/>
      <point x="460" y="357" type="line"/>
      <point x="604" y="322" type="line"/>
      <point x="603" y="321" type="line"/>
      <point x="528" y="306" type="line" smooth="yes"/>
      <point x="523" y="305"/>
      <point x="517" y="303"/>
      <point x="513" y="299" type="curve"/>
      <point x="433" y="280" type="line" smooth="yes"/>
      <point x="401" y="272"/>
      <point x="391" y="240"/>
      <point x="411" y="215" type="curve" smooth="yes"/>
      <point x="422" y="203" type="line"/>
      <point x="381" y="166" type="line"/>
      <point x="308" y="121" type="line"/>
      <point x="286" y="127" type="line"/>
    </contour>
    <contour>
      <point x="671" y="40" type="curve" smooth="yes"/>
      <point x="491" y="75" type="line"/>
      <point x="416" y="94" type="line"/>
      <point x="426" y="100" type="line" smooth="yes"/>
      <point x="428" y="101"/>
      <point x="431" y="103"/>
      <point x="432" y="104" type="curve" smooth="yes"/>
      <point x="473" y="142" type="line"/>
      <point x="478" y="135" type="line" smooth="yes"/>
      <point x="483" y="130"/>
      <point x="493" y="124"/>
      <point x="500" y="122" type="curve" smooth="yes"/>
      <point x="757" y="60" type="line"/>
      <point x="723" y="31" type="line" smooth="yes"/>
      <point x="707" y="17"/>
      <point x="705" y="-8"/>
      <point x="719" y="-25" type="curve" smooth="yes"/>
      <point x="733" y="-41"/>
      <point x="758" y="-43"/>
      <point x="775" y="-29" type="curve" smooth="yes"/>
      <point x="869" y="51" type="line" smooth="yes"/>
      <point x="896" y="74"/>
      <point x="887" y="112"/>
      <point x="852" y="120" type="curve" smooth="yes"/>
      <point x="531" y="197" type="line"/>
      <point x="530" y="199" type="line"/>
      <point x="554" y="227" type="line"/>
      <point x="620" y="243" type="line"/>
      <point x="878" y="294" type="line" smooth="yes"/>
      <point x="922" y="303"/>
      <point x="924" y="360"/>
      <point x="881" y="372" type="curve" smooth="yes"/>
      <point x="674" y="431" type="line"/>
      <point x="669" y="435"/>
      <point x="663" y="439"/>
      <point x="657" y="440" type="curve" smooth="yes"/>
      <point x="627" y="447" type="line"/>
      <point x="616" y="457" type="line"/>
      <point x="758" y="572" type="line" smooth="yes"/>
      <point x="764" y="577"/>
      <point x="771" y="587"/>
      <point x="772" y="595" type="curve" smooth="yes"/>
      <point x="792" y="694" type="line" smooth="yes"/>
      <point x="795" y="709"/>
      <point x="787" y="728"/>
      <point x="775" y="736" type="curve" smooth="yes"/>
      <point x="645" y="819" type="line"/>
      <point x="641" y="823"/>
      <point x="636" y="826"/>
      <point x="631" y="829" type="curve" smooth="yes"/>
      <point x="616" y="837" type="line" smooth="yes"/>
      <point x="594" y="848"/>
      <point x="573" y="838"/>
      <point x="564" y="822" type="curve"/>
      <point x="400" y="780" type="line" smooth="yes"/>
      <point x="392" y="778"/>
      <point x="382" y="771"/>
      <point x="378" y="765" type="curve" smooth="yes"/>
      <point x="275" y="625" type="line"/>
      <point x="180" y="528" type="line" smooth="yes"/>
      <point x="157" y="504"/>
      <point x="167" y="468"/>
      <point x="200" y="461" type="curve" smooth="yes"/>
      <point x="318" y="434" type="line"/>
      <point x="282" y="434" type="line" smooth="yes"/>
      <point x="279" y="433"/>
      <point x="275" y="433"/>
      <point x="272" y="432" type="curve" smooth="yes"/>
      <point x="81" y="380" type="line" smooth="yes"/>
      <point x="44" y="369"/>
      <point x="39" y="325"/>
      <point x="73" y="306" type="curve" smooth="yes"/>
      <point x="260" y="202" type="line"/>
      <point x="150" y="152" type="line" smooth="yes"/>
      <point x="113" y="135"/>
      <point x="117" y="87"/>
      <point x="157" y="77" type="curve" smooth="yes"/>
      <point x="257" y="51" type="line"/>
      <point x="262" y="40"/>
      <point x="273" y="31"/>
      <point x="289" y="28" type="curve" smooth="yes"/>
      <point x="656" y="-38" type="line" smooth="yes"/>
      <point x="708" y="-48"/>
      <point x="722" y="30"/>
    </contour>
  </outline>
</glyph>
<glyph name="asterisk" format="1">
  <advance width="831"/>
  <unicode hex="002A"/>
  <outline>
    <contour>
      <point x="780" y="294" type="curve" smooth="yes"/>
      <point x="784" y="315"/>
      <point x="770" y="337"/>
      <point x="749" y="341" type="curve" smooth="yes"/>
      <point x="420" y="407" type="line"/>
      <point x="385" y="424" type="line"/>
      <point x="413" y="462" type="line"/>
      <point x="721" y="462" type="line" smooth="yes"/>
      <point x="743" y="462"/>
      <point x="761" y="480"/>
      <point x="761" y="502" type="curve" smooth="yes"/>
      <point x="761" y="524"/>
      <point x="743" y="542"/>
      <point x="721" y="542" type="curve" smooth="yes"/>
      <point x="393" y="542" type="line" smooth="yes"/>
      <point x="382" y="542"/>
      <point x="367" y="535"/>
      <point x="361" y="526" type="curve" smooth="yes"/>
      <point x="354" y="517" type="line"/>
      <point x="336" y="578" type="line"/>
      <point x="554" y="665" type="line" smooth="yes"/>
      <point x="574" y="673"/>
      <point x="584" y="697"/>
      <point x="576" y="717" type="curve" smooth="yes"/>
      <point x="568" y="737"/>
      <point x="544" y="747"/>
      <point x="524" y="739" type="curve" smooth="yes"/>
      <point x="272" y="639" type="line" smooth="yes"/>
      <point x="253" y="632"/>
      <point x="243" y="610"/>
      <point x="249" y="591" type="curve" smooth="yes"/>
      <point x="263" y="542" type="line"/>
      <point x="90" y="542" type="line" smooth="yes"/>
      <point x="68" y="542"/>
      <point x="50" y="524"/>
      <point x="50" y="502" type="curve" smooth="yes"/>
      <point x="50" y="480"/>
      <point x="68" y="462"/>
      <point x="90" y="462" type="curve" smooth="yes"/>
      <point x="213" y="462" type="line"/>
      <point x="240" y="415" type="line" smooth="yes"/>
      <point x="244" y="410"/>
      <point x="251" y="403"/>
      <point x="257" y="400" type="curve" smooth="yes"/>
      <point x="282" y="387" type="line"/>
      <point x="284" y="383"/>
      <point x="285" y="380"/>
      <point x="288" y="377" type="curve" smooth="yes"/>
      <point x="368" y="277" type="line" smooth="yes"/>
      <point x="381" y="260"/>
      <point x="407" y="257"/>
      <point x="424" y="271" type="curve" smooth="yes"/>
      <point x="439" y="283"/>
      <point x="443" y="306"/>
      <point x="433" y="323" type="curve"/>
      <point x="733" y="263" type="line" smooth="yes"/>
      <point x="754" y="259"/>
      <point x="776" y="273"/>
    </contour>
    <contour>
      <point x="311" y="462" type="line"/>
      <point x="314" y="462" type="line"/>
      <point x="313" y="461" type="line"/>
    </contour>
  </outline>
</glyph>
<glyph name="plus" format="1">
  <advance width="662"/>
  <unicode hex="002B"/>
  <outline>
    <contour>
      <point x="247" y="92" type="curve" smooth="yes"/>
      <point x="362" y="192" type="line" smooth="yes"/>
      <point x="374" y="202"/>
      <point x="379" y="221"/>
      <point x="374" y="235" type="curve" smooth="yes"/>
      <point x="357" y="282" type="line"/>
      <point x="612" y="282" type="line"/>
      <point x="612" y="362" type="line"/>
      <point x="453" y="362" type="line"/>
      <point x="498" y="387" type="line" smooth="yes"/>
      <point x="516" y="398"/>
      <point x="523" y="421"/>
      <point x="514" y="440" type="curve" smooth="yes"/>
      <point x="464" y="540" type="line" smooth="yes"/>
      <point x="454" y="559"/>
      <point x="429" y="567"/>
      <point x="410" y="558" type="curve" smooth="yes"/>
      <point x="391" y="548"/>
      <point x="383" y="523"/>
      <point x="392" y="504" type="curve" smooth="yes"/>
      <point x="425" y="438" type="line"/>
      <point x="290" y="362" type="line"/>
      <point x="90" y="362" type="line" smooth="yes"/>
      <point x="68" y="362"/>
      <point x="50" y="344"/>
      <point x="50" y="322" type="curve" smooth="yes"/>
      <point x="50" y="300"/>
      <point x="68" y="282"/>
      <point x="90" y="282" type="curve" smooth="yes"/>
      <point x="273" y="282" type="line"/>
      <point x="289" y="234" type="line"/>
      <point x="195" y="152" type="line" smooth="yes"/>
      <point x="178" y="138"/>
      <point x="177" y="112"/>
      <point x="191" y="96" type="curve" smooth="yes"/>
      <point x="205" y="79"/>
      <point x="231" y="78"/>
    </contour>
  </outline>
</glyph>
<glyph name="comma" format="1">
  <advance width="503"/>
  <unicode hex="002C"/>
  <outline>
    <contour>
      <point x="90" y="-98" type="curve" smooth="yes"/>
      <point x="127" y="-98" type="line" smooth="yes"/>
      <point x="131" y="-98"/>
      <point x="138" y="-97"/>
      <point x="142" y="-95" type="curve" smooth="yes"/>
      <point x="399" y="5" type="line" smooth="yes"/>
      <point x="409" y="9"/>
      <point x="419" y="20"/>
      <point x="422" y="31" type="curve" smooth="yes"/>
      <point x="451" y="131" type="line" smooth="yes"/>
      <point x="457" y="152"/>
      <point x="445" y="174"/>
      <point x="424" y="180" type="curve" smooth="yes"/>
      <point x="403" y="186"/>
      <point x="381" y="174"/>
      <point x="375" y="153" type="curve" smooth="yes"/>
      <point x="351" y="72" type="line"/>
      <point x="119" y="-18" type="line"/>
      <point x="90" y="-18" type="line" smooth="yes"/>
      <point x="68" y="-18"/>
      <point x="50" y="-36"/>
      <point x="50" y="-58" type="curve" smooth="yes"/>
      <point x="50" y="-80"/>
      <point x="68" y="-98"/>
    </contour>
  </outline>
</glyph>
<glyph name="hyphen" format="1">
  <advance width="304"/>
  <unicode hex="002D"/>
  <outline>
    <contour>
      <point x="90" y="256" type="curve" smooth="yes"/>
      <point x="254" y="256" type="line"/>
      <point x="254" y="336" type="line"/>
      <point x="90" y="336" type="line" smooth="yes"/>
      <point x="68" y="336"/>
      <point x="50" y="318"/>
      <point x="50" y="296" type="curve" smooth="yes"/>
      <point x="50" y="274"/>
      <point x="68" y="256"/>
    </contour>
  </outline>
</glyph>
<glyph name="period" format="1">
  <advance width="297"/>
  <unicode hex="002E"/>
  <outline>
    <contour>
      <point x="247" y="13" type="curve" smooth="yes"/>
      <point x="245" y="35"/>
      <point x="225" y="52"/>
      <point x="204" y="50" type="curve" smooth="yes"/>
      <point x="87" y="40" type="line" smooth="yes"/>
      <point x="65" y="38"/>
      <point x="48" y="18"/>
      <point x="50" y="-3" type="curve" smooth="yes"/>
      <point x="52" y="-25"/>
      <point x="72" y="-42"/>
      <point x="93" y="-40" type="curve" smooth="yes"/>
      <point x="210" y="-30" type="line" smooth="yes"/>
      <point x="232" y="-28"/>
      <point x="249" y="-8"/>
    </contour>
  </outline>
</glyph>
<glyph name="slash" format="1">
  <advance width="918"/>
  <unicode hex="002F"/>
  <outline>
    <contour>
      <point x="156" y="-33" type="curve" smooth="yes"/>
      <point x="175" y="-22"/>
      <point x="181" y="3"/>
      <point x="171" y="22" type="curve" smooth="yes"/>
      <point x="138" y="78" type="line"/>
      <point x="178" y="127" type="line"/>
      <point x="431" y="204" type="line" smooth="yes"/>
      <point x="457" y="212"/>
      <point x="467" y="239"/>
      <point x="453" y="262" type="curve" smooth="yes"/>
      <point x="406" y="342" type="line" smooth="yes"/>
      <point x="404" y="347"/>
      <point x="397" y="354"/>
      <point x="392" y="357" type="curve" smooth="yes"/>
      <point x="316" y="401" type="line"/>
      <point x="402" y="447" type="line" smooth="yes"/>
      <point x="418" y="455"/>
      <point x="426" y="476"/>
      <point x="421" y="493" type="curve" smooth="yes"/>
      <point x="409" y="533" type="line"/>
      <point x="685" y="603" type="line" smooth="yes"/>
      <point x="687" y="604"/>
      <point x="691" y="605"/>
      <point x="693" y="607" type="curve" smooth="yes"/>
      <point x="847" y="687" type="line" smooth="yes"/>
      <point x="865" y="696"/>
      <point x="874" y="719"/>
      <point x="866" y="737" type="curve" smooth="yes"/>
      <point x="833" y="817" type="line" smooth="yes"/>
      <point x="825" y="837"/>
      <point x="801" y="847"/>
      <point x="781" y="839" type="curve" smooth="yes"/>
      <point x="761" y="831"/>
      <point x="751" y="807"/>
      <point x="759" y="787" type="curve" smooth="yes"/>
      <point x="778" y="741" type="line"/>
      <point x="661" y="680" type="line"/>
      <point x="349" y="601" type="line" smooth="yes"/>
      <point x="327" y="595"/>
      <point x="314" y="573"/>
      <point x="321" y="551" type="curve" smooth="yes"/>
      <point x="335" y="502" type="line"/>
      <point x="215" y="437" type="line" smooth="yes"/>
      <point x="185" y="421"/>
      <point x="185" y="384"/>
      <point x="214" y="367" type="curve" smooth="yes"/>
      <point x="343" y="293" type="line"/>
      <point x="359" y="266" type="line"/>
      <point x="143" y="200" type="line" smooth="yes"/>
      <point x="137" y="198"/>
      <point x="128" y="192"/>
      <point x="124" y="187" type="curve" smooth="yes"/>
      <point x="59" y="107" type="line" smooth="yes"/>
      <point x="49" y="95"/>
      <point x="48" y="75"/>
      <point x="55" y="62" type="curve" smooth="yes"/>
      <point x="101" y="-18" type="line" smooth="yes"/>
      <point x="112" y="-37"/>
      <point x="137" y="-43"/>
    </contour>
  </outline>
</glyph>
<glyph name="zero" format="1">
  <advance width="1212"/>
  <unicode hex="0030"/>
  <outline>
    <contour>
      <point x="644" y="-38" type="curve" smooth="yes"/>
      <point x="696" y="-38" type="line" smooth="yes"/>
      <point x="705" y="-38"/>
      <point x="713" y="-35"/>
      <point x="720" y="-30" type="curve"/>
      <point x="974" y="-2" type="line" smooth="yes"/>
      <point x="1016" y="3"/>
      <point x="1026" y="52"/>
      <point x="989" y="73" type="curve" smooth="yes"/>
      <point x="921" y="111" type="line"/>
      <point x="1069" y="164" type="line" smooth="yes"/>
      <point x="1106" y="178"/>
      <point x="1107" y="223"/>
      <point x="1071" y="239" type="curve" smooth="yes"/>
      <point x="929" y="299" type="line"/>
      <point x="1117" y="364" type="line" smooth="yes"/>
      <point x="1155" y="377"/>
      <point x="1156" y="423"/>
      <point x="1120" y="439" type="curve" smooth="yes"/>
      <point x="896" y="533" type="line"/>
      <point x="875" y="572" type="line"/>
      <point x="1127" y="614" type="line" smooth="yes"/>
      <point x="1170" y="622"/>
      <point x="1176" y="675"/>
      <point x="1135" y="691" type="curve" smooth="yes"/>
      <point x="892" y="787" type="line"/>
      <point x="747" y="840" type="line" smooth="yes"/>
      <point x="743" y="841"/>
      <point x="737" y="842"/>
      <point x="733" y="842" type="curve" smooth="yes"/>
      <point x="653" y="842" type="line" smooth="yes"/>
      <point x="646" y="842"/>
      <point x="635" y="839"/>
      <point x="629" y="834" type="curve" smooth="yes"/>
      <point x="581" y="799" type="line"/>
      <point x="445" y="720" type="line" smooth="yes"/>
      <point x="444" y="719"/>
      <point x="441" y="717"/>
      <point x="440" y="716" type="curve" smooth="yes"/>
      <point x="342" y="637" type="line"/>
      <point x="78" y="540" type="line" smooth="yes"/>
      <point x="47" y="528"/>
      <point x="41" y="494"/>
      <point x="65" y="472" type="curve" smooth="yes"/>
      <point x="174" y="376" type="line"/>
      <point x="234" y="281" type="line" smooth="yes"/>
      <point x="236" y="277"/>
      <point x="241" y="272"/>
      <point x="245" y="269" type="curve" smooth="yes"/>
      <point x="284" y="242" type="line"/>
      <point x="257" y="228"/>
      <point x="255" y="191"/>
      <point x="279" y="175" type="curve"/>
      <point x="242" y="153" type="line" smooth="yes"/>
      <point x="221" y="142"/>
      <point x="215" y="116"/>
      <point x="228" y="97" type="curve" smooth="yes"/>
      <point x="280" y="16" type="line" smooth="yes"/>
      <point x="286" y="8"/>
      <point x="298" y="0"/>
      <point x="308" y="-1" type="curve" smooth="yes"/>
      <point x="537" y="-38" type="line" smooth="yes"/>
      <point x="558" y="-41"/>
      <point x="579" y="-26"/>
      <point x="583" y="-4" type="curve" smooth="yes"/>
      <point x="586" y="17"/>
      <point x="571" y="38"/>
      <point x="549" y="42" type="curve" smooth="yes"/>
      <point x="502" y="49" type="line"/>
      <point x="622" y="94" type="line" smooth="yes"/>
      <point x="662" y="109"/>
      <point x="659" y="160"/>
      <point x="618" y="170" type="curve" smooth="yes"/>
      <point x="491" y="202" type="line"/>
      <point x="706" y="243" type="line" smooth="yes"/>
      <point x="747" y="251"/>
      <point x="753" y="300"/>
      <point x="716" y="318" type="curve" smooth="yes"/>
      <point x="630" y="360" type="line"/>
      <point x="697" y="398" type="line" smooth="yes"/>
      <point x="730" y="416"/>
      <point x="726" y="459"/>
      <point x="690" y="471" type="curve" smooth="yes"/>
      <point x="602" y="500" type="line"/>
      <point x="799" y="544" type="line"/>
      <point x="833" y="483" type="line" smooth="yes"/>
      <point x="837" y="476"/>
      <point x="845" y="468"/>
      <point x="852" y="465" type="curve" smooth="yes"/>
      <point x="993" y="406" type="line"/>
      <point x="805" y="340" type="line" smooth="yes"/>
      <point x="767" y="327"/>
      <point x="766" y="281"/>
      <point x="802" y="265" type="curve" smooth="yes"/>
      <point x="946" y="205" type="line"/>
      <point x="812" y="156" type="line" smooth="yes"/>
      <point x="777" y="143"/>
      <point x="774" y="102"/>
      <point x="806" y="84" type="curve" smooth="yes"/>
      <point x="841" y="64" type="line"/>
      <point x="640" y="42" type="line" smooth="yes"/>
      <point x="589" y="36"/>
      <point x="593" y="-38"/>
    </contour>
    <contour>
      <point x="239" y="423" type="line" smooth="yes"/>
      <point x="237" y="426"/>
      <point x="234" y="430"/>
      <point x="232" y="432" type="curve" smooth="yes"/>
      <point x="169" y="488" type="line"/>
      <point x="376" y="564" type="line" smooth="yes"/>
      <point x="379" y="566"/>
      <point x="384" y="569"/>
      <point x="387" y="571" type="curve" smooth="yes"/>
      <point x="488" y="652" type="line"/>
      <point x="624" y="731" type="line" smooth="yes"/>
      <point x="625" y="732"/>
      <point x="626" y="733"/>
      <point x="627" y="733" type="curve" smooth="yes"/>
      <point x="666" y="762" type="line"/>
      <point x="726" y="762" type="line"/>
      <point x="786" y="741" type="line"/>
      <point x="783" y="726"/>
      <point x="790" y="710"/>
      <point x="803" y="701" type="curve" smooth="yes"/>
      <point x="859" y="663" type="line"/>
      <point x="822" y="644" type="line"/>
      <point x="806" y="641" type="line" smooth="yes"/>
      <point x="792" y="639"/>
      <point x="782" y="631"/>
      <point x="777" y="621" type="curve"/>
      <point x="444" y="547" type="line" smooth="yes"/>
      <point x="401" y="538"/>
      <point x="399" y="484"/>
      <point x="440" y="470" type="curve" smooth="yes"/>
      <point x="580" y="423" type="line"/>
      <point x="525" y="392" type="line" smooth="yes"/>
      <point x="494" y="375"/>
      <point x="495" y="337"/>
      <point x="527" y="321" type="curve" smooth="yes"/>
      <point x="573" y="299" type="line"/>
      <point x="391" y="264" type="line"/>
      <point x="298" y="330" type="line"/>
    </contour>
    <contour>
      <point x="393" y="93" type="line" smooth="yes"/>
      <point x="382" y="89"/>
      <point x="374" y="80"/>
      <point x="370" y="70" type="curve"/>
      <point x="338" y="75" type="line"/>
      <point x="318" y="105" type="line"/>
      <point x="389" y="145" type="line"/>
      <point x="473" y="124" type="line"/>
    </contour>
  </outline>
</glyph>
<glyph name="one" format="1">
  <advance width="1082"/>
  <unicode hex="0031"/>
  <outline>
    <contour>
      <point x="365" y="-39" type="line"/>
      <point x="992" y="-39" type="line" smooth="yes"/>
      <point x="1014" y="-39"/>
      <point x="1032" y="-21"/>
      <point x="1032" y="1" type="curve" smooth="yes"/>
      <point x="1032" y="23"/>
      <point x="1014" y="41"/>
      <point x="992" y="41" type="curve" smooth="yes"/>
      <point x="401" y="41" type="line"/>
      <point x="397" y="43" type="line" smooth="yes"/>
      <point x="378" y="54" type="line"/>
      <point x="662" y="164" type="line" smooth="yes"/>
      <point x="694" y="176"/>
      <point x="698" y="213"/>
      <point x="670" y="233" type="curve" smooth="yes"/>
      <point x="566" y="309" type="line"/>
      <point x="619" y="376" type="line" smooth="yes"/>
      <point x="636" y="397"/>
      <point x="630" y="425"/>
      <point x="606" y="437" type="curve" smooth="yes"/>
      <point x="501" y="490" type="line"/>
      <point x="768" y="562" type="line" smooth="yes"/>
      <point x="807" y="573"/>
      <point x="812" y="618"/>
      <point x="776" y="637" type="curve" smooth="yes"/>
      <point x="645" y="705" type="line"/>
      <point x="742" y="767" type="line" smooth="yes"/>
      <point x="783" y="794"/>
      <point x="753" y="855"/>
      <point x="707" y="839" type="curve" smooth="yes"/>
      <point x="304" y="697" type="line" smooth="yes"/>
      <point x="278" y="688"/>
      <point x="269" y="663"/>
      <point x="278" y="644" type="curve"/>
      <point x="122" y="641" type="line" smooth="yes"/>
      <point x="69" y="640"/>
      <point x="70" y="561"/>
      <point x="123" y="561" type="curve" smooth="yes"/>
      <point x="131" y="561" type="line" smooth="yes"/>
      <point x="135" y="561" type="line"/>
      <point x="462" y="568" type="line" smooth="yes"/>
      <point x="509" y="569"/>
      <point x="519" y="630"/>
      <point x="475" y="646" type="curve" smooth="yes"/>
      <point x="437" y="659" type="line"/>
      <point x="525" y="690" type="line"/>
      <point x="528" y="680"/>
      <point x="535" y="671"/>
      <point x="547" y="665" type="curve" smooth="yes"/>
      <point x="648" y="613" type="line"/>
      <point x="380" y="540" type="line" smooth="yes"/>
      <point x="341" y="529"/>
      <point x="336" y="483"/>
      <point x="372" y="465" type="curve" smooth="yes"/>
      <point x="526" y="388" type="line"/>
      <point x="477" y="326" type="line" smooth="yes"/>
      <point x="462" y="308"/>
      <point x="466" y="282"/>
      <point x="485" y="269" type="curve" smooth="yes"/>
      <point x="564" y="212" type="line"/>
      <point x="268" y="97" type="line" smooth="yes"/>
      <point x="244" y="87"/>
      <point x="235" y="64"/>
      <point x="244" y="45" type="curve"/>
      <point x="89" y="41" type="line" smooth="yes"/>
      <point x="67" y="40"/>
      <point x="49" y="22"/>
      <point x="50" y="0" type="curve" smooth="yes"/>
      <point x="51" y="-22"/>
      <point x="69" y="-40"/>
      <point x="91" y="-39" type="curve" smooth="yes"/>
      <point x="365" y="-32" type="line"/>
    </contour>
  </outline>
</glyph>
<glyph name="two" format="1">
  <advance width="1068"/>
  <unicode hex="0032"/>
  <outline>
    <contour>
      <point x="92" y="-40" type="curve" smooth="yes"/>
      <point x="662" y="-40" type="line"/>
      <point x="662" y="40" type="line"/>
      <point x="346" y="40" type="line"/>
      <point x="414" y="62" type="line" smooth="yes"/>
      <point x="453" y="74"/>
      <point x="455" y="121"/>
      <point x="417" y="137" type="curve" smooth="yes"/>
      <point x="258" y="203" type="line"/>
      <point x="464" y="306" type="line" smooth="yes"/>
      <point x="473" y="311"/>
      <point x="483" y="323"/>
      <point x="485" y="333" type="curve" smooth="yes"/>
      <point x="491" y="360" type="line"/>
      <point x="824" y="360" type="line" smooth="yes"/>
      <point x="826" y="360"/>
      <point x="829" y="360"/>
      <point x="831" y="361" type="curve" smooth="yes"/>
      <point x="869" y="368" type="line" smooth="yes"/>
      <point x="872" y="368"/>
      <point x="876" y="370"/>
      <point x="878" y="371" type="curve" smooth="yes"/>
      <point x="988" y="422" type="line" smooth="yes"/>
      <point x="1000" y="428"/>
      <point x="1010" y="443"/>
      <point x="1011" y="456" type="curve" smooth="yes"/>
      <point x="1018" y="598" type="line" smooth="yes"/>
      <point x="1019" y="617"/>
      <point x="1004" y="636"/>
      <point x="985" y="639" type="curve" smooth="yes"/>
      <point x="717" y="689" type="line"/>
      <point x="675" y="726" type="line"/>
      <point x="832" y="761" type="line" smooth="yes"/>
      <point x="880" y="772"/>
      <point x="872" y="840"/>
      <point x="823" y="840" type="curve" smooth="yes"/>
      <point x="385" y="840" type="line"/>
      <point x="290" y="833" type="line" smooth="yes"/>
      <point x="285" y="833"/>
      <point x="279" y="831"/>
      <point x="275" y="829" type="curve" smooth="yes"/>
      <point x="170" y="778" type="line" smooth="yes"/>
      <point x="148" y="767"/>
      <point x="140" y="741"/>
      <point x="153" y="721" type="curve" smooth="yes"/>
      <point x="240" y="579" type="line" smooth="yes"/>
      <point x="251" y="561"/>
      <point x="277" y="555"/>
      <point x="295" y="566" type="curve" smooth="yes"/>
      <point x="313" y="577"/>
      <point x="319" y="603"/>
      <point x="308" y="621" type="curve" smooth="yes"/>
      <point x="244" y="725" type="line"/>
      <point x="303" y="754" type="line"/>
      <point x="385" y="760" type="line"/>
      <point x="549" y="760" type="line"/>
      <point x="545" y="746"/>
      <point x="549" y="730"/>
      <point x="563" y="718" type="curve" smooth="yes"/>
      <point x="673" y="622" type="line" smooth="yes"/>
      <point x="677" y="618"/>
      <point x="686" y="614"/>
      <point x="692" y="613" type="curve" smooth="yes"/>
      <point x="936" y="567" type="line"/>
      <point x="932" y="484" type="line"/>
      <point x="849" y="445" type="line"/>
      <point x="820" y="440" type="line"/>
      <point x="336" y="440" type="line"/>
      <point x="336" y="360" type="line"/>
      <point x="393" y="360" type="line"/>
      <point x="144" y="236" type="line" smooth="yes"/>
      <point x="111" y="219"/>
      <point x="112" y="177"/>
      <point x="147" y="163" type="curve" smooth="yes"/>
      <point x="287" y="105" type="line"/>
      <point x="80" y="38" type="line" smooth="yes"/>
      <point x="34" y="23"/>
      <point x="44" y="-40"/>
    </contour>
  </outline>
</glyph>
<glyph name="three" format="1">
  <advance width="1211"/>
  <unicode hex="0033"/>
  <outline>
    <contour>
      <point x="693" y="-39" type="curve" smooth="yes"/>
      <point x="807" y="-39" type="line"/>
      <point x="902" y="-32" type="line" smooth="yes"/>
      <point x="909" y="-31"/>
      <point x="918" y="-28"/>
      <point x="923" y="-25" type="curve" smooth="yes"/>
      <point x="994" y="27" type="line" smooth="yes"/>
      <point x="1008" y="37"/>
      <point x="1014" y="58"/>
      <point x="1008" y="73" type="curve" smooth="yes"/>
      <point x="960" y="203" type="line"/>
      <point x="979" y="271" type="line"/>
      <point x="1014" y="348" type="line" smooth="yes"/>
      <point x="1018" y="357"/>
      <point x="1019" y="365"/>
      <point x="1018" y="372" type="curve"/>
      <point x="1098" y="399" type="line" smooth="yes"/>
      <point x="1131" y="411"/>
      <point x="1137" y="448"/>
      <point x="1108" y="469" type="curve" smooth="yes"/>
      <point x="999" y="550" type="line" smooth="yes"/>
      <point x="998" y="551"/>
      <point x="995" y="552"/>
      <point x="994" y="553" type="curve" smooth="yes"/>
      <point x="910" y="599" type="line"/>
      <point x="1136" y="707" type="line" smooth="yes"/>
      <point x="1169" y="722"/>
      <point x="1169" y="762"/>
      <point x="1137" y="778" type="curve" smooth="yes"/>
      <point x="1033" y="830" type="line" smooth="yes"/>
      <point x="1029" y="832"/>
      <point x="1021" y="834"/>
      <point x="1016" y="834" type="curve" smooth="yes"/>
      <point x="660" y="839" type="line"/>
      <point x="655" y="840"/>
      <point x="650" y="841"/>
      <point x="645" y="841" type="curve" smooth="yes"/>
      <point x="491" y="841" type="line" smooth="yes"/>
      <point x="453" y="841"/>
      <point x="442" y="801"/>
      <point x="458" y="778" type="curve"/>
      <point x="215" y="723" type="line" smooth="yes"/>
      <point x="190" y="718"/>
      <point x="177" y="693"/>
      <point x="187" y="669" type="curve" smooth="yes"/>
      <point x="221" y="586" type="line" smooth="yes"/>
      <point x="229" y="566"/>
      <point x="253" y="556"/>
      <point x="273" y="564" type="curve" smooth="yes"/>
      <point x="293" y="572"/>
      <point x="303" y="596"/>
      <point x="295" y="616" type="curve" smooth="yes"/>
      <point x="279" y="656" type="line"/>
      <point x="594" y="726" type="line" smooth="yes"/>
      <point x="598" y="727"/>
      <point x="603" y="729"/>
      <point x="606" y="731" type="curve" smooth="yes"/>
      <point x="653" y="759" type="line"/>
      <point x="1006" y="754" type="line"/>
      <point x="1028" y="743" type="line"/>
      <point x="805" y="637" type="line" smooth="yes"/>
      <point x="773" y="622"/>
      <point x="772" y="583"/>
      <point x="803" y="566" type="curve" smooth="yes"/>
      <point x="954" y="484" type="line"/>
      <point x="999" y="450" type="line"/>
      <point x="972" y="441" type="line"/>
      <point x="713" y="441" type="line"/>
      <point x="713" y="361" type="line"/>
      <point x="766" y="361" type="line"/>
      <point x="920" y="334" type="line"/>
      <point x="905" y="301" type="line" smooth="yes"/>
      <point x="904" y="299"/>
      <point x="903" y="297"/>
      <point x="902" y="295" type="curve" smooth="yes"/>
      <point x="879" y="212" type="line" smooth="yes"/>
      <point x="878" y="205"/>
      <point x="878" y="194"/>
      <point x="881" y="187" type="curve" smooth="yes"/>
      <point x="923" y="74" type="line"/>
      <point x="885" y="47" type="line"/>
      <point x="801" y="41" type="line"/>
      <point x="701" y="41" type="line"/>
      <point x="622" y="74" type="line"/>
      <point x="419" y="155" type="line" smooth="yes"/>
      <point x="418" y="155"/>
      <point x="416" y="156"/>
      <point x="414" y="156" type="curve" smooth="yes"/>
      <point x="100" y="240" type="line" smooth="yes"/>
      <point x="79" y="245"/>
      <point x="57" y="232"/>
      <point x="51" y="211" type="curve" smooth="yes"/>
      <point x="46" y="190"/>
      <point x="59" y="168"/>
      <point x="80" y="162" type="curve" smooth="yes"/>
      <point x="391" y="80" type="line"/>
      <point x="591" y="0" type="line"/>
      <point x="678" y="-36" type="line" smooth="yes"/>
      <point x="682" y="-38"/>
      <point x="689" y="-39"/>
    </contour>
  </outline>
</glyph>
<glyph name="four" format="1">
  <advance width="1000"/>
  <unicode hex="0034"/>
  <outline>
    <contour>
      <point x="790" y="-21" type="curve" smooth="yes"/>
      <point x="802" y="-3"/>
      <point x="797" y="23"/>
      <point x="779" y="34" type="curve" smooth="yes"/>
      <point x="685" y="96" type="line"/>
      <point x="827" y="165" type="line" smooth="yes"/>
      <point x="835" y="169"/>
      <point x="844" y="179"/>
      <point x="847" y="188" type="curve" smooth="yes"/>
      <point x="878" y="283" type="line"/>
      <point x="943" y="378" type="line" smooth="yes"/>
      <point x="948" y="385"/>
      <point x="951" y="398"/>
      <point x="950" y="406" type="curve" smooth="yes"/>
      <point x="935" y="506" type="line" smooth="yes"/>
      <point x="933" y="519"/>
      <point x="921" y="533"/>
      <point x="909" y="538" type="curve" smooth="yes"/>
      <point x="643" y="637" type="line" smooth="yes"/>
      <point x="623" y="645"/>
      <point x="599" y="634"/>
      <point x="592" y="614" type="curve" smooth="yes"/>
      <point x="584" y="594"/>
      <point x="595" y="570"/>
      <point x="615" y="563" type="curve" smooth="yes"/>
      <point x="859" y="471" type="line"/>
      <point x="868" y="410" type="line"/>
      <point x="809" y="323" type="line" smooth="yes"/>
      <point x="807" y="320"/>
      <point x="805" y="316"/>
      <point x="804" y="313" type="curve" smooth="yes"/>
      <point x="776" y="229" type="line"/>
      <point x="586" y="137" type="line" smooth="yes"/>
      <point x="586" y="136" type="line"/>
      <point x="535" y="169" type="line"/>
      <point x="732" y="225" type="line" smooth="yes"/>
      <point x="777" y="238"/>
      <point x="771" y="300"/>
      <point x="724" y="304" type="curve" smooth="yes"/>
      <point x="318" y="340" type="line" smooth="yes"/>
      <point x="317" y="340"/>
      <point x="317" y="340"/>
      <point x="317" y="340" type="curve"/>
      <point x="246" y="381" type="line"/>
      <point x="345" y="431" type="line" smooth="yes"/>
      <point x="353" y="435"/>
      <point x="361" y="445"/>
      <point x="364" y="453" type="curve" smooth="yes"/>
      <point x="395" y="536" type="line" smooth="yes"/>
      <point x="404" y="558"/>
      <point x="392" y="581"/>
      <point x="370" y="588" type="curve" smooth="yes"/>
      <point x="136" y="661" type="line"/>
      <point x="141" y="685" type="line"/>
      <point x="408" y="762" type="line" smooth="yes"/>
      <point x="429" y="767"/>
      <point x="441" y="790"/>
      <point x="435" y="811" type="curve" smooth="yes"/>
      <point x="430" y="832"/>
      <point x="407" y="844"/>
      <point x="386" y="838" type="curve" smooth="yes"/>
      <point x="95" y="755" type="line" smooth="yes"/>
      <point x="82" y="751"/>
      <point x="69" y="738"/>
      <point x="67" y="724" type="curve" smooth="yes"/>
      <point x="51" y="641" type="line" smooth="yes"/>
      <point x="47" y="621"/>
      <point x="59" y="601"/>
      <point x="78" y="595" type="curve" smooth="yes"/>
      <point x="306" y="524" type="line"/>
      <point x="295" y="495" type="line"/>
      <point x="144" y="419" type="line" smooth="yes"/>
      <point x="113" y="403"/>
      <point x="112" y="366"/>
      <point x="142" y="349" type="curve" smooth="yes"/>
      <point x="286" y="265" type="line" smooth="yes"/>
      <point x="291" y="262"/>
      <point x="300" y="260"/>
      <point x="306" y="260" type="curve" smooth="yes"/>
      <point x="312" y="260" type="line"/>
      <point x="502" y="243" type="line"/>
      <point x="428" y="222" type="line" smooth="yes"/>
      <point x="392" y="212"/>
      <point x="386" y="170"/>
      <point x="417" y="150" type="curve" smooth="yes"/>
      <point x="546" y="66" type="line" smooth="yes"/>
      <point x="558" y="59"/>
      <point x="574" y="58"/>
      <point x="586" y="65" type="curve"/>
      <point x="735" y="-32" type="line" smooth="yes"/>
      <point x="753" y="-44"/>
      <point x="779" y="-39"/>
    </contour>
  </outline>
</glyph>
<glyph name="five" format="1">
  <advance width="1213"/>
  <unicode hex="0035"/>
  <outline>
    <contour>
      <point x="617" y="-32" type="curve" smooth="yes"/>
      <point x="1020" y="20" type="line" smooth="yes"/>
      <point x="1053" y="24"/>
      <point x="1067" y="57"/>
      <point x="1047" y="84" type="curve" smooth="yes"/>
      <point x="971" y="183" type="line"/>
      <point x="1135" y="247" type="line" smooth="yes"/>
      <point x="1174" y="263"/>
      <point x="1170" y="314"/>
      <point x="1129" y="323" type="curve" smooth="yes"/>
      <point x="786" y="399" type="line"/>
      <point x="782" y="412" type="line" smooth="yes"/>
      <point x="778" y="428"/>
      <point x="761" y="441"/>
      <point x="744" y="441" type="curve" smooth="yes"/>
      <point x="523" y="441" type="line"/>
      <point x="277" y="504" type="line"/>
      <point x="466" y="563" type="line" smooth="yes"/>
      <point x="508" y="576"/>
      <point x="506" y="630"/>
      <point x="463" y="640" type="curve" smooth="yes"/>
      <point x="241" y="691" type="line"/>
      <point x="352" y="727" type="line" smooth="yes"/>
      <point x="354" y="728"/>
      <point x="358" y="729"/>
      <point x="360" y="731" type="curve" smooth="yes"/>
      <point x="411" y="761" type="line"/>
      <point x="822" y="761" type="line"/>
      <point x="822" y="841" type="line"/>
      <point x="400" y="841" type="line" smooth="yes"/>
      <point x="394" y="841"/>
      <point x="385" y="838"/>
      <point x="380" y="835" type="curve" smooth="yes"/>
      <point x="323" y="802" type="line"/>
      <point x="80" y="722" type="line" smooth="yes"/>
      <point x="38" y="709"/>
      <point x="40" y="655"/>
      <point x="83" y="645" type="curve" smooth="yes"/>
      <point x="300" y="595" type="line"/>
      <point x="118" y="539" type="line" smooth="yes"/>
      <point x="77" y="526"/>
      <point x="78" y="473"/>
      <point x="120" y="462" type="curve" smooth="yes"/>
      <point x="428" y="383" type="line"/>
      <point x="428" y="361" type="line"/>
      <point x="714" y="361" type="line"/>
      <point x="716" y="354" type="line" smooth="yes"/>
      <point x="720" y="341"/>
      <point x="733" y="329"/>
      <point x="746" y="326" type="curve" smooth="yes"/>
      <point x="983" y="274" type="line"/>
      <point x="892" y="238" type="line" smooth="yes"/>
      <point x="866" y="228"/>
      <point x="858" y="199"/>
      <point x="875" y="177" type="curve" smooth="yes"/>
      <point x="941" y="90" type="line"/>
      <point x="621" y="49" type="line"/>
      <point x="588" y="70" type="line"/>
      <point x="481" y="150" type="line" smooth="yes"/>
      <point x="477" y="152"/>
      <point x="471" y="155"/>
      <point x="467" y="156" type="curve" smooth="yes"/>
      <point x="136" y="240" type="line" smooth="yes"/>
      <point x="115" y="245"/>
      <point x="92" y="232"/>
      <point x="87" y="211" type="curve" smooth="yes"/>
      <point x="82" y="190"/>
      <point x="95" y="167"/>
      <point x="116" y="162" type="curve" smooth="yes"/>
      <point x="439" y="81" type="line"/>
      <point x="542" y="5" type="line" smooth="yes"/>
      <point x="542" y="4"/>
      <point x="544" y="4"/>
      <point x="544" y="3" type="curve" smooth="yes"/>
      <point x="591" y="-26" type="line" smooth="yes"/>
      <point x="598" y="-30"/>
      <point x="610" y="-33"/>
    </contour>
  </outline>
</glyph>
<glyph name="six" format="1">
  <advance width="1014"/>
  <unicode hex="0036"/>
  <outline>
    <contour>
      <point x="747" y="-39" type="line" smooth="yes"/>
      <point x="771" y="-39"/>
      <point x="789" y="-19"/>
      <point x="787" y="4" type="curve" smooth="yes"/>
      <point x="786" y="11" type="line" smooth="yes"/>
      <point x="785" y="26"/>
      <point x="773" y="42"/>
      <point x="759" y="46" type="curve" smooth="yes"/>
      <point x="701" y="64" type="line"/>
      <point x="938" y="164" type="line" smooth="yes"/>
      <point x="968" y="177"/>
      <point x="973" y="212"/>
      <point x="947" y="232" type="curve" smooth="yes"/>
      <point x="843" y="316" type="line" smooth="yes"/>
      <point x="840" y="318"/>
      <point x="835" y="321"/>
      <point x="831" y="322" type="curve" smooth="yes"/>
      <point x="599" y="402" type="line"/>
      <point x="537" y="436" type="line" smooth="yes"/>
      <point x="532" y="439"/>
      <point x="524" y="441"/>
      <point x="518" y="441" type="curve" smooth="yes"/>
      <point x="477" y="441" type="line"/>
      <point x="425" y="447" type="line"/>
      <point x="451" y="473" type="line" smooth="yes"/>
      <point x="464" y="486"/>
      <point x="466" y="508"/>
      <point x="456" y="523" type="curve" smooth="yes"/>
      <point x="388" y="623" type="line" smooth="yes"/>
      <point x="384" y="630"/>
      <point x="375" y="637"/>
      <point x="368" y="639" type="curve" smooth="yes"/>
      <point x="264" y="674" type="line"/>
      <point x="539" y="726" type="line" smooth="yes"/>
      <point x="558" y="729"/>
      <point x="570" y="743"/>
      <point x="572" y="759" type="curve"/>
      <point x="752" y="754" type="line"/>
      <point x="856" y="716" type="line"/>
      <point x="841" y="606" type="line" smooth="yes"/>
      <point x="838" y="585"/>
      <point x="854" y="564"/>
      <point x="876" y="561" type="curve" smooth="yes"/>
      <point x="897" y="558"/>
      <point x="918" y="574"/>
      <point x="921" y="596" type="curve" smooth="yes"/>
      <point x="940" y="737" type="line" smooth="yes"/>
      <point x="942" y="755"/>
      <point x="930" y="774"/>
      <point x="914" y="780" type="curve" smooth="yes"/>
      <point x="773" y="832" type="line" smooth="yes"/>
      <point x="770" y="833"/>
      <point x="764" y="834"/>
      <point x="760" y="834" type="curve" smooth="yes"/>
      <point x="501" y="841" type="line" smooth="yes"/>
      <point x="470" y="842"/>
      <point x="453" y="817"/>
      <point x="460" y="792" type="curve"/>
      <point x="98" y="724" type="line" smooth="yes"/>
      <point x="54" y="716"/>
      <point x="50" y="660"/>
      <point x="92" y="646" type="curve" smooth="yes"/>
      <point x="169" y="621" type="line"/>
      <point x="96" y="545" type="line" smooth="yes"/>
      <point x="89" y="538"/>
      <point x="84" y="523"/>
      <point x="85" y="513" type="curve" smooth="yes"/>
      <point x="95" y="432" type="line" smooth="yes"/>
      <point x="97" y="415"/>
      <point x="113" y="399"/>
      <point x="130" y="397" type="curve" smooth="yes"/>
      <point x="274" y="382" type="line"/>
      <point x="253" y="319" type="line"/>
      <point x="189" y="227" type="line"/>
      <point x="109" y="146" type="line" smooth="yes"/>
      <point x="108" y="144"/>
      <point x="105" y="140"/>
      <point x="104" y="138" type="curve" smooth="yes"/>
      <point x="56" y="57" type="line" smooth="yes"/>
      <point x="40" y="30"/>
      <point x="55" y="0"/>
      <point x="87" y="-3" type="curve" smooth="yes"/>
      <point x="508" y="-39" type="line" smooth="yes"/>
      <point x="509" y="-39"/>
      <point x="510" y="-39"/>
      <point x="511" y="-39" type="curve" smooth="yes"/>
    </contour>
    <contour>
      <point x="234" y="573" type="line" smooth="yes"/>
      <point x="240" y="580"/>
      <point x="243" y="587"/>
      <point x="244" y="596" type="curve"/>
      <point x="330" y="567" type="line"/>
      <point x="371" y="506" type="line"/>
      <point x="323" y="457" type="line"/>
      <point x="170" y="473" type="line"/>
      <point x="167" y="504" type="line"/>
    </contour>
    <contour>
      <point x="249" y="173" type="line" smooth="yes"/>
      <point x="250" y="174"/>
      <point x="252" y="177"/>
      <point x="253" y="178" type="curve" smooth="yes"/>
      <point x="322" y="278" type="line" smooth="yes"/>
      <point x="324" y="281"/>
      <point x="326" y="285"/>
      <point x="327" y="288" type="curve" smooth="yes"/>
      <point x="356" y="373" type="line"/>
      <point x="471" y="361" type="line" smooth="yes"/>
      <point x="472" y="361"/>
      <point x="474" y="361"/>
      <point x="475" y="361" type="curve" smooth="yes"/>
      <point x="508" y="361" type="line"/>
      <point x="563" y="330" type="line" smooth="yes"/>
      <point x="565" y="329"/>
      <point x="568" y="328"/>
      <point x="570" y="327" type="curve" smooth="yes"/>
      <point x="798" y="249" type="line"/>
      <point x="845" y="212" type="line"/>
      <point x="570" y="96" type="line" smooth="yes"/>
      <point x="545" y="85"/>
      <point x="538" y="60"/>
      <point x="548" y="41" type="curve"/>
      <point x="513" y="41" type="line"/>
      <point x="157" y="71" type="line"/>
      <point x="170" y="93" type="line"/>
    </contour>
  </outline>
</glyph>
<glyph name="seven" format="1">
  <advance width="1009"/>
  <unicode hex="0037"/>
  <outline>
    <contour>
      <point x="213" y="-41" type="curve" smooth="yes"/>
      <point x="467" y="45" type="line" smooth="yes"/>
      <point x="469" y="46"/>
      <point x="473" y="47"/>
      <point x="475" y="49" type="curve" smooth="yes"/>
      <point x="611" y="135" type="line" smooth="yes"/>
      <point x="635" y="149"/>
      <point x="638" y="179"/>
      <point x="617" y="198" type="curve" smooth="yes"/>
      <point x="572" y="239" type="line"/>
      <point x="742" y="302" type="line" smooth="yes"/>
      <point x="744" y="303"/>
      <point x="748" y="305"/>
      <point x="750" y="306" type="curve" smooth="yes"/>
      <point x="883" y="392" type="line" smooth="yes"/>
      <point x="915" y="413"/>
      <point x="908" y="455"/>
      <point x="871" y="464" type="curve" smooth="yes"/>
      <point x="699" y="508" type="line"/>
      <point x="926" y="558" type="line" smooth="yes"/>
      <point x="957" y="565"/>
      <point x="969" y="598"/>
      <point x="948" y="623" type="curve" smooth="yes"/>
      <point x="877" y="706" type="line" smooth="yes"/>
      <point x="873" y="711"/>
      <point x="866" y="716"/>
      <point x="861" y="718" type="curve" smooth="yes"/>
      <point x="654" y="798" type="line"/>
      <point x="576" y="833" type="line" smooth="yes"/>
      <point x="571" y="835"/>
      <point x="564" y="837"/>
      <point x="559" y="837" type="curve" smooth="yes"/>
      <point x="90" y="837" type="line" smooth="yes"/>
      <point x="68" y="837"/>
      <point x="50" y="819"/>
      <point x="50" y="797" type="curve" smooth="yes"/>
      <point x="50" y="775"/>
      <point x="68" y="757"/>
      <point x="90" y="757" type="curve" smooth="yes"/>
      <point x="551" y="757" type="line"/>
      <point x="625" y="724" type="line"/>
      <point x="822" y="647" type="line"/>
      <point x="843" y="622" type="line"/>
      <point x="516" y="550" type="line" smooth="yes"/>
      <point x="472" y="541"/>
      <point x="471" y="484"/>
      <point x="515" y="473" type="curve" smooth="yes"/>
      <point x="762" y="409" type="line"/>
      <point x="710" y="376" type="line"/>
      <point x="482" y="292" type="line" smooth="yes"/>
      <point x="452" y="280"/>
      <point x="445" y="246"/>
      <point x="469" y="225" type="curve" smooth="yes"/>
      <point x="524" y="174" type="line"/>
      <point x="437" y="119" type="line"/>
      <point x="187" y="35" type="line" smooth="yes"/>
      <point x="167" y="28"/>
      <point x="155" y="5"/>
      <point x="162" y="-16" type="curve" smooth="yes"/>
      <point x="169" y="-36"/>
      <point x="192" y="-48"/>
    </contour>
  </outline>
</glyph>
<glyph name="eight" format="1">
  <advance width="1090"/>
  <unicode hex="0038"/>
  <outline>
    <contour>
      <point x="466" y="-40" type="line"/>
      <point x="611" y="-40" type="line" smooth="yes"/>
      <point x="611" y="-40"/>
      <point x="612" y="-40"/>
      <point x="612" y="-40" type="curve"/>
      <point x="718" y="-40" type="line"/>
      <point x="851" y="-33" type="line" smooth="yes"/>
      <point x="899" y="-30"/>
      <point x="904" y="36"/>
      <point x="857" y="46" type="curve" smooth="yes"/>
      <point x="658" y="89" type="line"/>
      <point x="672" y="167" type="line"/>
      <point x="1007" y="244" type="line" smooth="yes"/>
      <point x="1043" y="253"/>
      <point x="1052" y="293"/>
      <point x="1022" y="316" type="curve" smooth="yes"/>
      <point x="913" y="396" type="line" smooth="yes"/>
      <point x="909" y="399"/>
      <point x="901" y="403"/>
      <point x="895" y="404" type="curve" smooth="yes"/>
      <point x="839" y="411" type="line"/>
      <point x="872" y="420" type="line" smooth="yes"/>
      <point x="878" y="421"/>
      <point x="888" y="427"/>
      <point x="892" y="432" type="curve" smooth="yes"/>
      <point x="1015" y="574" type="line" smooth="yes"/>
      <point x="1036" y="597"/>
      <point x="1026" y="629"/>
      <point x="996" y="638" type="curve" smooth="yes"/>
      <point x="753" y="711" type="line"/>
      <point x="758" y="738" type="line"/>
      <point x="806" y="765" type="line" smooth="yes"/>
      <point x="844" y="787"/>
      <point x="830" y="840"/>
      <point x="786" y="840" type="curve" smooth="yes"/>
      <point x="506" y="840" type="line"/>
      <point x="506" y="839" type="line"/>
      <point x="181" y="833" type="line" smooth="yes"/>
      <point x="144" y="832"/>
      <point x="127" y="795"/>
      <point x="151" y="767" type="curve" smooth="yes"/>
      <point x="172" y="743" type="line"/>
      <point x="63" y="627" type="line" smooth="yes"/>
      <point x="40" y="604"/>
      <point x="50" y="570"/>
      <point x="82" y="561" type="curve" smooth="yes"/>
      <point x="274" y="512" type="line"/>
      <point x="159" y="474" type="line" smooth="yes"/>
      <point x="115" y="460"/>
      <point x="122" y="401"/>
      <point x="167" y="396" type="curve" smooth="yes"/>
      <point x="174" y="396" type="line"/>
      <point x="152" y="365" type="line" smooth="yes"/>
      <point x="142" y="350"/>
      <point x="144" y="328"/>
      <point x="155" y="315" type="curve" smooth="yes"/>
      <point x="258" y="201" type="line"/>
      <point x="205" y="144" type="line" smooth="yes"/>
      <point x="192" y="130"/>
      <point x="191" y="107"/>
      <point x="202" y="93" type="curve" smooth="yes"/>
      <point x="262" y="12" type="line" smooth="yes"/>
      <point x="268" y="4"/>
      <point x="280" y="-3"/>
      <point x="290" y="-4" type="curve" smooth="yes"/>
      <point x="466" y="-24" type="line"/>
    </contour>
    <contour>
      <point x="428" y="479" type="line" smooth="yes"/>
      <point x="469" y="492"/>
      <point x="468" y="545"/>
      <point x="426" y="555" type="curve" smooth="yes"/>
      <point x="168" y="622" type="line"/>
      <point x="255" y="714" type="line" smooth="yes"/>
      <point x="265" y="725"/>
      <point x="268" y="741"/>
      <point x="264" y="755" type="curve"/>
      <point x="556" y="760" type="line"/>
      <point x="681" y="760" type="line"/>
      <point x="667" y="691" type="line" smooth="yes"/>
      <point x="663" y="672"/>
      <point x="675" y="651"/>
      <point x="695" y="645" type="curve" smooth="yes"/>
      <point x="914" y="579" type="line"/>
      <point x="840" y="494" type="line"/>
      <point x="649" y="446" type="line"/>
      <point x="602" y="440" type="line"/>
      <point x="542" y="440" type="line"/>
      <point x="364" y="457" type="line"/>
    </contour>
    <contour>
      <point x="341" y="173" type="line" smooth="yes"/>
      <point x="355" y="187"/>
      <point x="355" y="212"/>
      <point x="342" y="227" type="curve" smooth="yes"/>
      <point x="236" y="345" type="line"/>
      <point x="243" y="354" type="line"/>
      <point x="377" y="360" type="line" smooth="yes"/>
      <point x="390" y="361"/>
      <point x="399" y="366"/>
      <point x="405" y="373" type="curve"/>
      <point x="536" y="360" type="line" smooth="yes"/>
      <point x="537" y="360"/>
      <point x="539" y="360"/>
      <point x="540" y="360" type="curve" smooth="yes"/>
      <point x="629" y="360" type="line"/>
      <point x="874" y="326" type="line"/>
      <point x="905" y="303" type="line"/>
      <point x="629" y="239" type="line" smooth="yes"/>
      <point x="615" y="236"/>
      <point x="601" y="222"/>
      <point x="599" y="208" type="curve" smooth="yes"/>
      <point x="572" y="66" type="line" smooth="yes"/>
      <point x="570" y="58"/>
      <point x="571" y="51"/>
      <point x="574" y="45" type="curve"/>
      <point x="316" y="74" type="line"/>
      <point x="286" y="114" type="line"/>
    </contour>
  </outline>
</glyph>
<glyph name="nine" format="1">
  <advance width="1039"/>
  <unicode hex="0039"/>
  <outline>
    <contour>
      <point x="719" y="440" type="curve" smooth="yes"/>
      <point x="627" y="440" type="line"/>
      <point x="446" y="474" type="line"/>
      <point x="326" y="550" type="line" smooth="yes"/>
      <point x="326" y="551"/>
      <point x="324" y="552"/>
      <point x="323" y="552" type="curve" smooth="yes"/>
      <point x="201" y="614" type="line"/>
      <point x="282" y="717" type="line"/>
      <point x="307" y="754" type="line"/>
      <point x="575" y="760" type="line"/>
      <point x="746" y="760" type="line"/>
      <point x="782" y="732" type="line" smooth="yes"/>
      <point x="783" y="732"/>
      <point x="784" y="731"/>
      <point x="785" y="730" type="curve" smooth="yes"/>
      <point x="834" y="698" type="line"/>
      <point x="616" y="639" type="line" smooth="yes"/>
      <point x="575" y="627"/>
      <point x="574" y="575"/>
      <point x="615" y="562" type="curve" smooth="yes"/>
      <point x="848" y="489" type="line"/>
      <point x="755" y="435" type="line" smooth="yes"/>
      <point x="752" y="433"/>
      <point x="750" y="431"/>
      <point x="748" y="429" type="curve"/>
      <point x="741" y="436"/>
      <point x="731" y="440"/>
    </contour>
    <contour>
      <point x="730" y="361" type="line" smooth="yes"/>
      <point x="737" y="363"/>
      <point x="743" y="367"/>
      <point x="747" y="371" type="curve"/>
      <point x="807" y="303" type="line"/>
      <point x="725" y="230" type="line"/>
      <point x="642" y="305" type="line"/>
      <point x="636" y="335" type="line"/>
    </contour>
    <contour>
      <point x="329" y="-40" type="curve" smooth="yes"/>
      <point x="694" y="-40" type="line"/>
      <point x="694" y="40" type="line"/>
      <point x="627" y="40" type="line"/>
      <point x="689" y="84" type="line" smooth="yes"/>
      <point x="691" y="85"/>
      <point x="693" y="87"/>
      <point x="694" y="88" type="curve" smooth="yes"/>
      <point x="778" y="170" type="line"/>
      <point x="890" y="270" type="line" smooth="yes"/>
      <point x="906" y="285"/>
      <point x="908" y="310"/>
      <point x="893" y="326" type="curve" smooth="yes"/>
      <point x="837" y="390" type="line"/>
      <point x="967" y="465" type="line" smooth="yes"/>
      <point x="1000" y="484"/>
      <point x="995" y="527"/>
      <point x="959" y="538" type="curve" smooth="yes"/>
      <point x="769" y="598" type="line"/>
      <point x="942" y="645" type="line" smooth="yes"/>
      <point x="978" y="655"/>
      <point x="984" y="697"/>
      <point x="953" y="717" type="curve" smooth="yes"/>
      <point x="830" y="797" type="line"/>
      <point x="784" y="832" type="line" smooth="yes"/>
      <point x="779" y="836"/>
      <point x="768" y="840"/>
      <point x="760" y="840" type="curve" smooth="yes"/>
      <point x="480" y="840" type="line"/>
      <point x="480" y="838" type="line"/>
      <point x="285" y="833" type="line" smooth="yes"/>
      <point x="273" y="833"/>
      <point x="259" y="825"/>
      <point x="253" y="816" type="curve" smooth="yes"/>
      <point x="219" y="766" type="line"/>
      <point x="108" y="625" type="line" smooth="yes"/>
      <point x="91" y="604"/>
      <point x="97" y="576"/>
      <point x="121" y="564" type="curve" smooth="yes"/>
      <point x="285" y="482" type="line"/>
      <point x="410" y="402" type="line" smooth="yes"/>
      <point x="413" y="400"/>
      <point x="420" y="398"/>
      <point x="424" y="397" type="curve" smooth="yes"/>
      <point x="550" y="373" type="line"/>
      <point x="548" y="368"/>
      <point x="548" y="362"/>
      <point x="550" y="355" type="curve" smooth="yes"/>
      <point x="567" y="275" type="line" smooth="yes"/>
      <point x="568" y="268"/>
      <point x="574" y="258"/>
      <point x="579" y="254" type="curve" smooth="yes"/>
      <point x="668" y="174" type="line"/>
      <point x="640" y="147" type="line"/>
      <point x="529" y="69" type="line"/>
      <point x="503" y="53" type="line"/>
      <point x="266" y="79" type="line"/>
      <point x="494" y="162" type="line" smooth="yes"/>
      <point x="514" y="170"/>
      <point x="525" y="193"/>
      <point x="518" y="214" type="curve" smooth="yes"/>
      <point x="510" y="234"/>
      <point x="487" y="245"/>
      <point x="466" y="238" type="curve" smooth="yes"/>
      <point x="78" y="96" type="line" smooth="yes"/>
      <point x="36" y="80"/>
      <point x="43" y="24"/>
      <point x="88" y="19" type="curve" smooth="yes"/>
      <point x="289" y="-4" type="line"/>
      <point x="291" y="-23"/>
      <point x="304" y="-40"/>
    </contour>
  </outline>
</glyph>
<glyph name="colon" format="1">
  <advance width="503"/>
  <unicode hex="003A"/>
  <outline>
    <contour>
      <point x="122" y="579" type="curve" smooth="yes"/>
      <point x="124" y="558"/>
      <point x="144" y="541"/>
      <point x="166" y="543" type="curve" smooth="yes"/>
      <point x="266" y="552" type="line" smooth="yes"/>
      <point x="287" y="554"/>
      <point x="304" y="574"/>
      <point x="302" y="596" type="curve" smooth="yes"/>
      <point x="300" y="617"/>
      <point x="280" y="634"/>
      <point x="258" y="632" type="curve" smooth="yes"/>
      <point x="158" y="623" type="line" smooth="yes"/>
      <point x="137" y="621"/>
      <point x="120" y="601"/>
    </contour>
    <contour>
      <point x="453" y="1" type="curve" smooth="yes"/>
      <point x="453" y="22"/>
      <point x="435" y="41"/>
      <point x="413" y="41" type="curve" smooth="yes"/>
      <point x="90" y="45" type="line" smooth="yes"/>
      <point x="69" y="45"/>
      <point x="50" y="27"/>
      <point x="50" y="5" type="curve" smooth="yes"/>
      <point x="50" y="-16"/>
      <point x="68" y="-35"/>
      <point x="90" y="-35" type="curve" smooth="yes"/>
      <point x="413" y="-39" type="line" smooth="yes"/>
      <point x="434" y="-39"/>
      <point x="453" y="-21"/>
    </contour>
  </outline>
</glyph>
<glyph name="semicolon" format="1">
  <advance width="489"/>
  <unicode hex="003B"/>
  <outline>
    <contour>
      <point x="207" y="581" type="curve" smooth="yes"/>
      <point x="208" y="559"/>
      <point x="228" y="542"/>
      <point x="249" y="543" type="curve" smooth="yes"/>
      <point x="400" y="552" type="line" smooth="yes"/>
      <point x="422" y="553"/>
      <point x="439" y="573"/>
      <point x="438" y="594" type="curve" smooth="yes"/>
      <point x="437" y="616"/>
      <point x="417" y="633"/>
      <point x="396" y="632" type="curve" smooth="yes"/>
      <point x="245" y="623" type="line" smooth="yes"/>
      <point x="223" y="622"/>
      <point x="206" y="602"/>
    </contour>
    <contour>
      <point x="171" y="-48" type="curve" smooth="yes"/>
      <point x="328" y="-48" type="line" smooth="yes"/>
      <point x="363" y="-48"/>
      <point x="381" y="-14"/>
      <point x="361" y="15" type="curve" smooth="yes"/>
      <point x="291" y="115" type="line" smooth="yes"/>
      <point x="288" y="119"/>
      <point x="282" y="124"/>
      <point x="278" y="126" type="curve" smooth="yes"/>
      <point x="109" y="226" type="line" smooth="yes"/>
      <point x="91" y="237"/>
      <point x="66" y="231"/>
      <point x="55" y="212" type="curve" smooth="yes"/>
      <point x="44" y="194"/>
      <point x="50" y="169"/>
      <point x="69" y="158" type="curve" smooth="yes"/>
      <point x="230" y="62" type="line"/>
      <point x="251" y="32" type="line"/>
      <point x="171" y="32" type="line" smooth="yes"/>
      <point x="149" y="32"/>
      <point x="131" y="14"/>
      <point x="131" y="-8" type="curve" smooth="yes"/>
      <point x="131" y="-30"/>
      <point x="149" y="-48"/>
    </contour>
  </outline>
</glyph>
<glyph name="less" format="1">
  <advance width="788"/>
  <unicode hex="003C"/>
  <outline>
    <contour>
      <point x="737" y="95" type="curve" smooth="yes"/>
      <point x="742" y="116"/>
      <point x="727" y="138"/>
      <point x="706" y="142" type="curve" smooth="yes"/>
      <point x="465" y="193" type="line"/>
      <point x="209" y="227" type="line"/>
      <point x="212" y="231"/>
      <point x="215" y="236"/>
      <point x="217" y="239" type="curve" smooth="yes"/>
      <point x="235" y="289" type="line" smooth="yes"/>
      <point x="236" y="294"/>
      <point x="237" y="302"/>
      <point x="237" y="307" type="curve" smooth="yes"/>
      <point x="232" y="357" type="line" smooth="yes"/>
      <point x="231" y="361"/>
      <point x="230" y="367"/>
      <point x="228" y="371" type="curve" smooth="yes"/>
      <point x="204" y="419" type="line"/>
      <point x="643" y="463" type="line" smooth="yes"/>
      <point x="664" y="465"/>
      <point x="681" y="485"/>
      <point x="679" y="507" type="curve" smooth="yes"/>
      <point x="677" y="528"/>
      <point x="657" y="545"/>
      <point x="635" y="543" type="curve" smooth="yes"/>
      <point x="136" y="493" type="line" smooth="yes"/>
      <point x="105" y="490"/>
      <point x="90" y="461"/>
      <point x="105" y="434" type="curve" smooth="yes"/>
      <point x="132" y="384" type="line"/>
      <point x="153" y="342" type="line"/>
      <point x="156" y="308" type="line"/>
      <point x="146" y="280" type="line"/>
      <point x="72" y="238" type="line" smooth="yes"/>
      <point x="36" y="217"/>
      <point x="46" y="169"/>
      <point x="87" y="163" type="curve" smooth="yes"/>
      <point x="455" y="113" type="line"/>
      <point x="690" y="64" type="line" smooth="yes"/>
      <point x="711" y="59"/>
      <point x="733" y="74"/>
    </contour>
  </outline>
</glyph>
<glyph name="equal" format="1">
  <advance width="727"/>
  <unicode hex="003D"/>
  <outline>
    <contour>
      <point x="90" y="398" type="curve" smooth="yes"/>
      <point x="574" y="398" type="line" smooth="yes"/>
      <point x="596" y="398"/>
      <point x="614" y="416"/>
      <point x="614" y="438" type="curve" smooth="yes"/>
      <point x="614" y="460"/>
      <point x="596" y="478"/>
      <point x="574" y="478" type="curve" smooth="yes"/>
      <point x="90" y="478" type="line" smooth="yes"/>
      <point x="68" y="478"/>
      <point x="50" y="460"/>
      <point x="50" y="438" type="curve" smooth="yes"/>
      <point x="50" y="416"/>
      <point x="68" y="398"/>
    </contour>
    <contour>
      <point x="637" y="98" type="line" smooth="yes"/>
      <point x="659" y="98"/>
      <point x="677" y="116"/>
      <point x="677" y="138" type="curve" smooth="yes"/>
      <point x="677" y="160"/>
      <point x="659" y="178"/>
      <point x="637" y="178" type="curve" smooth="yes"/>
      <point x="155" y="178" type="line"/>
      <point x="155" y="98" type="line"/>
    </contour>
  </outline>
</glyph>
<glyph name="greater" format="1">
  <advance width="801"/>
  <unicode hex="003E"/>
  <outline>
    <contour>
      <point x="224" y="81" type="curve" smooth="yes"/>
      <point x="439" y="131" type="line"/>
      <point x="640" y="181" type="line" smooth="yes"/>
      <point x="646" y="183"/>
      <point x="654" y="188"/>
      <point x="659" y="192" type="curve" smooth="yes"/>
      <point x="708" y="242" type="line" smooth="yes"/>
      <point x="709" y="244"/>
      <point x="712" y="247"/>
      <point x="713" y="249" type="curve" smooth="yes"/>
      <point x="744" y="299" type="line" smooth="yes"/>
      <point x="761" y="326"/>
      <point x="746" y="356"/>
      <point x="715" y="360" type="curve" smooth="yes"/>
      <point x="527" y="384" type="line"/>
      <point x="564" y="401"/>
      <point x="557" y="455"/>
      <point x="514" y="460" type="curve" smooth="yes"/>
      <point x="190" y="499" type="line"/>
      <point x="198" y="512"/>
      <point x="198" y="531"/>
      <point x="188" y="545" type="curve" smooth="yes"/>
      <point x="174" y="562"/>
      <point x="148" y="565"/>
      <point x="131" y="552" type="curve" smooth="yes"/>
      <point x="67" y="502" type="line" smooth="yes"/>
      <point x="37" y="478"/>
      <point x="49" y="435"/>
      <point x="87" y="430" type="curve" smooth="yes"/>
      <point x="304" y="404" type="line"/>
      <point x="271" y="386"/>
      <point x="278" y="336"/>
      <point x="320" y="330" type="curve" smooth="yes"/>
      <point x="641" y="289" type="line"/>
      <point x="609" y="256" type="line"/>
      <point x="419" y="209" type="line"/>
      <point x="206" y="159" type="line" smooth="yes"/>
      <point x="185" y="154"/>
      <point x="171" y="132"/>
      <point x="176" y="111" type="curve" smooth="yes"/>
      <point x="181" y="90"/>
      <point x="203" y="76"/>
    </contour>
  </outline>
</glyph>
<glyph name="question" format="1">
  <advance width="928"/>
  <unicode hex="003F"/>
  <outline>
    <contour>
      <point x="472" y="181" type="curve" smooth="yes"/>
      <point x="482" y="200"/>
      <point x="475" y="225"/>
      <point x="456" y="235" type="curve" smooth="yes"/>
      <point x="360" y="286" type="line"/>
      <point x="648" y="360" type="line" smooth="yes"/>
      <point x="668" y="365"/>
      <point x="678" y="380"/>
      <point x="679" y="395" type="curve"/>
      <point x="844" y="419" type="line" smooth="yes"/>
      <point x="863" y="421"/>
      <point x="878" y="439"/>
      <point x="878" y="459" type="curve" smooth="yes"/>
      <point x="876" y="601" type="line" smooth="yes"/>
      <point x="876" y="610"/>
      <point x="870" y="624"/>
      <point x="862" y="630" type="curve" smooth="yes"/>
      <point x="768" y="713" type="line" smooth="yes"/>
      <point x="764" y="717"/>
      <point x="757" y="721"/>
      <point x="752" y="722" type="curve" smooth="yes"/>
      <point x="466" y="802" type="line"/>
      <point x="422" y="812" type="line"/>
      <point x="416" y="823"/>
      <point x="404" y="832"/>
      <point x="388" y="833" type="curve" smooth="yes"/>
      <point x="290" y="840" type="line" smooth="yes"/>
      <point x="260" y="842"/>
      <point x="244" y="818"/>
      <point x="246" y="797" type="curve"/>
      <point x="186" y="780" type="line" smooth="yes"/>
      <point x="178" y="778"/>
      <point x="169" y="771"/>
      <point x="164" y="765" type="curve" smooth="yes"/>
      <point x="58" y="623" type="line" smooth="yes"/>
      <point x="45" y="606"/>
      <point x="49" y="580"/>
      <point x="66" y="567" type="curve" smooth="yes"/>
      <point x="83" y="554"/>
      <point x="109" y="558"/>
      <point x="122" y="575" type="curve" smooth="yes"/>
      <point x="220" y="706" type="line"/>
      <point x="357" y="744" type="line"/>
      <point x="444" y="725" type="line"/>
      <point x="722" y="647" type="line"/>
      <point x="796" y="582" type="line"/>
      <point x="797" y="493" type="line"/>
      <point x="476" y="446" type="line"/>
      <point x="384" y="439" type="line" smooth="yes"/>
      <point x="344" y="436"/>
      <point x="337" y="389"/>
      <point x="360" y="369" type="curve"/>
      <point x="240" y="338" type="line" smooth="yes"/>
      <point x="202" y="328"/>
      <point x="196" y="283"/>
      <point x="231" y="264" type="curve" smooth="yes"/>
      <point x="418" y="165" type="line" smooth="yes"/>
      <point x="437" y="155"/>
      <point x="462" y="162"/>
    </contour>
    <contour>
      <point x="189" y="-2" type="curve" smooth="yes"/>
      <point x="190" y="-23"/>
      <point x="209" y="-41"/>
      <point x="231" y="-40" type="curve" smooth="yes"/>
      <point x="465" y="-29" type="line" smooth="yes"/>
      <point x="486" y="-28"/>
      <point x="504" y="-9"/>
      <point x="503" y="13" type="curve" smooth="yes"/>
      <point x="502" y="34"/>
      <point x="483" y="52"/>
      <point x="461" y="51" type="curve" smooth="yes"/>
      <point x="227" y="40" type="line" smooth="yes"/>
      <point x="206" y="39"/>
      <point x="188" y="20"/>
    </contour>
  </outline>
</glyph>
<glyph name="at" format="1">
  <advance width="1194"/>
  <unicode hex="0040"/>
  <outline>
    <contour>
      <point x="290" y="-82" type="curve" smooth="yes"/>
      <point x="637" y="-82" type="line" smooth="yes"/>
      <point x="659" y="-82"/>
      <point x="677" y="-64"/>
      <point x="677" y="-42" type="curve" smooth="yes"/>
      <point x="677" y="-20"/>
      <point x="659" y="-2"/>
      <point x="637" y="-2" type="curve" smooth="yes"/>
      <point x="398" y="-2" type="line"/>
      <point x="497" y="37" type="line" smooth="yes"/>
      <point x="537" y="53"/>
      <point x="533" y="104"/>
      <point x="492" y="114" type="curve" smooth="yes"/>
      <point x="190" y="184" type="line"/>
      <point x="224" y="238" type="line" smooth="yes"/>
      <point x="225" y="239"/>
      <point x="226" y="242"/>
      <point x="227" y="244" type="curve" smooth="yes"/>
      <point x="263" y="330" type="line"/>
      <point x="467" y="425" type="line" smooth="yes"/>
      <point x="503" y="441"/>
      <point x="500" y="487"/>
      <point x="462" y="499" type="curve" smooth="yes"/>
      <point x="163" y="595" type="line"/>
      <point x="151" y="617" type="line"/>
      <point x="440" y="684" type="line" smooth="yes"/>
      <point x="442" y="684"/>
      <point x="444" y="685"/>
      <point x="446" y="685" type="curve" smooth="yes"/>
      <point x="530" y="718" type="line"/>
      <point x="745" y="718" type="line"/>
      <point x="748" y="702"/>
      <point x="760" y="687"/>
      <point x="775" y="683" type="curve" smooth="yes"/>
      <point x="947" y="639" type="line"/>
      <point x="796" y="596" type="line" smooth="yes"/>
      <point x="756" y="585"/>
      <point x="754" y="536"/>
      <point x="792" y="521" type="curve" smooth="yes"/>
      <point x="1000" y="438" type="line"/>
      <point x="973" y="386" type="line"/>
      <point x="790" y="249" type="line" smooth="yes"/>
      <point x="777" y="239"/>
      <point x="771" y="223"/>
      <point x="775" y="209" type="curve"/>
      <point x="651" y="223" type="line"/>
      <point x="647" y="238" type="line"/>
      <point x="801" y="323" type="line" smooth="yes"/>
      <point x="807" y="326"/>
      <point x="814" y="334"/>
      <point x="817" y="340" type="curve" smooth="yes"/>
      <point x="869" y="440" type="line" smooth="yes"/>
      <point x="881" y="463"/>
      <point x="871" y="488"/>
      <point x="846" y="496" type="curve" smooth="yes"/>
      <point x="527" y="596" type="line" smooth="yes"/>
      <point x="523" y="597"/>
      <point x="519" y="598"/>
      <point x="514" y="598" type="curve"/>
      <point x="511" y="598"/>
      <point x="507" y="598"/>
      <point x="503" y="597" type="curve" smooth="yes"/>
      <point x="482" y="592"/>
      <point x="468" y="570"/>
      <point x="473" y="549" type="curve" smooth="yes"/>
      <point x="486" y="491" type="line" smooth="yes"/>
      <point x="487" y="488"/>
      <point x="488" y="484"/>
      <point x="489" y="482" type="curve" smooth="yes"/>
      <point x="537" y="385" type="line"/>
      <point x="370" y="345" type="line" smooth="yes"/>
      <point x="348" y="340"/>
      <point x="335" y="318"/>
      <point x="340" y="296" type="curve" smooth="yes"/>
      <point x="366" y="200" type="line" smooth="yes"/>
      <point x="370" y="185"/>
      <point x="385" y="172"/>
      <point x="400" y="170" type="curve" smooth="yes"/>
      <point x="588" y="149" type="line"/>
      <point x="588" y="148" type="line" smooth="yes"/>
      <point x="594" y="127"/>
      <point x="617" y="114"/>
      <point x="637" y="119" type="curve" smooth="yes"/>
      <point x="649" y="122"/>
      <point x="658" y="130"/>
      <point x="663" y="141" type="curve"/>
      <point x="864" y="118" type="line" smooth="yes"/>
      <point x="903" y="114"/>
      <point x="925" y="155"/>
      <point x="898" y="185" type="curve" smooth="yes"/>
      <point x="873" y="211" type="line"/>
      <point x="1028" y="327" type="line" smooth="yes"/>
      <point x="1032" y="330"/>
      <point x="1037" y="336"/>
      <point x="1039" y="340" type="curve" smooth="yes"/>
      <point x="1091" y="440" type="line" smooth="yes"/>
      <point x="1103" y="462"/>
      <point x="1093" y="487"/>
      <point x="1071" y="496" type="curve" smooth="yes"/>
      <point x="931" y="552" type="line"/>
      <point x="1112" y="603" type="line" smooth="yes"/>
      <point x="1155" y="615"/>
      <point x="1154" y="669"/>
      <point x="1111" y="680" type="curve" smooth="yes"/>
      <point x="829" y="752" type="line"/>
      <point x="829" y="754" type="line" smooth="yes"/>
      <point x="831" y="778"/>
      <point x="813" y="798"/>
      <point x="789" y="798" type="curve" smooth="yes"/>
      <point x="522" y="798" type="line" smooth="yes"/>
      <point x="518" y="798"/>
      <point x="511" y="797"/>
      <point x="507" y="795" type="curve" smooth="yes"/>
      <point x="419" y="761" type="line"/>
      <point x="82" y="682" type="line" smooth="yes"/>
      <point x="54" y="676"/>
      <point x="42" y="649"/>
      <point x="56" y="624" type="curve" smooth="yes"/>
      <point x="101" y="543" type="line" smooth="yes"/>
      <point x="105" y="535"/>
      <point x="115" y="527"/>
      <point x="124" y="524" type="curve" smooth="yes"/>
      <point x="340" y="454" type="line"/>
      <point x="215" y="396" type="line" smooth="yes"/>
      <point x="207" y="393"/>
      <point x="198" y="383"/>
      <point x="195" y="375" type="curve" smooth="yes"/>
      <point x="154" y="278" type="line"/>
      <point x="92" y="179" type="line" smooth="yes"/>
      <point x="76" y="155"/>
      <point x="88" y="126"/>
      <point x="117" y="119" type="curve" smooth="yes"/>
      <point x="349" y="65" type="line"/>
      <point x="265" y="31" type="line" smooth="yes"/>
      <point x="247" y="24"/>
      <point x="236" y="2"/>
      <point x="241" y="-17" type="curve" smooth="yes"/>
      <point x="251" y="-53" type="line" smooth="yes"/>
      <point x="256" y="-69"/>
      <point x="273" y="-82"/>
    </contour>
    <contour>
      <point x="604" y="319" type="line" smooth="yes"/>
      <point x="631" y="325"/>
      <point x="643" y="352"/>
      <point x="631" y="376" type="curve" smooth="yes"/>
      <point x="570" y="499" type="line"/>
      <point x="776" y="434" type="line"/>
      <point x="752" y="387" type="line"/>
      <point x="581" y="293" type="line" smooth="yes"/>
      <point x="566" y="285"/>
      <point x="557" y="264"/>
      <point x="561" y="248" type="curve" smooth="yes"/>
      <point x="566" y="232" type="line"/>
      <point x="436" y="247" type="line"/>
      <point x="428" y="277" type="line"/>
    </contour>
  </outline>
</glyph>
<glyph name="A" format="1">
  <advance width="1075"/>
  <unicode hex="0041"/>
  <outline>
    <contour>
      <point x="302" y="384" type="curve" smooth="yes"/>
      <point x="211" y="350" type="line"/>
      <point x="193" y="410" type="line" smooth="yes"/>
      <point x="193" y="411"/>
      <point x="192" y="413"/>
      <point x="192" y="414" type="curve" smooth="yes"/>
      <point x="157" y="499" type="line"/>
      <point x="192" y="585" type="line" smooth="yes"/>
      <point x="197" y="597"/>
      <point x="194" y="615"/>
      <point x="186" y="625" type="curve" smooth="yes"/>
      <point x="158" y="660" type="line"/>
      <point x="360" y="722" type="line" smooth="yes"/>
      <point x="378" y="728"/>
      <point x="388" y="741"/>
      <point x="390" y="756" type="curve"/>
      <point x="701" y="756" type="line"/>
      <point x="890" y="723" type="line"/>
      <point x="915" y="695" type="line"/>
      <point x="754" y="633" type="line" smooth="yes"/>
      <point x="727" y="623"/>
      <point x="719" y="593"/>
      <point x="737" y="571" type="curve" smooth="yes"/>
      <point x="788" y="508" type="line"/>
      <point x="642" y="407" type="line" smooth="yes"/>
      <point x="636" y="402"/>
      <point x="630" y="394"/>
      <point x="627" y="386" type="curve"/>
      <point x="316" y="386" type="line" smooth="yes"/>
      <point x="312" y="386"/>
      <point x="306" y="385"/>
    </contour>
    <contour>
      <point x="424" y="9" type="curve" smooth="yes"/>
      <point x="397" y="88" type="line"/>
      <point x="365" y="165" type="line" smooth="yes"/>
      <point x="364" y="169"/>
      <point x="361" y="174"/>
      <point x="358" y="176" type="curve" smooth="yes"/>
      <point x="290" y="254" type="line"/>
      <point x="274" y="288" type="line"/>
      <point x="323" y="306" type="line"/>
      <point x="617" y="306" type="line"/>
      <point x="610" y="244" type="line" smooth="yes"/>
      <point x="608" y="228"/>
      <point x="619" y="210"/>
      <point x="633" y="203" type="curve" smooth="yes"/>
      <point x="868" y="97" type="line"/>
      <point x="856" y="65" type="line"/>
      <point x="711" y="35" type="line" smooth="yes"/>
      <point x="690" y="31"/>
      <point x="675" y="9"/>
      <point x="680" y="-12" type="curve" smooth="yes"/>
      <point x="684" y="-33"/>
      <point x="706" y="-48"/>
      <point x="727" y="-43" type="curve" smooth="yes"/>
      <point x="894" y="-9" type="line" smooth="yes"/>
      <point x="906" y="-7"/>
      <point x="919" y="5"/>
      <point x="924" y="16" type="curve" smooth="yes"/>
      <point x="956" y="105" type="line" smooth="yes"/>
      <point x="963" y="124"/>
      <point x="953" y="146"/>
      <point x="935" y="155" type="curve" smooth="yes"/>
      <point x="693" y="264" type="line"/>
      <point x="698" y="306" type="line"/>
      <point x="952" y="306" type="line" smooth="yes"/>
      <point x="974" y="306"/>
      <point x="992" y="324"/>
      <point x="992" y="346" type="curve" smooth="yes"/>
      <point x="992" y="368"/>
      <point x="974" y="386"/>
      <point x="952" y="386" type="curve" smooth="yes"/>
      <point x="753" y="386" type="line"/>
      <point x="869" y="467" type="line" smooth="yes"/>
      <point x="888" y="480"/>
      <point x="892" y="506"/>
      <point x="877" y="525" type="curve" smooth="yes"/>
      <point x="834" y="578" type="line"/>
      <point x="998" y="642" type="line" smooth="yes"/>
      <point x="1026" y="652"/>
      <point x="1034" y="684"/>
      <point x="1013" y="706" type="curve" smooth="yes"/>
      <point x="940" y="787" type="line" smooth="yes"/>
      <point x="935" y="792"/>
      <point x="925" y="798"/>
      <point x="918" y="799" type="curve" smooth="yes"/>
      <point x="712" y="835" type="line" smooth="yes"/>
      <point x="710" y="836"/>
      <point x="707" y="836"/>
      <point x="705" y="836" type="curve" smooth="yes"/>
      <point x="278" y="836" type="line" smooth="yes"/>
      <point x="239" y="836"/>
      <point x="224" y="795"/>
      <point x="246" y="771" type="curve"/>
      <point x="79" y="720" type="line" smooth="yes"/>
      <point x="50" y="711"/>
      <point x="41" y="680"/>
      <point x="59" y="657" type="curve" smooth="yes"/>
      <point x="109" y="594" type="line"/>
      <point x="77" y="514" type="line" smooth="yes"/>
      <point x="74" y="506"/>
      <point x="74" y="493"/>
      <point x="77" y="484" type="curve" smooth="yes"/>
      <point x="117" y="386" type="line"/>
      <point x="145" y="289" type="line"/>
      <point x="160" y="193" type="line"/>
      <point x="166" y="94" type="line" smooth="yes"/>
      <point x="167" y="82"/>
      <point x="176" y="68"/>
      <point x="186" y="62" type="curve" smooth="yes"/>
      <point x="366" y="-39" type="line" smooth="yes"/>
      <point x="401" y="-58"/>
      <point x="437" y="-29"/>
    </contour>
    <contour>
      <point x="312" y="83" type="line"/>
      <point x="245" y="121" type="line"/>
      <point x="241" y="189" type="line"/>
      <point x="294" y="129" type="line"/>
    </contour>
  </outline>
</glyph>
<glyph name="B" format="1">
  <advance width="1181"/>
  <unicode hex="0042"/>
  <outline>
    <contour>
      <point x="402" y="-36" type="curve" smooth="yes"/>
      <point x="823" y="-36" type="line" smooth="yes"/>
      <point x="856" y="-36"/>
      <point x="874" y="-5"/>
      <point x="858" y="24" type="curve" smooth="yes"/>
      <point x="837" y="60" type="line"/>
      <point x="915" y="172" type="line"/>
      <point x="1101" y="251" type="line" smooth="yes"/>
      <point x="1116" y="257"/>
      <point x="1127" y="276"/>
      <point x="1125" y="293" type="curve" smooth="yes"/>
      <point x="1113" y="374" type="line" smooth="yes"/>
      <point x="1111" y="391"/>
      <point x="1094" y="406"/>
      <point x="1077" y="408" type="curve" smooth="yes"/>
      <point x="1014" y="413" type="line"/>
      <point x="1094" y="424" type="line" smooth="yes"/>
      <point x="1137" y="430"/>
      <point x="1144" y="484"/>
      <point x="1103" y="501" type="curve" smooth="yes"/>
      <point x="857" y="604" type="line"/>
      <point x="983" y="651" type="line" smooth="yes"/>
      <point x="1012" y="663"/>
      <point x="1019" y="696"/>
      <point x="996" y="718" type="curve" smooth="yes"/>
      <point x="919" y="791" type="line"/>
      <point x="910" y="818" type="line" smooth="yes"/>
      <point x="904" y="832"/>
      <point x="887" y="844"/>
      <point x="872" y="844" type="curve" smooth="yes"/>
      <point x="553" y="844" type="line"/>
      <point x="128" y="809" type="line" smooth="yes"/>
      <point x="81" y="805"/>
      <point x="76" y="742"/>
      <point x="121" y="730" type="curve" smooth="yes"/>
      <point x="382" y="662" type="line"/>
      <point x="375" y="640" type="line"/>
      <point x="80" y="545" type="line" smooth="yes"/>
      <point x="42" y="532"/>
      <point x="39" y="487"/>
      <point x="75" y="470" type="curve" smooth="yes"/>
      <point x="286" y="369" type="line"/>
      <point x="468" y="297" type="line"/>
      <point x="362" y="237" type="line" smooth="yes"/>
      <point x="335" y="221"/>
      <point x="333" y="188"/>
      <point x="359" y="170" type="curve" smooth="yes"/>
      <point x="477" y="84" type="line"/>
      <point x="284" y="50" type="line" smooth="yes"/>
      <point x="236" y="41"/>
      <point x="240" y="-27"/>
      <point x="289" y="-30" type="curve" smooth="yes"/>
      <point x="400" y="-36" type="line" smooth="yes"/>
      <point x="400" y="-36"/>
      <point x="401" y="-36"/>
    </contour>
    <contour>
      <point x="418" y="570" type="line" smooth="yes"/>
      <point x="429" y="573"/>
      <point x="440" y="585"/>
      <point x="444" y="595" type="curve" smooth="yes"/>
      <point x="472" y="677" type="line" smooth="yes"/>
      <point x="480" y="699"/>
      <point x="467" y="723"/>
      <point x="444" y="729" type="curve" smooth="yes"/>
      <point x="368" y="748" type="line"/>
      <point x="553" y="764" type="line"/>
      <point x="844" y="764" type="line"/>
      <point x="848" y="755" type="line" smooth="yes"/>
      <point x="849" y="750"/>
      <point x="854" y="743"/>
      <point x="858" y="740" type="curve" smooth="yes"/>
      <point x="895" y="704" type="line"/>
      <point x="735" y="643" type="line" smooth="yes"/>
      <point x="698" y="630"/>
      <point x="697" y="584"/>
      <point x="734" y="569" type="curve" smooth="yes"/>
      <point x="939" y="483" type="line"/>
      <point x="717" y="451" type="line"/>
      <point x="647" y="444" type="line"/>
      <point x="314" y="444" type="line"/>
      <point x="199" y="499" type="line"/>
    </contour>
    <contour>
      <point x="601" y="93" type="curve" smooth="yes"/>
      <point x="456" y="198" type="line"/>
      <point x="581" y="269" type="line" smooth="yes"/>
      <point x="613" y="287"/>
      <point x="610" y="327"/>
      <point x="576" y="341" type="curve" smooth="yes"/>
      <point x="516" y="364" type="line"/>
      <point x="619" y="364" type="line"/>
      <point x="1039" y="331" type="line"/>
      <point x="1041" y="312" type="line"/>
      <point x="873" y="241" type="line" smooth="yes"/>
      <point x="868" y="238"/>
      <point x="860" y="232"/>
      <point x="856" y="227" type="curve" smooth="yes"/>
      <point x="757" y="85" type="line" smooth="yes"/>
      <point x="749" y="74"/>
      <point x="748" y="56"/>
      <point x="754" y="44" type="curve"/>
      <point x="616" y="44" type="line"/>
      <point x="623" y="60"/>
      <point x="619" y="80"/>
    </contour>
  </outline>
</glyph>
<glyph name="C" format="1">
  <advance width="1142"/>
  <unicode hex="0043"/>
  <outline>
    <contour>
      <point x="538" y="-42" type="line" smooth="yes"/>
      <point x="540" y="-42"/>
      <point x="542" y="-42"/>
      <point x="544" y="-42" type="curve" smooth="yes"/>
      <point x="590" y="-35" type="line" smooth="yes"/>
      <point x="591" y="-34"/>
      <point x="593" y="-34"/>
      <point x="594" y="-34" type="curve" smooth="yes"/>
      <point x="801" y="18" type="line" smooth="yes"/>
      <point x="820" y="22"/>
      <point x="833" y="42"/>
      <point x="831" y="62" type="curve" smooth="yes"/>
      <point x="812" y="203" type="line" smooth="yes"/>
      <point x="809" y="225"/>
      <point x="788" y="241"/>
      <point x="767" y="238" type="curve" smooth="yes"/>
      <point x="745" y="235"/>
      <point x="729" y="214"/>
      <point x="732" y="193" type="curve" smooth="yes"/>
      <point x="747" y="87" type="line"/>
      <point x="577" y="44" type="line"/>
      <point x="535" y="38" type="line"/>
      <point x="393" y="38" type="line"/>
      <point x="379" y="42" type="line"/>
      <point x="309" y="64" type="line"/>
      <point x="485" y="161" type="line" smooth="yes"/>
      <point x="519" y="180"/>
      <point x="514" y="223"/>
      <point x="477" y="234" type="curve" smooth="yes"/>
      <point x="183" y="320" type="line"/>
      <point x="222" y="376" type="line" smooth="yes"/>
      <point x="230" y="389"/>
      <point x="231" y="409"/>
      <point x="222" y="421" type="curve" smooth="yes"/>
      <point x="185" y="478" type="line"/>
      <point x="454" y="564" type="line" smooth="yes"/>
      <point x="496" y="577"/>
      <point x="494" y="631"/>
      <point x="451" y="641" type="curve" smooth="yes"/>
      <point x="283" y="680" type="line"/>
      <point x="505" y="723" type="line" smooth="yes"/>
      <point x="512" y="725"/>
      <point x="521" y="730"/>
      <point x="526" y="734" type="curve" smooth="yes"/>
      <point x="546" y="755" type="line"/>
      <point x="711" y="724" type="line"/>
      <point x="878" y="646" type="line"/>
      <point x="1034" y="563" type="line" smooth="yes"/>
      <point x="1053" y="553"/>
      <point x="1078" y="560"/>
      <point x="1088" y="579" type="curve" smooth="yes"/>
      <point x="1098" y="598"/>
      <point x="1091" y="623"/>
      <point x="1072" y="633" type="curve" smooth="yes"/>
      <point x="915" y="717" type="line"/>
      <point x="740" y="798" type="line" smooth="yes"/>
      <point x="738" y="799"/>
      <point x="733" y="801"/>
      <point x="731" y="801" type="curve" smooth="yes"/>
      <point x="540" y="837" type="line" smooth="yes"/>
      <point x="529" y="839"/>
      <point x="513" y="835"/>
      <point x="505" y="826" type="curve" smooth="yes"/>
      <point x="478" y="800" type="line"/>
      <point x="85" y="723" type="line" smooth="yes"/>
      <point x="40" y="714"/>
      <point x="38" y="655"/>
      <point x="83" y="645" type="curve" smooth="yes"/>
      <point x="291" y="596" type="line"/>
      <point x="110" y="539" type="line" smooth="yes"/>
      <point x="83" y="530"/>
      <point x="73" y="502"/>
      <point x="89" y="478" type="curve" smooth="yes"/>
      <point x="141" y="399" type="line"/>
      <point x="86" y="320" type="line" smooth="yes"/>
      <point x="70" y="296"/>
      <point x="80" y="267"/>
      <point x="108" y="259" type="curve" smooth="yes"/>
      <point x="362" y="185" type="line"/>
      <point x="189" y="90" type="line" smooth="yes"/>
      <point x="155" y="71"/>
      <point x="160" y="28"/>
      <point x="196" y="16" type="curve" smooth="yes"/>
      <point x="355" y="-34" type="line"/>
      <point x="375" y="-40" type="line" smooth="yes"/>
      <point x="378" y="-41"/>
      <point x="384" y="-42"/>
      <point x="387" y="-42" type="curve" smooth="yes"/>
    </contour>
  </outline>
</glyph>
<glyph name="D" format="1">
  <advance width="1232"/>
  <unicode hex="0044"/>
  <outline>
    <contour>
      <point x="651" y="-41" type="line"/>
      <point x="651" y="-40" type="line"/>
      <point x="948" y="-34" type="line" smooth="yes"/>
      <point x="951" y="-34"/>
      <point x="956" y="-33"/>
      <point x="959" y="-32" type="curve" smooth="yes"/>
      <point x="1133" y="19" type="line" smooth="yes"/>
      <point x="1147" y="23"/>
      <point x="1160" y="38"/>
      <point x="1162" y="52" type="curve" smooth="yes"/>
      <point x="1182" y="193" type="line" smooth="yes"/>
      <point x="1184" y="211"/>
      <point x="1172" y="231"/>
      <point x="1155" y="237" type="curve" smooth="yes"/>
      <point x="868" y="335" type="line"/>
      <point x="747" y="410" type="line"/>
      <point x="796" y="475" type="line" smooth="yes"/>
      <point x="809" y="492"/>
      <point x="805" y="518"/>
      <point x="788" y="531" type="curve" smooth="yes"/>
      <point x="771" y="544"/>
      <point x="745" y="540"/>
      <point x="732" y="523" type="curve" smooth="yes"/>
      <point x="656" y="423" type="line" smooth="yes"/>
      <point x="641" y="404"/>
      <point x="646" y="378"/>
      <point x="667" y="365" type="curve" smooth="yes"/>
      <point x="830" y="265" type="line" smooth="yes"/>
      <point x="832" y="264"/>
      <point x="836" y="262"/>
      <point x="838" y="261" type="curve" smooth="yes"/>
      <point x="1098" y="172" type="line"/>
      <point x="1086" y="88" type="line"/>
      <point x="941" y="46" type="line"/>
      <point x="626" y="39" type="line"/>
      <point x="552" y="39" type="line"/>
      <point x="592" y="66" type="line" smooth="yes"/>
      <point x="624" y="87"/>
      <point x="616" y="130"/>
      <point x="578" y="138" type="curve" smooth="yes"/>
      <point x="221" y="213" type="line"/>
      <point x="332" y="262" type="line" smooth="yes"/>
      <point x="367" y="278"/>
      <point x="367" y="320"/>
      <point x="333" y="335" type="curve" smooth="yes"/>
      <point x="154" y="416" type="line"/>
      <point x="190" y="473" type="line"/>
      <point x="302" y="569" type="line" smooth="yes"/>
      <point x="314" y="579"/>
      <point x="319" y="600"/>
      <point x="313" y="615" type="curve" smooth="yes"/>
      <point x="274" y="704" type="line"/>
      <point x="283" y="759" type="line"/>
      <point x="716" y="759" type="line"/>
      <point x="800" y="727" type="line"/>
      <point x="854" y="687" type="line"/>
      <point x="757" y="634" type="line" smooth="yes"/>
      <point x="738" y="624"/>
      <point x="731" y="599"/>
      <point x="741" y="580" type="curve" smooth="yes"/>
      <point x="751" y="561"/>
      <point x="776" y="554"/>
      <point x="795" y="564" type="curve" smooth="yes"/>
      <point x="948" y="647" type="line" smooth="yes"/>
      <point x="975" y="662"/>
      <point x="978" y="696"/>
      <point x="952" y="715" type="curve" smooth="yes"/>
      <point x="843" y="795" type="line" smooth="yes"/>
      <point x="840" y="797"/>
      <point x="836" y="799"/>
      <point x="833" y="800" type="curve" smooth="yes"/>
      <point x="737" y="836" type="line" smooth="yes"/>
      <point x="733" y="838"/>
      <point x="727" y="839"/>
      <point x="723" y="839" type="curve" smooth="yes"/>
      <point x="206" y="839" type="line"/>
      <point x="206" y="780" type="line"/>
      <point x="193" y="706" type="line" smooth="yes"/>
      <point x="191" y="699"/>
      <point x="193" y="689"/>
      <point x="195" y="683" type="curve" smooth="yes"/>
      <point x="227" y="610" type="line"/>
      <point x="133" y="529" type="line" smooth="yes"/>
      <point x="130" y="527"/>
      <point x="127" y="523"/>
      <point x="125" y="520" type="curve" smooth="yes"/>
      <point x="62" y="420" type="line" smooth="yes"/>
      <point x="49" y="399"/>
      <point x="57" y="373"/>
      <point x="79" y="363" type="curve" smooth="yes"/>
      <point x="219" y="299" type="line"/>
      <point x="76" y="236" type="line" smooth="yes"/>
      <point x="37" y="218"/>
      <point x="43" y="168"/>
      <point x="84" y="160" type="curve" smooth="yes"/>
      <point x="469" y="79" type="line"/>
      <point x="409" y="39" type="line"/>
      <point x="400" y="39" type="line"/>
      <point x="400" y="33" type="line"/>
      <point x="399" y="32" type="line"/>
      <point x="400" y="33" type="line"/>
      <point x="400" y="-41" type="line"/>
    </contour>
  </outline>
</glyph>
<glyph name="E" format="1">
  <advance width="1059"/>
  <unicode hex="0045"/>
  <outline>
    <contour>
      <point x="306" y="-40" type="curve" smooth="yes"/>
      <point x="743" y="-40" type="line" smooth="yes"/>
      <point x="749" y="-40"/>
      <point x="756" y="-38"/>
      <point x="761" y="-35" type="curve"/>
      <point x="761" y="-35"/>
      <point x="762" y="-35"/>
      <point x="762" y="-35" type="curve"/>
      <point x="762" y="-35"/>
      <point x="763" y="-35"/>
      <point x="763" y="-34" type="curve"/>
      <point x="769" y="-31"/>
      <point x="774" y="-27"/>
      <point x="777" y="-21" type="curve" smooth="yes"/>
      <point x="799" y="14" type="line" smooth="yes"/>
      <point x="809" y="31"/>
      <point x="805" y="54"/>
      <point x="790" y="66" type="curve" smooth="yes"/>
      <point x="754" y="96" type="line"/>
      <point x="980" y="157" type="line" smooth="yes"/>
      <point x="1000" y="163"/>
      <point x="1013" y="186"/>
      <point x="1008" y="207" type="curve" smooth="yes"/>
      <point x="1002" y="227"/>
      <point x="979" y="240"/>
      <point x="958" y="235" type="curve" smooth="yes"/>
      <point x="659" y="153" type="line" smooth="yes"/>
      <point x="625" y="143"/>
      <point x="617" y="106"/>
      <point x="644" y="83" type="curve" smooth="yes"/>
      <point x="696" y="40" type="line"/>
      <point x="337" y="40" type="line"/>
      <point x="331" y="64" type="line"/>
      <point x="311" y="204" type="line" smooth="yes"/>
      <point x="309" y="213"/>
      <point x="302" y="225"/>
      <point x="294" y="231" type="curve" smooth="yes"/>
      <point x="201" y="297" type="line"/>
      <point x="609" y="342" type="line" smooth="yes"/>
      <point x="619" y="343"/>
      <point x="631" y="350"/>
      <point x="637" y="359" type="curve"/>
      <point x="903" y="360" type="line" smooth="yes"/>
      <point x="956" y="360"/>
      <point x="956" y="440"/>
      <point x="903" y="440" type="curve" smooth="yes"/>
      <point x="559" y="441" type="line"/>
      <point x="570" y="449"/>
      <point x="576" y="463"/>
      <point x="574" y="477" type="curve" smooth="yes"/>
      <point x="558" y="603" type="line" smooth="yes"/>
      <point x="556" y="618"/>
      <point x="542" y="633"/>
      <point x="527" y="637" type="curve" smooth="yes"/>
      <point x="320" y="687" type="line"/>
      <point x="443" y="725" type="line" smooth="yes"/>
      <point x="462" y="731"/>
      <point x="472" y="745"/>
      <point x="474" y="760" type="curve"/>
      <point x="622" y="760" type="line"/>
      <point x="672" y="715" type="line"/>
      <point x="814" y="574" type="line" smooth="yes"/>
      <point x="829" y="558"/>
      <point x="855" y="558"/>
      <point x="870" y="574" type="curve" smooth="yes"/>
      <point x="886" y="589"/>
      <point x="886" y="615"/>
      <point x="870" y="630" type="curve" smooth="yes"/>
      <point x="740" y="760" type="line"/>
      <point x="800" y="760" type="line"/>
      <point x="800" y="840" type="line"/>
      <point x="321" y="840" type="line" smooth="yes"/>
      <point x="276" y="840"/>
      <point x="264" y="783"/>
      <point x="302" y="765" type="curve"/>
      <point x="158" y="720" type="line" smooth="yes"/>
      <point x="117" y="707"/>
      <point x="118" y="653"/>
      <point x="161" y="643" type="curve" smooth="yes"/>
      <point x="482" y="566" type="line"/>
      <point x="490" y="503" type="line"/>
      <point x="265" y="455" type="line" smooth="yes"/>
      <point x="263" y="455"/>
      <point x="260" y="454"/>
      <point x="258" y="453" type="curve" smooth="yes"/>
      <point x="224" y="439" type="line" smooth="yes"/>
      <point x="195" y="427"/>
      <point x="191" y="396"/>
      <point x="205" y="378" type="curve"/>
      <point x="88" y="364" type="line" smooth="yes"/>
      <point x="48" y="360"/>
      <point x="36" y="315"/>
      <point x="69" y="292" type="curve" smooth="yes"/>
      <point x="234" y="175" type="line"/>
      <point x="252" y="51" type="line" smooth="yes"/>
      <point x="253" y="50"/>
      <point x="253" y="48"/>
      <point x="253" y="47" type="curve" smooth="yes"/>
      <point x="267" y="-10" type="line" smooth="yes"/>
      <point x="271" y="-26"/>
      <point x="289" y="-40"/>
    </contour>
  </outline>
</glyph>
<glyph name="F" format="1">
  <advance width="828"/>
  <unicode hex="0046"/>
  <outline>
    <contour>
      <point x="227" y="-32" type="curve" smooth="yes"/>
      <point x="244" y="-19"/>
      <point x="248" y="7"/>
      <point x="235" y="24" type="curve" smooth="yes"/>
      <point x="194" y="77" type="line"/>
      <point x="470" y="160" type="line" smooth="yes"/>
      <point x="510" y="171"/>
      <point x="512" y="219"/>
      <point x="474" y="235" type="curve" smooth="yes"/>
      <point x="207" y="347" type="line"/>
      <point x="346" y="357" type="line"/>
      <point x="477" y="359" type="line"/>
      <point x="615" y="360" type="line" smooth="yes"/>
      <point x="624" y="360"/>
      <point x="637" y="365"/>
      <point x="643" y="372" type="curve" smooth="yes"/>
      <point x="646" y="375" type="line" smooth="yes"/>
      <point x="673" y="401"/>
      <point x="658" y="441"/>
      <point x="620" y="443" type="curve" smooth="yes"/>
      <point x="401" y="457" type="line"/>
      <point x="299" y="507" type="line"/>
      <point x="193" y="579" type="line"/>
      <point x="490" y="642" type="line" smooth="yes"/>
      <point x="531" y="651"/>
      <point x="536" y="702"/>
      <point x="496" y="719" type="curve" smooth="yes"/>
      <point x="429" y="746" type="line"/>
      <point x="517" y="760" type="line"/>
      <point x="627" y="760" type="line"/>
      <point x="641" y="728" type="line"/>
      <point x="701" y="586" type="line" smooth="yes"/>
      <point x="710" y="567"/>
      <point x="734" y="557"/>
      <point x="754" y="565" type="curve" smooth="yes"/>
      <point x="773" y="574"/>
      <point x="783" y="598"/>
      <point x="775" y="618" type="curve" smooth="yes"/>
      <point x="715" y="759" type="line"/>
      <point x="690" y="816" type="line" smooth="yes"/>
      <point x="684" y="829"/>
      <point x="667" y="840"/>
      <point x="653" y="840" type="curve" smooth="yes"/>
      <point x="514" y="840" type="line" smooth="yes"/>
      <point x="512" y="840"/>
      <point x="509" y="840"/>
      <point x="508" y="840" type="curve" smooth="yes"/>
      <point x="275" y="803" type="line" smooth="yes"/>
      <point x="232" y="796"/>
      <point x="226" y="743"/>
      <point x="266" y="726" type="curve" smooth="yes"/>
      <point x="346" y="693" type="line"/>
      <point x="84" y="637" type="line" smooth="yes"/>
      <point x="46" y="629"/>
      <point x="38" y="586"/>
      <point x="70" y="565" type="curve" smooth="yes"/>
      <point x="257" y="439" type="line" smooth="yes"/>
      <point x="258" y="439"/>
      <point x="260" y="437"/>
      <point x="261" y="437" type="curve" smooth="yes"/>
      <point x="271" y="432" type="line"/>
      <point x="124" y="421" type="line" smooth="yes"/>
      <point x="93" y="419"/>
      <point x="77" y="389"/>
      <point x="92" y="362" type="curve" smooth="yes"/>
      <point x="124" y="304" type="line" smooth="yes"/>
      <point x="127" y="298"/>
      <point x="136" y="290"/>
      <point x="143" y="287" type="curve" smooth="yes"/>
      <point x="340" y="204" type="line"/>
      <point x="116" y="137" type="line" smooth="yes"/>
      <point x="87" y="129"/>
      <point x="78" y="99"/>
      <point x="96" y="75" type="curve" smooth="yes"/>
      <point x="171" y="-24" type="line" smooth="yes"/>
      <point x="184" y="-41"/>
      <point x="210" y="-45"/>
    </contour>
  </outline>
</glyph>
<glyph name="G" format="1">
  <advance width="1189"/>
  <unicode hex="0047"/>
  <outline>
    <contour>
      <point x="834" y="-36" type="line"/>
      <point x="834" y="44" type="line"/>
      <point x="796" y="44" type="line"/>
      <point x="921" y="82" type="line" smooth="yes"/>
      <point x="922" y="83"/>
      <point x="924" y="83"/>
      <point x="925" y="84" type="curve" smooth="yes"/>
      <point x="1113" y="167" type="line" smooth="yes"/>
      <point x="1151" y="184"/>
      <point x="1147" y="233"/>
      <point x="1107" y="243" type="curve" smooth="yes"/>
      <point x="863" y="304" type="line"/>
      <point x="1108" y="365" type="line" smooth="yes"/>
      <point x="1155" y="377"/>
      <point x="1147" y="444"/>
      <point x="1098" y="444" type="curve" smooth="yes"/>
      <point x="861" y="444" type="line"/>
      <point x="553" y="466" type="line"/>
      <point x="559" y="496" type="line" smooth="yes"/>
      <point x="562" y="508"/>
      <point x="557" y="524"/>
      <point x="549" y="532" type="curve" smooth="yes"/>
      <point x="463" y="619" type="line"/>
      <point x="466" y="668" type="line"/>
      <point x="542" y="736" type="line"/>
      <point x="562" y="751" type="line"/>
      <point x="566" y="742"/>
      <point x="575" y="734"/>
      <point x="587" y="730" type="curve" smooth="yes"/>
      <point x="815" y="650" type="line"/>
      <point x="982" y="568" type="line" smooth="yes"/>
      <point x="1002" y="559"/>
      <point x="1026" y="567"/>
      <point x="1036" y="586" type="curve" smooth="yes"/>
      <point x="1045" y="606"/>
      <point x="1037" y="630"/>
      <point x="1018" y="640" type="curve" smooth="yes"/>
      <point x="848" y="723" type="line" smooth="yes"/>
      <point x="847" y="724"/>
      <point x="845" y="725"/>
      <point x="844" y="725" type="curve" smooth="yes"/>
      <point x="692" y="778" type="line"/>
      <point x="715" y="803"/>
      <point x="700" y="844"/>
      <point x="661" y="844" type="curve" smooth="yes"/>
      <point x="565" y="844" type="line" smooth="yes"/>
      <point x="558" y="844"/>
      <point x="547" y="840"/>
      <point x="541" y="836" type="curve" smooth="yes"/>
      <point x="493" y="800" type="line"/>
      <point x="401" y="717" type="line" smooth="yes"/>
      <point x="394" y="711"/>
      <point x="388" y="699"/>
      <point x="387" y="689" type="curve" smooth="yes"/>
      <point x="382" y="607" type="line" smooth="yes"/>
      <point x="382" y="604"/>
      <point x="382" y="602"/>
      <point x="382" y="600" type="curve"/>
      <point x="339" y="635" type="line" smooth="yes"/>
      <point x="323" y="649"/>
      <point x="297" y="646"/>
      <point x="283" y="629" type="curve" smooth="yes"/>
      <point x="269" y="613"/>
      <point x="272" y="587"/>
      <point x="289" y="573" type="curve" smooth="yes"/>
      <point x="361" y="514" type="line"/>
      <point x="323" y="464" type="line" smooth="yes"/>
      <point x="303" y="437"/>
      <point x="318" y="403"/>
      <point x="353" y="400" type="curve" smooth="yes"/>
      <point x="403" y="397" type="line"/>
      <point x="300" y="340" type="line"/>
      <point x="76" y="241" type="line" smooth="yes"/>
      <point x="44" y="226"/>
      <point x="41" y="188"/>
      <point x="71" y="170" type="curve" smooth="yes"/>
      <point x="207" y="87" type="line" smooth="yes"/>
      <point x="209" y="85"/>
      <point x="212" y="84"/>
      <point x="214" y="83" type="curve" smooth="yes"/>
      <point x="338" y="40" type="line"/>
      <point x="299" y="22"/>
      <point x="310" y="-36"/>
      <point x="356" y="-36" type="curve" smooth="yes"/>
    </contour>
    <contour>
      <point x="448" y="497" type="line" smooth="yes"/>
      <point x="452" y="501"/>
      <point x="454" y="507"/>
      <point x="455" y="513" type="curve"/>
      <point x="477" y="491" type="line"/>
      <point x="473" y="472" type="line"/>
      <point x="432" y="475" type="line"/>
    </contour>
    <contour>
      <point x="474" y="78" type="curve" smooth="yes"/>
      <point x="245" y="157" type="line"/>
      <point x="178" y="198" type="line"/>
      <point x="334" y="267" type="line" smooth="yes"/>
      <point x="335" y="268"/>
      <point x="336" y="268"/>
      <point x="337" y="269" type="curve" smooth="yes"/>
      <point x="519" y="369" type="line" smooth="yes"/>
      <point x="526" y="372"/>
      <point x="532" y="380"/>
      <point x="536" y="387" type="curve"/>
      <point x="731" y="373" type="line"/>
      <point x="731" y="364" type="line"/>
      <point x="774" y="364" type="line"/>
      <point x="689" y="343" type="line" smooth="yes"/>
      <point x="646" y="332"/>
      <point x="646" y="276"/>
      <point x="689" y="265" type="curve" smooth="yes"/>
      <point x="975" y="194" type="line"/>
      <point x="895" y="158" type="line"/>
      <point x="635" y="78" type="line" smooth="yes"/>
      <point x="616" y="73"/>
      <point x="606" y="59"/>
      <point x="605" y="44" type="curve"/>
      <point x="503" y="44" type="line"/>
      <point x="501" y="58"/>
      <point x="492" y="72"/>
    </contour>
  </outline>
</glyph>
<glyph name="H" format="1">
  <advance width="1207"/>
  <unicode hex="0048"/>
  <outline>
    <contour>
      <point x="834" y="676" type="line"/>
      <point x="709" y="714" type="line"/>
      <point x="752" y="752" type="line"/>
      <point x="945" y="700" type="line"/>
    </contour>
    <contour>
      <point x="559" y="-7" type="curve" smooth="yes"/>
      <point x="566" y="93" type="line" smooth="yes"/>
      <point x="567" y="104"/>
      <point x="561" y="118"/>
      <point x="553" y="126" type="curve" smooth="yes"/>
      <point x="475" y="197" type="line"/>
      <point x="475" y="210"/>
      <point x="467" y="223"/>
      <point x="453" y="231" type="curve" smooth="yes"/>
      <point x="445" y="235" type="line"/>
      <point x="436" y="259" type="line"/>
      <point x="568" y="325" type="line"/>
      <point x="630" y="360" type="line"/>
      <point x="720" y="395" type="line" smooth="yes"/>
      <point x="738" y="402"/>
      <point x="749" y="423"/>
      <point x="744" y="442" type="curve" smooth="yes"/>
      <point x="732" y="485" type="line"/>
      <point x="826" y="513" type="line"/>
      <point x="994" y="474" type="line"/>
      <point x="949" y="430" type="line"/>
      <point x="721" y="333" type="line" smooth="yes"/>
      <point x="686" y="318"/>
      <point x="686" y="273"/>
      <point x="722" y="259" type="curve" smooth="yes"/>
      <point x="910" y="184" type="line"/>
      <point x="844" y="130" type="line"/>
      <point x="636" y="32" type="line" smooth="yes"/>
      <point x="616" y="23"/>
      <point x="608" y="-1"/>
      <point x="617" y="-21" type="curve" smooth="yes"/>
      <point x="626" y="-41"/>
      <point x="650" y="-49"/>
      <point x="670" y="-40" type="curve" smooth="yes"/>
      <point x="883" y="60" type="line" smooth="yes"/>
      <point x="886" y="61"/>
      <point x="889" y="63"/>
      <point x="891" y="65" type="curve" smooth="yes"/>
      <point x="1012" y="165" type="line" smooth="yes"/>
      <point x="1038" y="186"/>
      <point x="1032" y="221"/>
      <point x="1002" y="233" type="curve" smooth="yes"/>
      <point x="842" y="297" type="line"/>
      <point x="987" y="359" type="line" smooth="yes"/>
      <point x="990" y="361"/>
      <point x="996" y="364"/>
      <point x="999" y="367" type="curve" smooth="yes"/>
      <point x="1103" y="467" type="line" smooth="yes"/>
      <point x="1128" y="491"/>
      <point x="1118" y="527"/>
      <point x="1084" y="535" type="curve" smooth="yes"/>
      <point x="980" y="560" type="line"/>
      <point x="1010" y="568"/>
      <point x="1015" y="609"/>
      <point x="988" y="628" type="curve"/>
      <point x="1123" y="657" type="line" smooth="yes"/>
      <point x="1167" y="666"/>
      <point x="1169" y="723"/>
      <point x="1125" y="735" type="curve" smooth="yes"/>
      <point x="752" y="835" type="line" smooth="yes"/>
      <point x="741" y="838"/>
      <point x="724" y="834"/>
      <point x="716" y="826" type="curve" smooth="yes"/>
      <point x="602" y="726" type="line" smooth="yes"/>
      <point x="576" y="703"/>
      <point x="584" y="667"/>
      <point x="617" y="658" type="curve" smooth="yes"/>
      <point x="671" y="641" type="line"/>
      <point x="642" y="635" type="line" smooth="yes"/>
      <point x="597" y="626"/>
      <point x="597" y="567"/>
      <point x="641" y="557" type="curve" smooth="yes"/>
      <point x="670" y="550" type="line"/>
      <point x="651" y="545"/>
      <point x="639" y="523"/>
      <point x="645" y="502" type="curve" smooth="yes"/>
      <point x="657" y="456" type="line"/>
      <point x="598" y="433" type="line" smooth="yes"/>
      <point x="597" y="433"/>
      <point x="595" y="432"/>
      <point x="593" y="431" type="curve" smooth="yes"/>
      <point x="529" y="395" type="line"/>
      <point x="369" y="315" type="line" smooth="yes"/>
      <point x="359" y="310"/>
      <point x="352" y="300"/>
      <point x="349" y="289" type="curve"/>
      <point x="276" y="331" type="line"/>
      <point x="186" y="386" type="line"/>
      <point x="401" y="458" type="line" smooth="yes"/>
      <point x="425" y="466"/>
      <point x="436" y="493"/>
      <point x="423" y="515" type="curve" smooth="yes"/>
      <point x="368" y="615" type="line" smooth="yes"/>
      <point x="368" y="616"/>
      <point x="367" y="617"/>
      <point x="366" y="618" type="curve" smooth="yes"/>
      <point x="324" y="681" type="line"/>
      <point x="475" y="761" type="line" smooth="yes"/>
      <point x="494" y="771"/>
      <point x="501" y="796"/>
      <point x="491" y="815" type="curve" smooth="yes"/>
      <point x="481" y="834"/>
      <point x="456" y="841"/>
      <point x="437" y="831" type="curve" smooth="yes"/>
      <point x="247" y="731" type="line" smooth="yes"/>
      <point x="226" y="720"/>
      <point x="219" y="694"/>
      <point x="233" y="674" type="curve" smooth="yes"/>
      <point x="299" y="575" type="line"/>
      <point x="330" y="519" type="line"/>
      <point x="79" y="434" type="line" smooth="yes"/>
      <point x="44" y="422"/>
      <point x="40" y="381"/>
      <point x="71" y="362" type="curve" smooth="yes"/>
      <point x="236" y="261" type="line"/>
      <point x="341" y="202" type="line"/>
      <point x="168" y="133" type="line" smooth="yes"/>
      <point x="130" y="118"/>
      <point x="132" y="69"/>
      <point x="172" y="58" type="curve" smooth="yes"/>
      <point x="508" y="-42" type="line" smooth="yes"/>
      <point x="533" y="-50"/>
      <point x="557" y="-34"/>
    </contour>
    <contour>
      <point x="483" y="49" type="line"/>
      <point x="305" y="102" type="line"/>
      <point x="413" y="145" type="line"/>
      <point x="485" y="79" type="line"/>
    </contour>
  </outline>
</glyph>
<glyph name="I" format="1">
  <advance width="915"/>
  <unicode hex="0049"/>
  <outline>
    <contour>
      <point x="90" y="-41" type="curve" smooth="yes"/>
      <point x="541" y="-41" type="line" smooth="yes"/>
      <point x="553" y="-41"/>
      <point x="563" y="-37"/>
      <point x="570" y="-30" type="curve"/>
      <point x="732" y="-26" type="line" smooth="yes"/>
      <point x="779" y="-25"/>
      <point x="788" y="36"/>
      <point x="744" y="52" type="curve" smooth="yes"/>
      <point x="616" y="97" type="line"/>
      <point x="393" y="203" type="line"/>
      <point x="487" y="265" type="line" smooth="yes"/>
      <point x="511" y="281"/>
      <point x="513" y="312"/>
      <point x="490" y="330" type="curve" smooth="yes"/>
      <point x="375" y="422" type="line"/>
      <point x="360" y="475" type="line"/>
      <point x="594" y="563" type="line" smooth="yes"/>
      <point x="628" y="575"/>
      <point x="632" y="615"/>
      <point x="601" y="634" type="curve" smooth="yes"/>
      <point x="395" y="759" type="line"/>
      <point x="825" y="759" type="line" smooth="yes"/>
      <point x="847" y="759"/>
      <point x="865" y="777"/>
      <point x="865" y="799" type="curve" smooth="yes"/>
      <point x="865" y="821"/>
      <point x="847" y="839"/>
      <point x="825" y="839" type="curve" smooth="yes"/>
      <point x="287" y="839" type="line" smooth="yes"/>
      <point x="282" y="839"/>
      <point x="275" y="837"/>
      <point x="270" y="835" type="curve" smooth="yes"/>
      <point x="255" y="828" type="line" smooth="yes"/>
      <point x="224" y="814"/>
      <point x="222" y="778"/>
      <point x="250" y="759" type="curve" smooth="yes"/>
      <point x="330" y="705" type="line"/>
      <point x="489" y="609" type="line"/>
      <point x="298" y="537" type="line" smooth="yes"/>
      <point x="279" y="530"/>
      <point x="268" y="508"/>
      <point x="273" y="489" type="curve" smooth="yes"/>
      <point x="301" y="388" type="line" smooth="yes"/>
      <point x="303" y="381"/>
      <point x="309" y="372"/>
      <point x="315" y="368" type="curve" smooth="yes"/>
      <point x="397" y="302" type="line"/>
      <point x="290" y="231" type="line" smooth="yes"/>
      <point x="262" y="213"/>
      <point x="264" y="177"/>
      <point x="295" y="162" type="curve" smooth="yes"/>
      <point x="530" y="49" type="line"/>
      <point x="443" y="47" type="line" smooth="yes"/>
      <point x="433" y="47"/>
      <point x="425" y="44"/>
      <point x="419" y="39" type="curve"/>
      <point x="90" y="39" type="line" smooth="yes"/>
      <point x="68" y="39"/>
      <point x="50" y="21"/>
      <point x="50" y="-1" type="curve" smooth="yes"/>
      <point x="50" y="-23"/>
      <point x="68" y="-41"/>
    </contour>
  </outline>
</glyph>
<glyph name="J" format="1">
  <advance width="1067"/>
  <unicode hex="004A"/>
  <outline>
    <contour>
      <point x="90" y="-41" type="curve" smooth="yes"/>
      <point x="315" y="-41" type="line" smooth="yes"/>
      <point x="317" y="-41"/>
      <point x="319" y="-41"/>
      <point x="321" y="-41" type="curve" smooth="yes"/>
      <point x="564" y="-5" type="line" smooth="yes"/>
      <point x="606" y="1"/>
      <point x="614" y="51"/>
      <point x="577" y="70" type="curve" smooth="yes"/>
      <point x="431" y="147" type="line"/>
      <point x="403" y="177" type="line"/>
      <point x="687" y="260" type="line" smooth="yes"/>
      <point x="711" y="267"/>
      <point x="723" y="291"/>
      <point x="713" y="314" type="curve" smooth="yes"/>
      <point x="677" y="398" type="line"/>
      <point x="717" y="482" type="line" smooth="yes"/>
      <point x="728" y="505"/>
      <point x="717" y="530"/>
      <point x="694" y="537" type="curve" smooth="yes"/>
      <point x="474" y="611" type="line"/>
      <point x="620" y="706" type="line" smooth="yes"/>
      <point x="640" y="718"/>
      <point x="645" y="741"/>
      <point x="634" y="759" type="curve"/>
      <point x="977" y="759" type="line" smooth="yes"/>
      <point x="999" y="759"/>
      <point x="1017" y="777"/>
      <point x="1017" y="799" type="curve" smooth="yes"/>
      <point x="1017" y="821"/>
      <point x="999" y="839"/>
      <point x="977" y="839" type="curve" smooth="yes"/>
      <point x="266" y="839" type="line" smooth="yes"/>
      <point x="264" y="839"/>
      <point x="261" y="839"/>
      <point x="259" y="838" type="curve" smooth="yes"/>
      <point x="224" y="832" type="line" smooth="yes"/>
      <point x="175" y="824"/>
      <point x="180" y="754"/>
      <point x="230" y="753" type="curve" smooth="yes"/>
      <point x="532" y="747" type="line"/>
      <point x="534" y="745" type="line"/>
      <point x="360" y="634" type="line" smooth="yes"/>
      <point x="330" y="614"/>
      <point x="335" y="574"/>
      <point x="369" y="562" type="curve" smooth="yes"/>
      <point x="625" y="476" type="line"/>
      <point x="597" y="416" type="line" smooth="yes"/>
      <point x="593" y="407"/>
      <point x="592" y="392"/>
      <point x="596" y="383" type="curve" smooth="yes"/>
      <point x="621" y="324" type="line"/>
      <point x="320" y="236" type="line" smooth="yes"/>
      <point x="289" y="227"/>
      <point x="280" y="195"/>
      <point x="301" y="171" type="curve" smooth="yes"/>
      <point x="376" y="88" type="line" smooth="yes"/>
      <point x="379" y="85"/>
      <point x="384" y="81"/>
      <point x="387" y="79" type="curve" smooth="yes"/>
      <point x="431" y="57" type="line"/>
      <point x="312" y="39" type="line"/>
      <point x="90" y="39" type="line" smooth="yes"/>
      <point x="68" y="39"/>
      <point x="50" y="21"/>
      <point x="50" y="-1" type="curve" smooth="yes"/>
      <point x="50" y="-23"/>
      <point x="68" y="-41"/>
    </contour>
  </outline>
</glyph>
<glyph name="K" format="1">
  <advance width="1092"/>
  <unicode hex="004B"/>
  <outline>
    <contour>
      <point x="246" y="-29" type="curve" smooth="yes"/>
      <point x="392" y="71" type="line" smooth="yes"/>
      <point x="421" y="91"/>
      <point x="417" y="129"/>
      <point x="383" y="142" type="curve" smooth="yes"/>
      <point x="228" y="199" type="line"/>
      <point x="400" y="249" type="line" smooth="yes"/>
      <point x="402" y="249"/>
      <point x="405" y="250"/>
      <point x="406" y="251" type="curve" smooth="yes"/>
      <point x="576" y="332" type="line" smooth="yes"/>
      <point x="579" y="333"/>
      <point x="583" y="336"/>
      <point x="585" y="338" type="curve" smooth="yes"/>
      <point x="614" y="364" type="line"/>
      <point x="765" y="364" type="line"/>
      <point x="768" y="362"/>
      <point x="771" y="361"/>
      <point x="774" y="360" type="curve" smooth="yes"/>
      <point x="851" y="334" type="line"/>
      <point x="720" y="238" type="line" smooth="yes"/>
      <point x="693" y="218"/>
      <point x="698" y="181"/>
      <point x="729" y="169" type="curve" smooth="yes"/>
      <point x="933" y="89" type="line"/>
      <point x="881" y="31" type="line" smooth="yes"/>
      <point x="867" y="14"/>
      <point x="868" y="-11"/>
      <point x="884" y="-26" type="curve" smooth="yes"/>
      <point x="901" y="-40"/>
      <point x="926" y="-39"/>
      <point x="941" y="-23" type="curve" smooth="yes"/>
      <point x="1031" y="78" type="line" smooth="yes"/>
      <point x="1051" y="101"/>
      <point x="1043" y="131"/>
      <point x="1016" y="142" type="curve" smooth="yes"/>
      <point x="826" y="217" type="line"/>
      <point x="960" y="315" type="line" smooth="yes"/>
      <point x="989" y="336"/>
      <point x="983" y="374"/>
      <point x="949" y="385" type="curve" smooth="yes"/>
      <point x="921" y="395" type="line"/>
      <point x="945" y="401" type="line" smooth="yes"/>
      <point x="974" y="409"/>
      <point x="985" y="440"/>
      <point x="966" y="464" type="curve" smooth="yes"/>
      <point x="905" y="545" type="line" smooth="yes"/>
      <point x="902" y="549"/>
      <point x="895" y="555"/>
      <point x="890" y="557" type="curve" smooth="yes"/>
      <point x="789" y="603" type="line"/>
      <point x="935" y="667" type="line" smooth="yes"/>
      <point x="968" y="682"/>
      <point x="969" y="723"/>
      <point x="937" y="740" type="curve" smooth="yes"/>
      <point x="741" y="840" type="line" smooth="yes"/>
      <point x="722" y="849"/>
      <point x="697" y="841"/>
      <point x="687" y="822" type="curve" smooth="yes"/>
      <point x="678" y="803"/>
      <point x="686" y="778"/>
      <point x="705" y="768" type="curve" smooth="yes"/>
      <point x="825" y="707" type="line"/>
      <point x="676" y="641" type="line" smooth="yes"/>
      <point x="641" y="625"/>
      <point x="641" y="583"/>
      <point x="675" y="568" type="curve" smooth="yes"/>
      <point x="847" y="488" type="line"/>
      <point x="866" y="464" type="line"/>
      <point x="792" y="444" type="line"/>
      <point x="598" y="444" type="line" smooth="yes"/>
      <point x="589" y="444"/>
      <point x="577" y="439"/>
      <point x="571" y="433" type="curve" smooth="yes"/>
      <point x="536" y="401" type="line"/>
      <point x="375" y="324" type="line"/>
      <point x="364" y="322" type="line"/>
      <point x="431" y="372" type="line" smooth="yes"/>
      <point x="449" y="385"/>
      <point x="452" y="410"/>
      <point x="439" y="428" type="curve" smooth="yes"/>
      <point x="368" y="522" type="line"/>
      <point x="340" y="615" type="line"/>
      <point x="311" y="715" type="line" smooth="yes"/>
      <point x="309" y="724"/>
      <point x="300" y="735"/>
      <point x="292" y="739" type="curve" smooth="yes"/>
      <point x="109" y="839" type="line" smooth="yes"/>
      <point x="90" y="849"/>
      <point x="65" y="842"/>
      <point x="55" y="823" type="curve" smooth="yes"/>
      <point x="45" y="804"/>
      <point x="52" y="779"/>
      <point x="71" y="769" type="curve" smooth="yes"/>
      <point x="239" y="677" type="line"/>
      <point x="264" y="593" type="line"/>
      <point x="294" y="493" type="line" smooth="yes"/>
      <point x="295" y="489"/>
      <point x="298" y="483"/>
      <point x="300" y="480" type="curve" smooth="yes"/>
      <point x="351" y="412" type="line"/>
      <point x="252" y="337" type="line"/>
      <point x="111" y="249" type="line"/>
      <point x="89" y="242" type="line" smooth="yes"/>
      <point x="49" y="231"/>
      <point x="47" y="181"/>
      <point x="86" y="166" type="curve" smooth="yes"/>
      <point x="110" y="158" type="line"/>
      <point x="203" y="88" type="line"/>
      <point x="184" y="14" type="line" smooth="yes"/>
      <point x="174" y="-25"/>
      <point x="213" y="-52"/>
    </contour>
  </outline>
</glyph>
<glyph name="L" format="1">
  <advance width="734"/>
  <unicode hex="004C"/>
  <outline>
    <contour>
      <point x="336" y="-40" type="line"/>
      <point x="644" y="-40" type="line" smooth="yes"/>
      <point x="666" y="-40"/>
      <point x="684" y="-22"/>
      <point x="684" y="0" type="curve" smooth="yes"/>
      <point x="684" y="22"/>
      <point x="666" y="40"/>
      <point x="644" y="40" type="curve" smooth="yes"/>
      <point x="489" y="40" type="line"/>
      <point x="484" y="43"/>
      <point x="478" y="46"/>
      <point x="471" y="47" type="curve" smooth="yes"/>
      <point x="229" y="80" type="line"/>
      <point x="399" y="164" type="line" smooth="yes"/>
      <point x="431" y="180"/>
      <point x="431" y="220"/>
      <point x="399" y="236" type="curve" smooth="yes"/>
      <point x="264" y="302" type="line"/>
      <point x="380" y="365" type="line" smooth="yes"/>
      <point x="388" y="369"/>
      <point x="397" y="380"/>
      <point x="399" y="389" type="curve" smooth="yes"/>
      <point x="429" y="489" type="line" smooth="yes"/>
      <point x="432" y="497"/>
      <point x="431" y="510"/>
      <point x="427" y="518" type="curve" smooth="yes"/>
      <point x="378" y="614" type="line"/>
      <point x="357" y="709" type="line" smooth="yes"/>
      <point x="355" y="720"/>
      <point x="344" y="732"/>
      <point x="334" y="737" type="curve" smooth="yes"/>
      <point x="106" y="837" type="line" smooth="yes"/>
      <point x="86" y="845"/>
      <point x="62" y="836"/>
      <point x="53" y="816" type="curve" smooth="yes"/>
      <point x="45" y="796"/>
      <point x="54" y="772"/>
      <point x="74" y="763" type="curve" smooth="yes"/>
      <point x="283" y="672" type="line"/>
      <point x="301" y="591" type="line" smooth="yes"/>
      <point x="302" y="589"/>
      <point x="303" y="584"/>
      <point x="304" y="582" type="curve" smooth="yes"/>
      <point x="348" y="496" type="line"/>
      <point x="327" y="427" type="line"/>
      <point x="158" y="335" type="line" smooth="yes"/>
      <point x="127" y="318"/>
      <point x="128" y="280"/>
      <point x="159" y="264" type="curve" smooth="yes"/>
      <point x="291" y="200" type="line"/>
      <point x="77" y="94" type="line" smooth="yes"/>
      <point x="39" y="75"/>
      <point x="47" y="25"/>
      <point x="90" y="19" type="curve" smooth="yes"/>
      <point x="336" y="-15" type="line"/>
    </contour>
  </outline>
</glyph>
<glyph name="M" format="1">
  <advance width="1170"/>
  <unicode hex="004D"/>
  <outline>
    <contour>
      <point x="366" y="759" type="line"/>
      <point x="529" y="755" type="line"/>
      <point x="445" y="669" type="line"/>
      <point x="309" y="721" type="line"/>
      <point x="326" y="759" type="line"/>
    </contour>
    <contour>
      <point x="657" y="609" type="line" smooth="yes"/>
      <point x="655" y="600"/>
      <point x="656" y="591"/>
      <point x="659" y="583" type="curve"/>
      <point x="555" y="609" type="line"/>
      <point x="554" y="614"/>
      <point x="552" y="618"/>
      <point x="550" y="621" type="curve"/>
      <point x="674" y="677" type="line"/>
    </contour>
    <contour>
      <point x="750" y="447" type="line"/>
      <point x="671" y="498" type="line"/>
      <point x="768" y="474" type="line"/>
    </contour>
    <contour>
      <point x="420" y="-32" type="curve" smooth="yes"/>
      <point x="540" y="68" type="line" smooth="yes"/>
      <point x="561" y="86"/>
      <point x="560" y="117"/>
      <point x="536" y="132" type="curve" smooth="yes"/>
      <point x="390" y="229" type="line"/>
      <point x="313" y="324" type="line" smooth="yes"/>
      <point x="310" y="328"/>
      <point x="305" y="332"/>
      <point x="301" y="334" type="curve" smooth="yes"/>
      <point x="203" y="386" type="line"/>
      <point x="502" y="460" type="line" smooth="yes"/>
      <point x="514" y="463"/>
      <point x="527" y="475"/>
      <point x="530" y="488" type="curve"/>
      <point x="576" y="464" type="line"/>
      <point x="728" y="365" type="line" smooth="yes"/>
      <point x="733" y="362"/>
      <point x="743" y="359"/>
      <point x="750" y="359" type="curve" smooth="yes"/>
      <point x="766" y="359" type="line" smooth="yes"/>
      <point x="778" y="359"/>
      <point x="793" y="367"/>
      <point x="800" y="377" type="curve" smooth="yes"/>
      <point x="866" y="477" type="line" smooth="yes"/>
      <point x="872" y="486"/>
      <point x="874" y="496"/>
      <point x="873" y="504" type="curve"/>
      <point x="989" y="469" type="line"/>
      <point x="990" y="399" type="line" smooth="yes"/>
      <point x="990" y="394"/>
      <point x="992" y="386"/>
      <point x="994" y="381" type="curve" smooth="yes"/>
      <point x="1039" y="291" type="line"/>
      <point x="1036" y="229" type="line"/>
      <point x="740" y="137" type="line" smooth="yes"/>
      <point x="733" y="135"/>
      <point x="723" y="128"/>
      <point x="719" y="121" type="curve" smooth="yes"/>
      <point x="651" y="21" type="line" smooth="yes"/>
      <point x="639" y="4"/>
      <point x="644" y="-22"/>
      <point x="662" y="-34" type="curve" smooth="yes"/>
      <point x="679" y="-46"/>
      <point x="705" y="-41"/>
      <point x="717" y="-23" type="curve" smooth="yes"/>
      <point x="777" y="65" type="line"/>
      <point x="1086" y="161" type="line" smooth="yes"/>
      <point x="1100" y="165"/>
      <point x="1113" y="181"/>
      <point x="1114" y="197" type="curve" smooth="yes"/>
      <point x="1120" y="297" type="line" smooth="yes"/>
      <point x="1120" y="303"/>
      <point x="1118" y="312"/>
      <point x="1116" y="317" type="curve" smooth="yes"/>
      <point x="1070" y="409" type="line"/>
      <point x="1069" y="499" type="line" smooth="yes"/>
      <point x="1069" y="516"/>
      <point x="1056" y="533"/>
      <point x="1041" y="537" type="curve" smooth="yes"/>
      <point x="744" y="626" type="line"/>
      <point x="758" y="681" type="line"/>
      <point x="803" y="736" type="line"/>
      <point x="906" y="753" type="line" smooth="yes"/>
      <point x="954" y="760"/>
      <point x="952" y="828"/>
      <point x="902" y="832" type="curve" smooth="yes"/>
      <point x="805" y="839" type="line" smooth="yes"/>
      <point x="793" y="840"/>
      <point x="778" y="833"/>
      <point x="771" y="824" type="curve" smooth="yes"/>
      <point x="760" y="811" type="line"/>
      <point x="703" y="802" type="line"/>
      <point x="673" y="824" type="line" smooth="yes"/>
      <point x="667" y="828"/>
      <point x="657" y="832"/>
      <point x="650" y="832" type="curve" smooth="yes"/>
      <point x="368" y="839" type="line"/>
      <point x="300" y="839" type="line" smooth="yes"/>
      <point x="286" y="839"/>
      <point x="269" y="828"/>
      <point x="264" y="815" type="curve" smooth="yes"/>
      <point x="219" y="715" type="line" smooth="yes"/>
      <point x="209" y="694"/>
      <point x="219" y="670"/>
      <point x="241" y="662" type="curve" smooth="yes"/>
      <point x="364" y="614" type="line"/>
      <point x="356" y="597"/>
      <point x="363" y="575"/>
      <point x="385" y="563" type="curve" smooth="yes"/>
      <point x="450" y="530" type="line"/>
      <point x="82" y="438" type="line" smooth="yes"/>
      <point x="44" y="428"/>
      <point x="38" y="382"/>
      <point x="73" y="364" type="curve" smooth="yes"/>
      <point x="256" y="267" type="line"/>
      <point x="332" y="174" type="line" smooth="yes"/>
      <point x="334" y="171"/>
      <point x="338" y="168"/>
      <point x="341" y="166" type="curve" smooth="yes"/>
      <point x="447" y="95" type="line"/>
      <point x="368" y="30" type="line" smooth="yes"/>
      <point x="352" y="16"/>
      <point x="349" y="-10"/>
      <point x="363" y="-27" type="curve" smooth="yes"/>
      <point x="377" y="-43"/>
      <point x="403" y="-46"/>
    </contour>
  </outline>
</glyph>
<glyph name="N" format="1">
  <advance width="1153"/>
  <unicode hex="004E"/>
  <outline>
    <contour>
      <point x="792" y="-38" type="curve" smooth="yes"/>
      <point x="1046" y="62" type="line" smooth="yes"/>
      <point x="1055" y="66"/>
      <point x="1066" y="77"/>
      <point x="1069" y="87" type="curve" smooth="yes"/>
      <point x="1101" y="187" type="line" smooth="yes"/>
      <point x="1108" y="210"/>
      <point x="1095" y="233"/>
      <point x="1072" y="238" type="curve" smooth="yes"/>
      <point x="736" y="317" type="line"/>
      <point x="806" y="363" type="line"/>
      <point x="1058" y="462" type="line" smooth="yes"/>
      <point x="1076" y="469"/>
      <point x="1087" y="491"/>
      <point x="1082" y="510" type="curve" smooth="yes"/>
      <point x="1054" y="610" type="line" smooth="yes"/>
      <point x="1051" y="620"/>
      <point x="1041" y="631"/>
      <point x="1032" y="635" type="curve" smooth="yes"/>
      <point x="842" y="724" type="line"/>
      <point x="846" y="797" type="line" smooth="yes"/>
      <point x="847" y="819"/>
      <point x="830" y="838"/>
      <point x="808" y="839" type="curve" smooth="yes"/>
      <point x="786" y="840"/>
      <point x="767" y="823"/>
      <point x="766" y="801" type="curve" smooth="yes"/>
      <point x="761" y="701" type="line" smooth="yes"/>
      <point x="760" y="686"/>
      <point x="771" y="669"/>
      <point x="784" y="663" type="curve" smooth="yes"/>
      <point x="981" y="571" type="line"/>
      <point x="995" y="523" type="line"/>
      <point x="773" y="436" type="line" smooth="yes"/>
      <point x="771" y="435"/>
      <point x="768" y="434"/>
      <point x="766" y="432" type="curve" smooth="yes"/>
      <point x="614" y="332" type="line" smooth="yes"/>
      <point x="602" y="325"/>
      <point x="596" y="314"/>
      <point x="594" y="303" type="curve"/>
      <point x="518" y="329" type="line"/>
      <point x="511" y="373" type="line"/>
      <point x="757" y="461" type="line" smooth="yes"/>
      <point x="795" y="475"/>
      <point x="795" y="522"/>
      <point x="757" y="536" type="curve" smooth="yes"/>
      <point x="538" y="620" type="line"/>
      <point x="590" y="712" type="line"/>
      <point x="664" y="758" type="line" smooth="yes"/>
      <point x="701" y="781"/>
      <point x="687" y="831"/>
      <point x="644" y="832" type="curve" smooth="yes"/>
      <point x="473" y="836" type="line"/>
      <point x="468" y="838"/>
      <point x="462" y="839"/>
      <point x="455" y="839" type="curve" smooth="yes"/>
      <point x="307" y="839" type="line" smooth="yes"/>
      <point x="276" y="839"/>
      <point x="263" y="812"/>
      <point x="268" y="789" type="curve"/>
      <point x="81" y="738" type="line" smooth="yes"/>
      <point x="40" y="726"/>
      <point x="39" y="673"/>
      <point x="81" y="661" type="curve" smooth="yes"/>
      <point x="301" y="596" type="line"/>
      <point x="135" y="537" type="line" smooth="yes"/>
      <point x="101" y="525"/>
      <point x="96" y="485"/>
      <point x="126" y="466" type="curve" smooth="yes"/>
      <point x="244" y="388" type="line"/>
      <point x="197" y="322" type="line" smooth="yes"/>
      <point x="195" y="318"/>
      <point x="192" y="311"/>
      <point x="191" y="306" type="curve" smooth="yes"/>
      <point x="173" y="206" type="line" smooth="yes"/>
      <point x="169" y="188"/>
      <point x="181" y="168"/>
      <point x="198" y="161" type="curve" smooth="yes"/>
      <point x="369" y="100" type="line"/>
      <point x="185" y="37" type="line" smooth="yes"/>
      <point x="165" y="30"/>
      <point x="153" y="6"/>
      <point x="160" y="-14" type="curve" smooth="yes"/>
      <point x="167" y="-34"/>
      <point x="191" y="-46"/>
      <point x="211" y="-39" type="curve" smooth="yes"/>
      <point x="503" y="61" type="line" smooth="yes"/>
      <point x="542" y="74"/>
      <point x="542" y="123"/>
      <point x="504" y="137" type="curve" smooth="yes"/>
      <point x="257" y="225" type="line"/>
      <point x="268" y="283" type="line"/>
      <point x="334" y="376" type="line" smooth="yes"/>
      <point x="347" y="395"/>
      <point x="342" y="420"/>
      <point x="323" y="432" type="curve" smooth="yes"/>
      <point x="238" y="488" type="line"/>
      <point x="444" y="561" type="line" smooth="yes"/>
      <point x="449" y="563"/>
      <point x="452" y="565"/>
      <point x="456" y="567" type="curve"/>
      <point x="459" y="565"/>
      <point x="462" y="563"/>
      <point x="466" y="562" type="curve" smooth="yes"/>
      <point x="628" y="500" type="line"/>
      <point x="452" y="437" type="line" smooth="yes"/>
      <point x="435" y="430"/>
      <point x="423" y="411"/>
      <point x="427" y="392" type="curve" smooth="yes"/>
      <point x="444" y="292" type="line" smooth="yes"/>
      <point x="446" y="279"/>
      <point x="458" y="265"/>
      <point x="470" y="261" type="curve" smooth="yes"/>
      <point x="737" y="170" type="line"/>
      <point x="735" y="56" type="line"/>
      <point x="737" y="-2" type="line" smooth="yes"/>
      <point x="738" y="-32"/>
      <point x="764" y="-49"/>
    </contour>
    <contour>
      <point x="442" y="637" type="curve"/>
      <point x="238" y="698" type="line"/>
      <point x="450" y="756" type="line"/>
      <point x="522" y="755" type="line"/>
      <point x="453" y="633" type="line"/>
      <point x="442" y="637"/>
      <point x="442" y="637"/>
    </contour>
    <contour>
      <point x="815" y="59" type="line"/>
      <point x="817" y="198" type="line" smooth="yes"/>
      <point x="817" y="205"/>
      <point x="815" y="211"/>
      <point x="812" y="217" type="curve"/>
      <point x="1012" y="170" type="line"/>
      <point x="999" y="129" type="line"/>
      <point x="815" y="57" type="line"/>
    </contour>
  </outline>
</glyph>
<glyph name="O" format="1">
  <advance width="1113"/>
  <unicode hex="004F"/>
  <outline>
    <contour>
      <point x="208" y="-41" type="curve" smooth="yes"/>
      <point x="757" y="-41" type="line" smooth="yes"/>
      <point x="779" y="-41"/>
      <point x="797" y="-23"/>
      <point x="797" y="-1" type="curve" smooth="yes"/>
      <point x="797" y="12"/>
      <point x="791" y="23"/>
      <point x="781" y="31" type="curve"/>
      <point x="1028" y="76" type="line" smooth="yes"/>
      <point x="1070" y="84"/>
      <point x="1076" y="134"/>
      <point x="1037" y="152" type="curve" smooth="yes"/>
      <point x="873" y="227" type="line"/>
      <point x="854" y="308" type="line" smooth="yes"/>
      <point x="852" y="315"/>
      <point x="846" y="325"/>
      <point x="841" y="330" type="curve" smooth="yes"/>
      <point x="726" y="425" type="line"/>
      <point x="688" y="487" type="line"/>
      <point x="810" y="565" type="line" smooth="yes"/>
      <point x="813" y="567"/>
      <point x="817" y="571"/>
      <point x="819" y="574" type="curve" smooth="yes"/>
      <point x="887" y="657" type="line" smooth="yes"/>
      <point x="888" y="658"/>
      <point x="889" y="659"/>
      <point x="889" y="660" type="curve" smooth="yes"/>
      <point x="945" y="740" type="line" smooth="yes"/>
      <point x="964" y="768"/>
      <point x="949" y="800"/>
      <point x="916" y="803" type="curve" smooth="yes"/>
      <point x="689" y="822" type="line"/>
      <point x="689" y="839" type="line"/>
      <point x="317" y="839" type="line" smooth="yes"/>
      <point x="281" y="839"/>
      <point x="264" y="803"/>
      <point x="283" y="777" type="curve"/>
      <point x="126" y="720" type="line" smooth="yes"/>
      <point x="91" y="707"/>
      <point x="88" y="664"/>
      <point x="122" y="647" type="curve" smooth="yes"/>
      <point x="229" y="590" type="line"/>
      <point x="160" y="529" type="line" smooth="yes"/>
      <point x="136" y="507"/>
      <point x="142" y="474"/>
      <point x="172" y="462" type="curve" smooth="yes"/>
      <point x="317" y="404" type="line"/>
      <point x="99" y="337" type="line" smooth="yes"/>
      <point x="87" y="333"/>
      <point x="75" y="320"/>
      <point x="72" y="307" type="curve" smooth="yes"/>
      <point x="51" y="207" type="line" smooth="yes"/>
      <point x="50" y="203"/>
      <point x="50" y="196"/>
      <point x="51" y="191" type="curve" smooth="yes"/>
      <point x="67" y="108" type="line" smooth="yes"/>
      <point x="70" y="94"/>
      <point x="83" y="80"/>
      <point x="96" y="77" type="curve" smooth="yes"/>
      <point x="226" y="43" type="line"/>
      <point x="201" y="38" type="line" smooth="yes"/>
      <point x="152" y="30"/>
      <point x="158" y="-41"/>
    </contour>
    <contour>
      <point x="572" y="73" type="curve" smooth="yes"/>
      <point x="462" y="39" type="line"/>
      <point x="455" y="39" type="line"/>
      <point x="453" y="55"/>
      <point x="442" y="69"/>
      <point x="423" y="74" type="curve" smooth="yes"/>
      <point x="141" y="148" type="line"/>
      <point x="131" y="199" type="line"/>
      <point x="145" y="268" type="line"/>
      <point x="449" y="361" type="line" smooth="yes"/>
      <point x="488" y="373"/>
      <point x="490" y="421"/>
      <point x="452" y="436" type="curve" smooth="yes"/>
      <point x="262" y="512" type="line"/>
      <point x="325" y="569" type="line" smooth="yes"/>
      <point x="347" y="589"/>
      <point x="343" y="621"/>
      <point x="317" y="634" type="curve" smooth="yes"/>
      <point x="239" y="675" type="line"/>
      <point x="374" y="725" type="line" smooth="yes"/>
      <point x="391" y="731"/>
      <point x="400" y="744"/>
      <point x="402" y="759" type="curve"/>
      <point x="488" y="759" type="line"/>
      <point x="840" y="729" type="line"/>
      <point x="825" y="707" type="line"/>
      <point x="761" y="629" type="line"/>
      <point x="612" y="533" type="line" smooth="yes"/>
      <point x="594" y="521"/>
      <point x="589" y="497"/>
      <point x="600" y="478" type="curve" smooth="yes"/>
      <point x="661" y="378" type="line" smooth="yes"/>
      <point x="663" y="375"/>
      <point x="667" y="371"/>
      <point x="669" y="368" type="curve" smooth="yes"/>
      <point x="779" y="277" type="line"/>
      <point x="799" y="190" type="line" smooth="yes"/>
      <point x="801" y="179"/>
      <point x="811" y="167"/>
      <point x="821" y="163" type="curve" smooth="yes"/>
      <point x="889" y="132" type="line"/>
      <point x="577" y="74" type="line" smooth="yes"/>
      <point x="575" y="74"/>
      <point x="573" y="74"/>
    </contour>
  </outline>
</glyph>
<glyph name="P" format="1">
  <advance width="1120"/>
  <unicode hex="0050"/>
  <outline>
    <contour>
      <point x="455" y="366" type="line" smooth="yes"/>
      <point x="494" y="380"/>
      <point x="492" y="429"/>
      <point x="453" y="441" type="curve" smooth="yes"/>
      <point x="238" y="507" type="line"/>
      <point x="391" y="566" type="line" smooth="yes"/>
      <point x="430" y="580"/>
      <point x="428" y="628"/>
      <point x="389" y="641" type="curve" smooth="yes"/>
      <point x="230" y="693" type="line"/>
      <point x="312" y="730" type="line"/>
      <point x="382" y="763" type="line"/>
      <point x="571" y="763" type="line"/>
      <point x="651" y="731" type="line"/>
      <point x="725" y="682" type="line"/>
      <point x="671" y="633" type="line" smooth="yes"/>
      <point x="646" y="610"/>
      <point x="654" y="574"/>
      <point x="687" y="565" type="curve" smooth="yes"/>
      <point x="952" y="488" type="line"/>
      <point x="919" y="454" type="line"/>
      <point x="813" y="381" type="line"/>
      <point x="590" y="347" type="line"/>
      <point x="407" y="347" type="line"/>
    </contour>
    <contour>
      <point x="467" y="-8" type="curve" smooth="yes"/>
      <point x="473" y="12"/>
      <point x="461" y="35"/>
      <point x="440" y="41" type="curve" smooth="yes"/>
      <point x="172" y="121" type="line"/>
      <point x="232" y="173" type="line" smooth="yes"/>
      <point x="243" y="182"/>
      <point x="248" y="200"/>
      <point x="245" y="213" type="curve" smooth="yes"/>
      <point x="228" y="278" type="line"/>
      <point x="292" y="303" type="line"/>
      <point x="277" y="294"/>
      <point x="269" y="274"/>
      <point x="274" y="258" type="curve" smooth="yes"/>
      <point x="299" y="173" type="line" smooth="yes"/>
      <point x="301" y="164"/>
      <point x="311" y="152"/>
      <point x="320" y="148" type="curve" smooth="yes"/>
      <point x="503" y="63" type="line" smooth="yes"/>
      <point x="523" y="54"/>
      <point x="547" y="63"/>
      <point x="556" y="82" type="curve" smooth="yes"/>
      <point x="565" y="102"/>
      <point x="556" y="126"/>
      <point x="537" y="135" type="curve" smooth="yes"/>
      <point x="370" y="213" type="line"/>
      <point x="360" y="248" type="line"/>
      <point x="399" y="267" type="line"/>
      <point x="593" y="267" type="line" smooth="yes"/>
      <point x="595" y="267"/>
      <point x="597" y="267"/>
      <point x="599" y="267" type="curve" smooth="yes"/>
      <point x="834" y="304" type="line" smooth="yes"/>
      <point x="839" y="304"/>
      <point x="847" y="307"/>
      <point x="851" y="310" type="curve" smooth="yes"/>
      <point x="967" y="391" type="line" smooth="yes"/>
      <point x="969" y="392"/>
      <point x="971" y="394"/>
      <point x="972" y="395" type="curve" smooth="yes"/>
      <point x="1056" y="479" type="line" smooth="yes"/>
      <point x="1080" y="502"/>
      <point x="1071" y="536"/>
      <point x="1039" y="545" type="curve" smooth="yes"/>
      <point x="778" y="621" type="line"/>
      <point x="816" y="657" type="line" smooth="yes"/>
      <point x="837" y="675"/>
      <point x="835" y="704"/>
      <point x="812" y="720" type="curve" smooth="yes"/>
      <point x="693" y="800" type="line" smooth="yes"/>
      <point x="691" y="801"/>
      <point x="687" y="803"/>
      <point x="685" y="804" type="curve" smooth="yes"/>
      <point x="594" y="840" type="line" smooth="yes"/>
      <point x="590" y="842"/>
      <point x="583" y="843"/>
      <point x="579" y="843" type="curve" smooth="yes"/>
      <point x="373" y="843" type="line" smooth="yes"/>
      <point x="368" y="843"/>
      <point x="360" y="841"/>
      <point x="356" y="839" type="curve" smooth="yes"/>
      <point x="278" y="803" type="line"/>
      <point x="103" y="722" type="line" smooth="yes"/>
      <point x="67" y="706"/>
      <point x="70" y="660"/>
      <point x="108" y="648" type="curve" smooth="yes"/>
      <point x="257" y="600" type="line"/>
      <point x="101" y="540" type="line" smooth="yes"/>
      <point x="62" y="526"/>
      <point x="64" y="477"/>
      <point x="103" y="465" type="curve" smooth="yes"/>
      <point x="318" y="399" type="line"/>
      <point x="166" y="340" type="line" smooth="yes"/>
      <point x="147" y="333"/>
      <point x="136" y="312"/>
      <point x="141" y="293" type="curve" smooth="yes"/>
      <point x="161" y="217" type="line"/>
      <point x="65" y="133" type="line" smooth="yes"/>
      <point x="39" y="111"/>
      <point x="47" y="74"/>
      <point x="80" y="65" type="curve" smooth="yes"/>
      <point x="418" y="-35" type="line" smooth="yes"/>
      <point x="438" y="-41"/>
      <point x="461" y="-29"/>
    </contour>
  </outline>
</glyph>
<glyph name="Q" format="1">
  <advance width="1241"/>
  <unicode hex="0051"/>
  <outline>
    <contour>
      <point x="400" y="-41" type="curve" smooth="yes"/>
      <point x="477" y="-34" type="line" smooth="yes"/>
      <point x="484" y="-33"/>
      <point x="495" y="-29"/>
      <point x="500" y="-24" type="curve" smooth="yes"/>
      <point x="558" y="27" type="line" smooth="yes"/>
      <point x="584" y="50"/>
      <point x="576" y="85"/>
      <point x="544" y="95" type="curve" smooth="yes"/>
      <point x="219" y="200" type="line"/>
      <point x="397" y="261" type="line" smooth="yes"/>
      <point x="431" y="273"/>
      <point x="436" y="311"/>
      <point x="407" y="332" type="curve" smooth="yes"/>
      <point x="276" y="424" type="line"/>
      <point x="253" y="497" type="line"/>
      <point x="288" y="584" type="line" smooth="yes"/>
      <point x="292" y="594"/>
      <point x="291" y="611"/>
      <point x="285" y="620" type="curve" smooth="yes"/>
      <point x="234" y="702" type="line"/>
      <point x="219" y="728" type="line"/>
      <point x="584" y="758" type="line"/>
      <point x="607" y="736" type="line"/>
      <point x="655" y="673" type="line"/>
      <point x="642" y="607" type="line" smooth="yes"/>
      <point x="638" y="585"/>
      <point x="651" y="564"/>
      <point x="673" y="560" type="curve" smooth="yes"/>
      <point x="1076" y="474" type="line"/>
      <point x="1040" y="431" type="line"/>
      <point x="858" y="334" type="line" smooth="yes"/>
      <point x="829" y="319"/>
      <point x="827" y="283"/>
      <point x="856" y="265" type="curve" smooth="yes"/>
      <point x="906" y="233" type="line"/>
      <point x="882" y="232" type="line" smooth="yes"/>
      <point x="880" y="232"/>
      <point x="878" y="232"/>
      <point x="877" y="232" type="curve" smooth="yes"/>
      <point x="558" y="180" type="line" smooth="yes"/>
      <point x="519" y="174"/>
      <point x="509" y="131"/>
      <point x="540" y="108" type="curve" smooth="yes"/>
      <point x="734" y="-33" type="line" smooth="yes"/>
      <point x="752" y="-46"/>
      <point x="778" y="-42"/>
      <point x="790" y="-25" type="curve" smooth="yes"/>
      <point x="803" y="-7"/>
      <point x="799" y="19"/>
      <point x="782" y="31" type="curve" smooth="yes"/>
      <point x="665" y="116" type="line"/>
      <point x="888" y="152" type="line"/>
      <point x="1036" y="159" type="line" smooth="yes"/>
      <point x="1078" y="161"/>
      <point x="1091" y="210"/>
      <point x="1055" y="233" type="curve" smooth="yes"/>
      <point x="956" y="296" type="line"/>
      <point x="1085" y="364" type="line" smooth="yes"/>
      <point x="1089" y="366"/>
      <point x="1094" y="370"/>
      <point x="1097" y="373" type="curve" smooth="yes"/>
      <point x="1180" y="473" type="line" smooth="yes"/>
      <point x="1201" y="498"/>
      <point x="1189" y="531"/>
      <point x="1157" y="538" type="curve" smooth="yes"/>
      <point x="728" y="630" type="line"/>
      <point x="737" y="675" type="line" smooth="yes"/>
      <point x="739" y="684"/>
      <point x="735" y="699"/>
      <point x="730" y="706" type="curve" smooth="yes"/>
      <point x="669" y="787" type="line" smooth="yes"/>
      <point x="668" y="788"/>
      <point x="666" y="791"/>
      <point x="665" y="792" type="curve" smooth="yes"/>
      <point x="626" y="828" type="line" smooth="yes"/>
      <point x="619" y="835"/>
      <point x="606" y="840"/>
      <point x="596" y="839" type="curve" smooth="yes"/>
      <point x="150" y="803" type="line" smooth="yes"/>
      <point x="119" y="800"/>
      <point x="103" y="770"/>
      <point x="119" y="743" type="curve" smooth="yes"/>
      <point x="164" y="662" type="line"/>
      <point x="206" y="595" type="line"/>
      <point x="173" y="514" type="line" smooth="yes"/>
      <point x="170" y="507"/>
      <point x="169" y="494"/>
      <point x="172" y="487" type="curve" smooth="yes"/>
      <point x="204" y="387" type="line" smooth="yes"/>
      <point x="206" y="380"/>
      <point x="213" y="371"/>
      <point x="219" y="366" type="curve" smooth="yes"/>
      <point x="297" y="311" type="line"/>
      <point x="79" y="237" type="line" smooth="yes"/>
      <point x="40" y="223"/>
      <point x="40" y="174"/>
      <point x="80" y="161" type="curve" smooth="yes"/>
      <point x="445" y="44" type="line"/>
      <point x="393" y="39" type="line" smooth="yes"/>
      <point x="371" y="37"/>
      <point x="355" y="17"/>
      <point x="357" y="-5" type="curve" smooth="yes"/>
      <point x="359" y="-26"/>
      <point x="379" y="-43"/>
    </contour>
  </outline>
</glyph>
<glyph name="R" format="1">
  <advance width="1197"/>
  <unicode hex="0052"/>
  <outline>
    <contour>
      <point x="390" y="480" type="line" smooth="yes"/>
      <point x="399" y="501"/>
      <point x="389" y="525"/>
      <point x="367" y="533" type="curve" smooth="yes"/>
      <point x="236" y="584" type="line"/>
      <point x="523" y="640" type="line" smooth="yes"/>
      <point x="545" y="644"/>
      <point x="559" y="665"/>
      <point x="554" y="687" type="curve" smooth="yes"/>
      <point x="540" y="756" type="line"/>
      <point x="541" y="756" type="line"/>
      <point x="779" y="732" type="line"/>
      <point x="748" y="714" type="line" smooth="yes"/>
      <point x="717" y="695"/>
      <point x="720" y="656"/>
      <point x="753" y="642" type="curve" smooth="yes"/>
      <point x="872" y="594" type="line"/>
      <point x="737" y="532" type="line" smooth="yes"/>
      <point x="700" y="515"/>
      <point x="705" y="467"/>
      <point x="745" y="457" type="curve" smooth="yes"/>
      <point x="947" y="409" type="line"/>
      <point x="819" y="372" type="line"/>
      <point x="430" y="336" type="line"/>
      <point x="354" y="336" type="line"/>
      <point x="350" y="389" type="line"/>
    </contour>
    <contour>
      <point x="889" y="-23" type="curve" smooth="yes"/>
      <point x="943" y="77" type="line"/>
      <point x="1044" y="216" type="line" smooth="yes"/>
      <point x="1063" y="241"/>
      <point x="1051" y="272"/>
      <point x="1020" y="279" type="curve" smooth="yes"/>
      <point x="883" y="307" type="line"/>
      <point x="1115" y="374" type="line" smooth="yes"/>
      <point x="1158" y="386"/>
      <point x="1156" y="441"/>
      <point x="1114" y="452" type="curve" smooth="yes"/>
      <point x="876" y="508" type="line"/>
      <point x="990" y="560" type="line" smooth="yes"/>
      <point x="1024" y="575"/>
      <point x="1023" y="619"/>
      <point x="988" y="633" type="curve" smooth="yes"/>
      <point x="857" y="686" type="line"/>
      <point x="923" y="726" type="line" smooth="yes"/>
      <point x="958" y="747"/>
      <point x="948" y="796"/>
      <point x="906" y="800" type="curve" smooth="yes"/>
      <point x="547" y="836" type="line" smooth="yes"/>
      <point x="546" y="836"/>
      <point x="544" y="836"/>
      <point x="543" y="836" type="curve" smooth="yes"/>
      <point x="413" y="836" type="line" smooth="yes"/>
      <point x="366" y="836"/>
      <point x="354" y="777"/>
      <point x="397" y="759" type="curve" smooth="yes"/>
      <point x="464" y="731" type="line"/>
      <point x="468" y="710" type="line"/>
      <point x="84" y="635" type="line" smooth="yes"/>
      <point x="42" y="627"/>
      <point x="37" y="574"/>
      <point x="78" y="559" type="curve" smooth="yes"/>
      <point x="299" y="474" type="line"/>
      <point x="272" y="412" type="line" smooth="yes"/>
      <point x="270" y="407"/>
      <point x="269" y="398"/>
      <point x="269" y="393" type="curve" smooth="yes"/>
      <point x="274" y="336" type="line"/>
      <point x="219" y="336" type="line"/>
      <point x="219" y="256" type="line"/>
      <point x="302" y="256" type="line"/>
      <point x="379" y="191" type="line"/>
      <point x="325" y="126" type="line"/>
      <point x="188" y="29" type="line" smooth="yes"/>
      <point x="170" y="16"/>
      <point x="166" y="-10"/>
      <point x="178" y="-27" type="curve" smooth="yes"/>
      <point x="191" y="-45"/>
      <point x="217" y="-49"/>
      <point x="234" y="-37" type="curve" smooth="yes"/>
      <point x="375" y="63" type="line" smooth="yes"/>
      <point x="378" y="65"/>
      <point x="381" y="68"/>
      <point x="383" y="70" type="curve" smooth="yes"/>
      <point x="466" y="170" type="line" smooth="yes"/>
      <point x="480" y="187"/>
      <point x="478" y="212"/>
      <point x="461" y="227" type="curve" smooth="yes"/>
      <point x="426" y="256" type="line"/>
      <point x="724" y="256" type="line"/>
      <point x="758" y="251" type="line"/>
      <point x="943" y="213" type="line"/>
      <point x="877" y="122" type="line" smooth="yes"/>
      <point x="876" y="120"/>
      <point x="874" y="118"/>
      <point x="874" y="117" type="curve" smooth="yes"/>
      <point x="819" y="15" type="line" smooth="yes"/>
      <point x="809" y="-4"/>
      <point x="816" y="-29"/>
      <point x="835" y="-39" type="curve" smooth="yes"/>
      <point x="854" y="-49"/>
      <point x="879" y="-42"/>
    </contour>
  </outline>
</glyph>
<glyph name="S" format="1">
  <advance width="1086"/>
  <unicode hex="0053"/>
  <outline>
    <contour>
      <point x="216" y="-36" type="curve" smooth="yes"/>
      <point x="591" y="-36" type="line" smooth="yes"/>
      <point x="619" y="-36"/>
      <point x="637" y="-12"/>
      <point x="629" y="15" type="curve" smooth="yes"/>
      <point x="626" y="24" type="line"/>
      <point x="716" y="86" type="line"/>
      <point x="1005" y="168" type="line" smooth="yes"/>
      <point x="1043" y="178"/>
      <point x="1047" y="225"/>
      <point x="1011" y="242" type="curve" smooth="yes"/>
      <point x="752" y="367" type="line"/>
      <point x="761" y="388" type="line" smooth="yes"/>
      <point x="773" y="417"/>
      <point x="755" y="444"/>
      <point x="724" y="444" type="curve" smooth="yes"/>
      <point x="591" y="444" type="line"/>
      <point x="396" y="451" type="line"/>
      <point x="327" y="477" type="line"/>
      <point x="437" y="574" type="line" smooth="yes"/>
      <point x="461" y="595"/>
      <point x="456" y="629"/>
      <point x="426" y="641" type="curve" smooth="yes"/>
      <point x="291" y="697" type="line"/>
      <point x="342" y="736" type="line" smooth="yes"/>
      <point x="352" y="744"/>
      <point x="357" y="753"/>
      <point x="359" y="764" type="curve"/>
      <point x="478" y="764" type="line"/>
      <point x="711" y="746" type="line"/>
      <point x="633" y="726" type="line" smooth="yes"/>
      <point x="591" y="715"/>
      <point x="590" y="662"/>
      <point x="632" y="649" type="curve" smooth="yes"/>
      <point x="905" y="566" type="line" smooth="yes"/>
      <point x="926" y="559"/>
      <point x="949" y="572"/>
      <point x="955" y="592" type="curve" smooth="yes"/>
      <point x="962" y="613"/>
      <point x="949" y="636"/>
      <point x="929" y="642" type="curve" smooth="yes"/>
      <point x="790" y="684" type="line"/>
      <point x="962" y="729" type="line" smooth="yes"/>
      <point x="1008" y="741"/>
      <point x="1003" y="804"/>
      <point x="955" y="808" type="curve" smooth="yes"/>
      <point x="509" y="842" type="line"/>
      <point x="509" y="844" type="line"/>
      <point x="208" y="844" type="line" smooth="yes"/>
      <point x="160" y="844"/>
      <point x="150" y="781"/>
      <point x="195" y="766" type="curve" smooth="yes"/>
      <point x="233" y="753" type="line"/>
      <point x="188" y="719" type="line" smooth="yes"/>
      <point x="161" y="698"/>
      <point x="166" y="663"/>
      <point x="197" y="650" type="curve" smooth="yes"/>
      <point x="337" y="592" type="line"/>
      <point x="224" y="492" type="line" smooth="yes"/>
      <point x="199" y="471"/>
      <point x="205" y="436"/>
      <point x="236" y="425" type="curve" smooth="yes"/>
      <point x="375" y="373" type="line" smooth="yes"/>
      <point x="378" y="372"/>
      <point x="384" y="371"/>
      <point x="387" y="371" type="curve" smooth="yes"/>
      <point x="552" y="365" type="line"/>
      <point x="552" y="364" type="line"/>
      <point x="663" y="364" type="line"/>
      <point x="663" y="363" type="line" smooth="yes"/>
      <point x="655" y="344"/>
      <point x="664" y="321"/>
      <point x="683" y="312" type="curve" smooth="yes"/>
      <point x="881" y="216" type="line"/>
      <point x="687" y="161" type="line" smooth="yes"/>
      <point x="684" y="160"/>
      <point x="679" y="158"/>
      <point x="676" y="155" type="curve" smooth="yes"/>
      <point x="557" y="74" type="line" smooth="yes"/>
      <point x="548" y="67"/>
      <point x="542" y="56"/>
      <point x="541" y="44" type="curve"/>
      <point x="520" y="44" type="line"/>
      <point x="530" y="63"/>
      <point x="523" y="90"/>
      <point x="496" y="100" type="curve" smooth="yes"/>
      <point x="104" y="242" type="line" smooth="yes"/>
      <point x="83" y="249"/>
      <point x="60" y="238"/>
      <point x="52" y="218" type="curve" smooth="yes"/>
      <point x="45" y="197"/>
      <point x="56" y="174"/>
      <point x="76" y="166" type="curve" smooth="yes"/>
      <point x="326" y="76" type="line"/>
      <point x="175" y="50" type="line" smooth="yes"/>
      <point x="129" y="42"/>
      <point x="128" y="-19"/>
      <point x="174" y="-28" type="curve" smooth="yes"/>
      <point x="208" y="-35" type="line" smooth="yes"/>
      <point x="210" y="-36"/>
      <point x="214" y="-36"/>
    </contour>
  </outline>
</glyph>
<glyph name="T" format="1">
  <advance width="748"/>
  <unicode hex="0054"/>
  <outline>
    <contour>
      <point x="376" y="-8" type="curve" smooth="yes"/>
      <point x="396" y="92" type="line" smooth="yes"/>
      <point x="400" y="111"/>
      <point x="389" y="131"/>
      <point x="371" y="137" type="curve" smooth="yes"/>
      <point x="156" y="218" type="line"/>
      <point x="192" y="266" type="line"/>
      <point x="470" y="362" type="line" smooth="yes"/>
      <point x="506" y="375"/>
      <point x="509" y="417"/>
      <point x="476" y="435" type="curve" smooth="yes"/>
      <point x="331" y="513" type="line"/>
      <point x="374" y="569" type="line"/>
      <point x="521" y="646" type="line" smooth="yes"/>
      <point x="556" y="664"/>
      <point x="551" y="710"/>
      <point x="513" y="720" type="curve" smooth="yes"/>
      <point x="412" y="746" type="line"/>
      <point x="461" y="753" type="line"/>
      <point x="659" y="760" type="line" smooth="yes"/>
      <point x="712" y="762"/>
      <point x="710" y="840"/>
      <point x="658" y="840" type="curve" smooth="yes"/>
      <point x="277" y="840" type="line" smooth="yes"/>
      <point x="257" y="840"/>
      <point x="239" y="824"/>
      <point x="237" y="803" type="curve"/>
      <point x="202" y="798" type="line" smooth="yes"/>
      <point x="156" y="792"/>
      <point x="153" y="732"/>
      <point x="198" y="720" type="curve" smooth="yes"/>
      <point x="393" y="669" type="line"/>
      <point x="329" y="635" type="line" smooth="yes"/>
      <point x="325" y="633"/>
      <point x="319" y="628"/>
      <point x="316" y="624" type="curve" smooth="yes"/>
      <point x="239" y="524" type="line" smooth="yes"/>
      <point x="224" y="504"/>
      <point x="229" y="477"/>
      <point x="252" y="465" type="curve" smooth="yes"/>
      <point x="358" y="408" type="line"/>
      <point x="155" y="338" type="line" smooth="yes"/>
      <point x="149" y="336"/>
      <point x="140" y="330"/>
      <point x="136" y="324" type="curve" smooth="yes"/>
      <point x="59" y="224" type="line" smooth="yes"/>
      <point x="42" y="202"/>
      <point x="50" y="173"/>
      <point x="77" y="163" type="curve" smooth="yes"/>
      <point x="311" y="75" type="line"/>
      <point x="298" y="8" type="line" smooth="yes"/>
      <point x="294" y="-13"/>
      <point x="308" y="-35"/>
      <point x="329" y="-39" type="curve" smooth="yes"/>
      <point x="350" y="-43"/>
      <point x="372" y="-29"/>
    </contour>
  </outline>
</glyph>
<glyph name="U" format="1">
  <advance width="1228"/>
  <unicode hex="0055"/>
  <outline>
    <contour>
      <point x="630" y="-41" type="curve" smooth="yes"/>
      <point x="707" y="-41" type="line" smooth="yes"/>
      <point x="709" y="-41"/>
      <point x="711" y="-41"/>
      <point x="713" y="-41" type="curve" smooth="yes"/>
      <point x="952" y="-4" type="line" smooth="yes"/>
      <point x="958" y="-3"/>
      <point x="967" y="1"/>
      <point x="972" y="5" type="curve" smooth="yes"/>
      <point x="1062" y="86" type="line" smooth="yes"/>
      <point x="1084" y="106"/>
      <point x="1080" y="138"/>
      <point x="1052" y="152" type="curve" smooth="yes"/>
      <point x="943" y="205" type="line"/>
      <point x="1032" y="266" type="line" smooth="yes"/>
      <point x="1058" y="284"/>
      <point x="1056" y="317"/>
      <point x="1029" y="333" type="curve" smooth="yes"/>
      <point x="889" y="417" type="line"/>
      <point x="908" y="469" type="line"/>
      <point x="1117" y="562" type="line" smooth="yes"/>
      <point x="1155" y="579"/>
      <point x="1151" y="628"/>
      <point x="1110" y="638" type="curve" smooth="yes"/>
      <point x="856" y="697" type="line"/>
      <point x="1146" y="760" type="line" smooth="yes"/>
      <point x="1168" y="764"/>
      <point x="1182" y="786"/>
      <point x="1177" y="807" type="curve" smooth="yes"/>
      <point x="1173" y="829"/>
      <point x="1151" y="843"/>
      <point x="1130" y="838" type="curve" smooth="yes"/>
      <point x="665" y="738" type="line" smooth="yes"/>
      <point x="620" y="729"/>
      <point x="620" y="670"/>
      <point x="664" y="660" type="curve" smooth="yes"/>
      <point x="976" y="587" type="line"/>
      <point x="860" y="536" type="line" smooth="yes"/>
      <point x="851" y="532"/>
      <point x="842" y="521"/>
      <point x="838" y="513" type="curve" smooth="yes"/>
      <point x="802" y="413" type="line" smooth="yes"/>
      <point x="796" y="395"/>
      <point x="804" y="374"/>
      <point x="820" y="365" type="curve" smooth="yes"/>
      <point x="935" y="296" type="line"/>
      <point x="841" y="232" type="line" smooth="yes"/>
      <point x="814" y="213"/>
      <point x="817" y="178"/>
      <point x="846" y="163" type="curve" smooth="yes"/>
      <point x="964" y="106" type="line"/>
      <point x="928" y="73" type="line"/>
      <point x="704" y="39" type="line"/>
      <point x="637" y="39" type="line"/>
      <point x="558" y="66" type="line"/>
      <point x="543" y="125" type="line" smooth="yes"/>
      <point x="540" y="138"/>
      <point x="528" y="150"/>
      <point x="516" y="154" type="curve" smooth="yes"/>
      <point x="280" y="225" type="line"/>
      <point x="304" y="284" type="line" smooth="yes"/>
      <point x="308" y="293"/>
      <point x="307" y="307"/>
      <point x="304" y="315" type="curve" smooth="yes"/>
      <point x="260" y="415" type="line" smooth="yes"/>
      <point x="259" y="417"/>
      <point x="257" y="420"/>
      <point x="256" y="422" type="curve" smooth="yes"/>
      <point x="202" y="499" type="line"/>
      <point x="258" y="575" type="line" smooth="yes"/>
      <point x="271" y="593"/>
      <point x="267" y="618"/>
      <point x="250" y="631" type="curve" smooth="yes"/>
      <point x="183" y="681" type="line"/>
      <point x="490" y="760" type="line" smooth="yes"/>
      <point x="511" y="766"/>
      <point x="524" y="788"/>
      <point x="519" y="809" type="curve" smooth="yes"/>
      <point x="513" y="830"/>
      <point x="491" y="843"/>
      <point x="470" y="838" type="curve" smooth="yes"/>
      <point x="82" y="738" type="line" smooth="yes"/>
      <point x="47" y="729"/>
      <point x="39" y="689"/>
      <point x="68" y="667" type="curve" smooth="yes"/>
      <point x="170" y="591" type="line"/>
      <point x="121" y="523" type="line" smooth="yes"/>
      <point x="111" y="510"/>
      <point x="111" y="489"/>
      <point x="120" y="476" type="curve" smooth="yes"/>
      <point x="188" y="379" type="line"/>
      <point x="224" y="298" type="line"/>
      <point x="190" y="214" type="line" smooth="yes"/>
      <point x="181" y="192"/>
      <point x="192" y="168"/>
      <point x="215" y="161" type="curve" smooth="yes"/>
      <point x="471" y="84" type="line"/>
      <point x="486" y="25" type="line" smooth="yes"/>
      <point x="489" y="14"/>
      <point x="501" y="1"/>
      <point x="512" y="-3" type="curve" smooth="yes"/>
      <point x="617" y="-39" type="line" smooth="yes"/>
      <point x="621" y="-40"/>
      <point x="626" y="-41"/>
    </contour>
  </outline>
</glyph>
<glyph name="V" format="1">
  <advance width="1230"/>
  <unicode hex="0056"/>
  <outline>
    <contour>
      <point x="727" y="-40" type="curve" smooth="yes"/>
      <point x="805" y="-40" type="line" smooth="yes"/>
      <point x="855" y="-40"/>
      <point x="862" y="29"/>
      <point x="813" y="39" type="curve"/>
      <point x="982" y="78" type="line" smooth="yes"/>
      <point x="1022" y="87"/>
      <point x="1027" y="134"/>
      <point x="991" y="152" type="curve" smooth="yes"/>
      <point x="846" y="227" type="line"/>
      <point x="834" y="280" type="line"/>
      <point x="984" y="365" type="line" smooth="yes"/>
      <point x="1015" y="383"/>
      <point x="1013" y="423"/>
      <point x="980" y="437" type="curve" smooth="yes"/>
      <point x="828" y="501" type="line"/>
      <point x="968" y="563" type="line" smooth="yes"/>
      <point x="1002" y="578"/>
      <point x="1003" y="619"/>
      <point x="970" y="636" type="curve" smooth="yes"/>
      <point x="865" y="688" type="line"/>
      <point x="1150" y="761" type="line" smooth="yes"/>
      <point x="1171" y="767"/>
      <point x="1184" y="789"/>
      <point x="1179" y="810" type="curve" smooth="yes"/>
      <point x="1173" y="831"/>
      <point x="1151" y="844"/>
      <point x="1130" y="839" type="curve" smooth="yes"/>
      <point x="741" y="739" type="line" smooth="yes"/>
      <point x="702" y="729"/>
      <point x="697" y="682"/>
      <point x="733" y="664" type="curve" smooth="yes"/>
      <point x="858" y="602" type="line"/>
      <point x="711" y="537" type="line" smooth="yes"/>
      <point x="676" y="521"/>
      <point x="676" y="478"/>
      <point x="711" y="463" type="curve" smooth="yes"/>
      <point x="874" y="395" type="line"/>
      <point x="768" y="335" type="line" smooth="yes"/>
      <point x="754" y="327"/>
      <point x="745" y="307"/>
      <point x="749" y="291" type="curve" smooth="yes"/>
      <point x="772" y="191" type="line" smooth="yes"/>
      <point x="774" y="181"/>
      <point x="784" y="169"/>
      <point x="793" y="164" type="curve" smooth="yes"/>
      <point x="857" y="131" type="line"/>
      <point x="627" y="78" type="line"/>
      <point x="349" y="178" type="line" smooth="yes"/>
      <point x="348" y="179"/>
      <point x="347" y="179"/>
      <point x="346" y="180" type="curve" smooth="yes"/>
      <point x="280" y="196" type="line"/>
      <point x="370" y="269" type="line" smooth="yes"/>
      <point x="394" y="288"/>
      <point x="391" y="320"/>
      <point x="364" y="335" type="curve" smooth="yes"/>
      <point x="250" y="398" type="line"/>
      <point x="384" y="464" type="line" smooth="yes"/>
      <point x="418" y="481"/>
      <point x="416" y="524"/>
      <point x="380" y="538" type="curve" smooth="yes"/>
      <point x="171" y="614" type="line"/>
      <point x="237" y="668" type="line"/>
      <point x="374" y="768" type="line" smooth="yes"/>
      <point x="391" y="780"/>
      <point x="395" y="806"/>
      <point x="382" y="824" type="curve" smooth="yes"/>
      <point x="370" y="841"/>
      <point x="344" y="845"/>
      <point x="326" y="832" type="curve" smooth="yes"/>
      <point x="189" y="732" type="line"/>
      <point x="66" y="631" type="line" smooth="yes"/>
      <point x="40" y="610"/>
      <point x="46" y="574"/>
      <point x="77" y="562" type="curve" smooth="yes"/>
      <point x="264" y="494" type="line"/>
      <point x="145" y="436" type="line" smooth="yes"/>
      <point x="114" y="420"/>
      <point x="113" y="382"/>
      <point x="144" y="365" type="curve" smooth="yes"/>
      <point x="273" y="294" type="line"/>
      <point x="205" y="239" type="line"/>
      <point x="126" y="232" type="line" smooth="yes"/>
      <point x="79" y="229"/>
      <point x="74" y="165"/>
      <point x="120" y="154" type="curve" smooth="yes"/>
      <point x="324" y="102" type="line"/>
      <point x="601" y="3" type="line"/>
      <point x="605" y="0"/>
      <point x="610" y="-2"/>
      <point x="616" y="-3" type="curve" smooth="yes"/>
      <point x="617" y="-3" type="line"/>
      <point x="713" y="-38" type="line" smooth="yes"/>
      <point x="717" y="-39"/>
      <point x="723" y="-40"/>
    </contour>
  </outline>
</glyph>
<glyph name="W" format="1">
  <advance width="1069"/>
  <unicode hex="0057"/>
  <outline>
    <contour>
      <point x="400" y="376" type="line" smooth="yes"/>
      <point x="404" y="381"/>
      <point x="407" y="390"/>
      <point x="408" y="398" type="curve"/>
      <point x="423" y="390" type="line"/>
      <point x="384" y="353" type="line"/>
      <point x="385" y="356" type="line"/>
    </contour>
    <contour>
      <point x="499" y="162" type="curve" smooth="yes"/>
      <point x="516" y="157" type="line"/>
      <point x="508" y="133" type="line"/>
      <point x="419" y="216" type="line"/>
      <point x="419" y="219" type="line"/>
      <point x="469" y="199" type="line"/>
      <point x="470" y="182"/>
      <point x="480" y="168"/>
    </contour>
    <contour>
      <point x="241" y="69" type="line" smooth="yes"/>
      <point x="242" y="70"/>
      <point x="244" y="71"/>
      <point x="244" y="72" type="curve" smooth="yes"/>
      <point x="343" y="172" type="line" smooth="yes"/>
      <point x="344" y="173"/>
      <point x="345" y="174"/>
      <point x="346" y="175" type="curve"/>
      <point x="451" y="77" type="line"/>
      <point x="359" y="47" type="line"/>
      <point x="208" y="42" type="line"/>
    </contour>
    <contour>
      <point x="628" y="77" type="line"/>
      <point x="576" y="89" type="line"/>
      <point x="593" y="133" type="line"/>
      <point x="703" y="100" type="line"/>
    </contour>
    <contour>
      <point x="145" y="-40" type="line"/>
      <point x="368" y="-33" type="line" smooth="yes"/>
      <point x="371" y="-33"/>
      <point x="376" y="-32"/>
      <point x="379" y="-31" type="curve" smooth="yes"/>
      <point x="472" y="0" type="line"/>
      <point x="473" y="-21"/>
      <point x="488" y="-40"/>
      <point x="514" y="-40" type="curve" smooth="yes"/>
      <point x="691" y="-40" type="line" smooth="yes"/>
      <point x="692" y="-40"/>
      <point x="694" y="-40"/>
      <point x="696" y="-40" type="curve" smooth="yes"/>
      <point x="757" y="-33" type="line" smooth="yes"/>
      <point x="797" y="-28"/>
      <point x="806" y="19"/>
      <point x="777" y="39" type="curve"/>
      <point x="852" y="62" type="line" smooth="yes"/>
      <point x="892" y="74"/>
      <point x="892" y="126"/>
      <point x="852" y="138" type="curve" smooth="yes"/>
      <point x="671" y="193" type="line"/>
      <point x="986" y="261" type="line" smooth="yes"/>
      <point x="1018" y="268"/>
      <point x="1030" y="301"/>
      <point x="1009" y="326" type="curve" smooth="yes"/>
      <point x="946" y="400" type="line"/>
      <point x="1006" y="475" type="line" smooth="yes"/>
      <point x="1023" y="495"/>
      <point x="1017" y="523"/>
      <point x="993" y="536" type="curve" smooth="yes"/>
      <point x="831" y="620" type="line"/>
      <point x="854" y="687" type="line" smooth="yes"/>
      <point x="859" y="703"/>
      <point x="852" y="724"/>
      <point x="838" y="733" type="curve" smooth="yes"/>
      <point x="691" y="833" type="line" smooth="yes"/>
      <point x="674" y="845"/>
      <point x="648" y="840"/>
      <point x="636" y="822" type="curve" smooth="yes"/>
      <point x="624" y="805"/>
      <point x="629" y="779"/>
      <point x="647" y="767" type="curve" smooth="yes"/>
      <point x="768" y="684" type="line"/>
      <point x="744" y="613" type="line" smooth="yes"/>
      <point x="738" y="595"/>
      <point x="747" y="573"/>
      <point x="764" y="564" type="curve" smooth="yes"/>
      <point x="913" y="487" type="line"/>
      <point x="863" y="425" type="line" smooth="yes"/>
      <point x="851" y="411"/>
      <point x="852" y="388"/>
      <point x="863" y="374" type="curve" smooth="yes"/>
      <point x="905" y="325" type="line"/>
      <point x="556" y="251" type="line"/>
      <point x="441" y="296" type="line"/>
      <point x="518" y="371" type="line" smooth="yes"/>
      <point x="539" y="391"/>
      <point x="535" y="422"/>
      <point x="509" y="435" type="curve" smooth="yes"/>
      <point x="403" y="491" type="line"/>
      <point x="402" y="501" type="line"/>
      <point x="404" y="599" type="line" smooth="yes"/>
      <point x="404" y="615"/>
      <point x="393" y="632"/>
      <point x="379" y="637" type="curve" smooth="yes"/>
      <point x="195" y="710" type="line"/>
      <point x="275" y="767" type="line" smooth="yes"/>
      <point x="293" y="780"/>
      <point x="297" y="806"/>
      <point x="285" y="823" type="curve" smooth="yes"/>
      <point x="272" y="841"/>
      <point x="246" y="845"/>
      <point x="229" y="833" type="curve" smooth="yes"/>
      <point x="89" y="733" type="line" smooth="yes"/>
      <point x="61" y="713"/>
      <point x="65" y="676"/>
      <point x="97" y="663" type="curve" smooth="yes"/>
      <point x="323" y="573" type="line"/>
      <point x="323" y="532" type="line"/>
      <point x="316" y="535" type="line" smooth="yes"/>
      <point x="278" y="556"/>
      <point x="241" y="517"/>
      <point x="264" y="479" type="curve" smooth="yes"/>
      <point x="314" y="396" type="line"/>
      <point x="314" y="395" type="line"/>
      <point x="260" y="324" type="line" smooth="yes"/>
      <point x="254" y="316"/>
      <point x="251" y="301"/>
      <point x="253" y="291" type="curve" smooth="yes"/>
      <point x="271" y="212" type="line"/>
      <point x="189" y="130" type="line"/>
      <point x="67" y="31" type="line" smooth="yes"/>
      <point x="35" y="5"/>
      <point x="51" y="-40"/>
      <point x="92" y="-40" type="curve" smooth="yes"/>
    </contour>
  </outline>
</glyph>
